<?xml version="1.0" encoding="utf-8"?>
<svg version="1.1" xmlns:xlink="http://www.w3.org/1999/xlink" width="155px" height="120px" xmlns="http://www.w3.org/2000/svg">
  <g transform="matrix(1 0 0 1 -33 -1554 )">
    <path d="M 153.888275084981 54.0087181648514  C 146.942633961631 35.1812452272302  135.272882506351 26.4024696308286  96.6665884707842 20.9717619946605  C 87.5553785974522 19.6900974819193  64.3213191847679 17.5973505138716  43.9464359935799 12.0504604561515  C 26.8413922497745 7.3937566022414  0.810018706028393 0.832752663700986  0.937145697611877 0.798689088969997  C 1.06427268919536 0.764625514239001  9.18696249480001 30.1640808429665  17.1133360165195 61.169053232037  C 20.2924695904482 73.6046201922276  24.0687539855975 84.7976557566838  26.3883682143266 94.0627294428523  C 29.8521312409551 107.897797048349  31.2557094709 117.115611891237  32.1248406324656 117.192751156803  C 33.5760119028669 117.321549077024  59.6006761679968 120.701023107993  71.5800146511194 118.975560289807  C 135.090849369919 109.827677540382  160.833916208331 72.8361911024726  153.888275084981 54.0087181648514  Z " fill-rule="nonzero" fill="#dbdbdb" stroke="none" transform="matrix(1 0 0 1 33 1554 )" />
  </g>
</svg>