<?xml version="1.0" encoding="utf-8"?>
<svg version="1.1" xmlns:xlink="http://www.w3.org/1999/xlink" width="29px" height="25px" xmlns="http://www.w3.org/2000/svg">
  <g transform="matrix(1 0 0 1 -223 -200 )">
    <path d="M 11.0828333333333 8.52539682539683  C 10.6671666666667 9.64920634920635  9.425 10.3634920634921  8.18283333333333 10.3634920634921  C 6.52373939810713 10.3626163197699  5.17899999098914 9.03774990881619  5.17811111111111 7.4031746031746  C 5.17811111111111 6.17936507936508  5.90311111111111 4.95396825396825  7.04216666666667 4.44444444444444  C 8.18283333333333 4.03650793650794  9.63283333333333 4.23968253968254  10.4609444444444 5.15873015873016  C 11.2890555555556 6.07777777777778  11.6 7.4031746031746  11.0828333333333 8.52539682539683  Z M 8.28594444444444 6.28095238095238  C 7.975 6.28095238095238  7.66405555555556 6.38253968253968  7.56094444444444 6.58730158730159  C 7.35348525309478 6.80903333600193  7.24193919871933 7.1017139656708  7.25 7.4031746031746  C 7.37604522464873 7.92743920528754  7.84252176122618 8.30381606258138  8.38905555555556 8.32222222222222  C 8.92118412670019 8.19803973488357  9.30320663685344 7.73845694022598  9.32188888888889 7.2  C 9.32188888888889 6.68888888888889  8.80311111111111 6.28095238095238  8.28594444444444 6.28095238095238  Z M 2.07188888888889 0.158730158730158  L 26.9281111111111 0.158730158730158  C 28.0709150030009 0.162215989225997  28.9964618820467 1.07408483557654  29 2.2  L 29 22.6079365079365  C 28.9955783976842 23.7332317446625  28.0702888703971 24.6441381658899  26.9281111111111 24.647619047619  L 2.07188888888889 24.647619047619  C 0.929711129602953 24.6441381658899  0.0044216023158227 23.7332317446625  0 22.6079365079365  L 0 2.2  C 0.00353811795327558 1.07408483557654  0.929084996999077 0.162215989225996  2.07188888888889 0.158730158730158  Z M 26.9265 21.5873015873016  L 27 21.5873015873016  L 27 3.22063492063492  C 26.9272239590915 2.65731625583372  26.4639351114399 2.20087404139859  25.8921666666667 2.2  L 3.10944444444445 2.2  C 2.53767599967123 2.20087404139859  2.07438715201957 2.65731625583372  2 3.22063492063492  L 2 21.5873015873016  C 2.0735 22.0968253968254  2.48755555555556 22.6079365079365  3.10944444444444 22.6079365079365  L 25.8905555555556 22.6079365079365  C 26.4623240003288 22.6070624665379  26.9256128479804 22.1506202521028  26.9265 21.5873015873016  Z M 14.0859444444444 16.6904761904762  L 23.6140555555556 7.3015873015873  C 24.0281111111111 6.89365079365079  24.65 6.89365079365079  24.9609444444444 7.4031746031746  C 25.1591174174369 7.58948087910428  25.2712451198057 7.8475892956731  25.2712451198057 8.11746031746032  C 25.2712451198057 8.38733133924753  25.1591174174369 8.64543975581636  24.9609444444444 8.83174603174603  L 14.7078333333333 18.9365079365079  C 14.5230860926528 19.1377384861256  14.2581254512621 19.2491176719976  13.9828333333333 19.2412698412698  C 13.7075412154045 19.2491176719976  13.4425805740139 19.1377384861256  13.2578333333333 18.9365079365079  L 9.63283333333333 15.3650793650794  L 5.28283333333334 19.6507936507937  C 5.09373246326471 19.8460379591606  4.83175242044736 19.9565086018885  4.55783333333334 19.9565086018885  C 4.28391424621931 19.9565086018885  4.02193420340195 19.8460379591606  3.83283333333333 19.6507936507937  C 3.63423497974799 19.4647178578438  3.52180795215552 19.206523432023  3.52180795215552 18.9365079365079  C 3.52180795215552 18.6664924409929  3.63423497974799 18.4082980151721  3.83283333333333 18.2222222222222  L 9.01094444444445 13.1190476190476  C 9.19539496368418 12.9172296271304  9.46039687290571 12.8052529035842  9.73594444444445 12.8126984126984  C 10.0468888888889 12.8126984126984  10.2531111111111 12.915873015873  10.4609444444444 13.1190476190476  L 14.0859444444444 16.6904761904762  Z " fill-rule="nonzero" fill="#e0dfee" stroke="none" fill-opacity="0.223529411764706" transform="matrix(1 0 0 1 223 200 )" />
  </g>
</svg>