<?xml version="1.0" encoding="utf-8"?>
<svg version="1.1" xmlns:xlink="http://www.w3.org/1999/xlink" width="12px" height="12px" xmlns="http://www.w3.org/2000/svg">
  <g transform="matrix(1 0 0 1 -303 -764 )">
    <path d="M 11.7150192554557 4.9602157788267  C 11.9050064184852 5.17060013486177  12 5.41604855023601  12 5.69656102494943  C 12 5.98246797033041  11.9050064184852 6.22521915037087  11.7150192554557 6.4248145650708  L 6.70089858793325 11.7006068779501  C 6.50064184852375 11.90020229265  6.26700898587933 12  6 12  C 5.72785622593068 12  5.49679075738126 11.90020229265  5.30680359435173 11.7006068779501  L 0.292682926829268 6.4248145650708  C 0.0975609756097561 6.23061362103844  0 5.98786244099798  0 5.69656102494943  C 0 5.41065407956844  0.0975609756097561 5.1652056641942  0.292682926829268 4.9602157788267  L 0.862644415917843 4.35333782872556  C 1.06290115532734 4.15374241402562  1.29653401797176 4.05394470667566  1.56354300385109 4.05394470667566  C 1.83568677792041 4.05394470667566  2.06675224646983 4.15374241402562  2.25673940949936 4.35333782872556  L 4.5211810012837 6.73229939312205  L 4.5211810012837 1.03573836817262  C 4.5211810012837 0.755225893459204  4.61874197689345 0.512474713418745  4.81386392811297 0.307484828051248  C 5.00898587933248 0.102494942683748  5.2400513478819 0  5.50706033376123 0  L 6.49293966623877 0  C 6.7599486521181 0  6.99101412066752 0.102494942683748  7.18613607188704 0.307484828051248  C 7.38125802310655 0.512474713418745  7.4788189987163 0.755225893459204  7.4788189987163 1.03573836817262  L 7.4788189987163 6.73229939312205  L 9.74326059050064 4.35333782872556  C 9.93324775353017 4.15374241402562  10.1643132220796 4.05394470667566  10.4364569961489 4.05394470667566  C 10.7034659820282 4.05394470667566  10.9370988446727 4.15374241402562  11.1373555840822 4.35333782872556  L 11.7150192554557 4.9602157788267  Z " fill-rule="nonzero" fill="#000000" stroke="none" transform="matrix(1 0 0 1 303 764 )" />
  </g>
</svg>