<?xml version="1.0" encoding="utf-8"?>
<svg version="1.1" xmlns:xlink="http://www.w3.org/1999/xlink" width="30px" height="32px" xmlns="http://www.w3.org/2000/svg">
  <g transform="matrix(1 0 0 1 -83 -4288 )">
    <path d="M 6.43701171875 8.071875  C 6.43701171875 3.69375  10.102783203125 0.14375  14.62548828125 0.14375  C 19.148193359375 0.14375  22.81396484375 3.69375  22.81396484375 8.071875  C 22.81396484375 12.45  19.14501953125 16  14.62548828125 16  C 10.10595703125 16  6.43701171875 12.45  6.43701171875 8.071875  Z M 6.43701171875 8.071875  C 6.43701171875 3.69375  10.102783203125 0.14375  14.62548828125 0.14375  C 19.148193359375 0.14375  22.81396484375 3.69375  22.81396484375 8.071875  C 22.81396484375 12.45  19.14501953125 16  14.62548828125 16  C 10.10595703125 16  6.43701171875 12.45  6.43701171875 8.071875  Z M 0.978027343749996 28.884375  C 0.978027343749996 23.228125  5.71337890625 18.64375  11.55322265625 18.64375  L 18.376953125 18.64375  C 24.216796875 18.64375  28.9521484375 23.228125  28.9521484375 28.884375  L 28.9521484375 29.54375  C 28.9521484375 31.771875  24.216796875 31.85625  18.376953125 31.85625  L 11.55322265625 31.85625  C 5.71337890625 31.85625  0.978027343749996 31.853125  0.978027343749996 29.54375  L 0.978027343749996 28.884375  Z " fill-rule="nonzero" fill="#6e6e6e" stroke="none" transform="matrix(1 0 0 1 83 4288 )" />
  </g>
</svg>