<?xml version="1.0" encoding="utf-8"?>
<svg version="1.1" xmlns:xlink="http://www.w3.org/1999/xlink" width="20px" height="20px" xmlns="http://www.w3.org/2000/svg">
  <g transform="matrix(1 0 0 1 -80 -5102 )">
    <path d="M 17.47498046875 6.93748046875  C 17.187421875 3.05623046875  13.9498828125 0  10 0  C 6.05 0  2.812421875 3.05623046875  2.51873046875 6.93748046875  C 1.0874609375 7.21875  0 8.481171875  0 10.0000390625  L 0 11.25  C 0 12.975078125  1.4 14.375078125  3.125 14.375078125  L 5 14.375078125  L 5 11.25  L 5 10.0000390625  L 5 6.8750390625  L 3.7812109375 6.8750390625  C 4.09375 3.71875  6.756171875 1.249921875  10 1.249921875  C 13.24310546875 1.249921875  15.9062890625 3.71875  16.2187890625 6.8750390625  L 14.99984375 6.8750390625  L 14.99984375 10.0000390625  L 14.99984375 11.25  L 14.99984375 14.375078125  L 16.2187890625 14.375078125  C 15.65001953125 16.93755859375  13.362578125 18.85630859375  10.6249609375 18.85630859375  C 10.1937109375 18.85630859375  9.77494140625 18.80623046875  9.3749609375 18.7187109375  L 9.3749609375 19.8874609375  C 9.78126953125 19.96189453125  10.200078125 19.9999609375  10.6249609375 19.9999609375  C 14.01244140625 19.9999609375  16.82501953125 17.54998046875  17.3937890625 14.3311328125  C 17.4617578125 13.9375  17.499921875 13.53736328125  17.499921875 13.125078125  L 17.187421875 13.125078125  L 16.35619140625 13.125078125  L 16.25005859375 13.125078125  L 16.25005859375 11.04373046875  L 16.25005859375 10.2062109375  L 16.25005859375 8.125  L 17.18740234375 8.125  C 18.04990234375 8.125  18.74990234375 9.0562890625  18.74990234375 10.20623046875  L 18.74990234375 11.04375  C 18.74990234375 12.19373046875  18.04990234375 13.125078125  17.18740234375 13.125078125  L 17.49990234375 13.125078125  C 17.49990234375 13.53736328125  17.4617578125 13.9375  17.39376953125 14.3311328125  C 18.87494140625 14.0806640625  19.99990234375 12.79998046875  19.99990234375 11.25  L 19.99990234375 10.0000390625  C 19.999921875 8.481171875  18.912421875 7.21875  17.47498046875 6.93748046875  Z M 2.812421875 8.125  L 3.75 8.125  L 3.75 10.20623046875  L 3.75 11.04375  L 3.75 13.125078125  L 2.812421875 13.125078125  C 1.9498828125 13.125078125  1.2498828125 12.1937109375  1.2498828125 11.04375  L 1.2498828125 10.20623046875  C 1.2498828125 9.0562890625  1.95 8.125  2.812421875 8.125  Z " fill-rule="nonzero" fill="#000000" stroke="none" transform="matrix(1 0 0 1 80 5102 )" />
  </g>
</svg>