<?xml version="1.0" encoding="utf-8"?>
<svg version="1.1" xmlns:xlink="http://www.w3.org/1999/xlink" width="155px" height="120px" xmlns="http://www.w3.org/2000/svg">
  <g transform="matrix(1 0 0 1 -288 -1010 )">
    <path d="M 1.11172491501862 54.0087181648514  C 8.05736603836859 35.1812452272302  19.7271174936492 26.4024696308286  58.3334115292158 20.9717619946605  C 67.4446214025478 19.6900974819193  90.6786808152321 17.5973505138716  111.05356400642 12.0504604561515  C 128.158607750226 7.3937566022414  154.189981293972 0.832752663700986  154.062854302388 0.798689088969997  C 153.935727310805 0.764625514239001  145.8130375052 30.1640808429665  137.88666398348 61.169053232037  C 134.707530409552 73.6046201922276  130.931246014402 84.7976557566838  128.611631785673 94.0627294428523  C 125.147868759045 107.897797048349  123.7442905291 117.115611891237  122.875159367534 117.192751156803  C 121.423988097133 117.321549077024  95.3993238320032 120.701023107993  83.4199853488806 118.975560289807  C 19.9091506300807 109.827677540382  -5.83391620833134 72.8361911024726  1.11172491501862 54.0087181648514  Z " fill-rule="nonzero" fill="#dbdbdb" stroke="none" transform="matrix(1 0 0 1 288 1010 )" />
  </g>
</svg>