<?xml version="1.0" encoding="utf-8"?>
<svg version="1.1" xmlns:xlink="http://www.w3.org/1999/xlink" width="49px" height="49px" xmlns="http://www.w3.org/2000/svg">
  <g transform="matrix(1 0 0 1 -486 -82 )">
    <path d="M 510.5 82  C 524.22 82  535 92.78  535 106.5  C 535 120.22  524.22 131  510.5 131  C 496.78 131  486 120.22  486 106.5  C 486 92.78  496.78 82  510.5 82  Z " fill-rule="nonzero" fill="#ffffff" stroke="none" />
    <path d="M 510.5 82.5  C 523.94 82.5  534.5 93.06  534.5 106.5  C 534.5 119.94  523.94 130.5  510.5 130.5  C 497.06 130.5  486.5 119.94  486.5 106.5  C 486.5 93.06  497.06 82.5  510.5 82.5  Z " stroke-width="1" stroke="#797979" fill="none" />
  </g>
</svg>