<?xml version="1.0" encoding="utf-8"?>
<svg version="1.1" xmlns:xlink="http://www.w3.org/1999/xlink" width="10px" height="8px" xmlns="http://www.w3.org/2000/svg">
  <g transform="matrix(1 0 0 1 -122 -791 )">
    <path d="M 9.87630208333333 6.51875  C 9.95876736111111 6.59791666666667  10 6.69166666666667  10 6.8  L 10 7.6  C 10 7.70833333333333  9.95876736111111 7.80208333333333  9.87630208333333 7.88125  C 9.79383680555556 7.96041666666667  9.69618055555556 8  9.58333333333333 8  L 0.416666666666667 8  C 0.303819444444444 8  0.206163194444444 7.96041666666667  0.123697916666667 7.88125  C 0.0412326388888889 7.80208333333333  0 7.70833333333333  0 7.6  L 0 6.8  C 0 6.69166666666667  0.0412326388888889 6.59791666666667  0.123697916666667 6.51875  C 0.206163194444444 6.43958333333333  0.303819444444444 6.4  0.416666666666667 6.4  L 9.58333333333333 6.4  C 9.69618055555556 6.4  9.79383680555556 6.43958333333333  9.87630208333333 6.51875  Z M 9.87630208333333 3.31875  C 9.95876736111111 3.39791666666667  10 3.49166666666667  10 3.6  L 10 4.4  C 10 4.50833333333333  9.95876736111111 4.60208333333333  9.87630208333333 4.68125  C 9.79383680555556 4.76041666666667  9.69618055555556 4.8  9.58333333333333 4.8  L 0.416666666666667 4.8  C 0.303819444444444 4.8  0.206163194444444 4.76041666666667  0.123697916666667 4.68125  C 0.0412326388888889 4.60208333333333  0 4.50833333333333  0 4.4  L 0 3.6  C 0 3.49166666666667  0.0412326388888889 3.39791666666667  0.123697916666667 3.31875  C 0.206163194444444 3.23958333333333  0.303819444444444 3.2  0.416666666666667 3.2  L 9.58333333333333 3.2  C 9.69618055555556 3.2  9.79383680555556 3.23958333333333  9.87630208333333 3.31875  Z M 9.87630208333333 0.11875  C 9.95876736111111 0.197916666666666  10 0.291666666666666  10 0.4  L 10 1.2  C 10 1.30833333333333  9.95876736111111 1.40208333333333  9.87630208333333 1.48125  C 9.79383680555556 1.56041666666667  9.69618055555556 1.6  9.58333333333333 1.6  L 0.416666666666667 1.6  C 0.303819444444444 1.6  0.206163194444444 1.56041666666667  0.123697916666667 1.48125  C 0.0412326388888889 1.40208333333333  0 1.30833333333333  0 1.2  L 0 0.4  C 0 0.291666666666666  0.0412326388888889 0.197916666666666  0.123697916666667 0.11875  C 0.206163194444444 0.0395833333333329  0.303819444444444 0  0.416666666666667 0  L 9.58333333333333 0  C 9.69618055555556 0  9.79383680555556 0.0395833333333329  9.87630208333333 0.11875  Z " fill-rule="nonzero" fill="#a4a4a4" stroke="none" transform="matrix(1 0 0 1 122 791 )" />
  </g>
</svg>