<?xml version="1.0" encoding="utf-8"?>
<svg version="1.1" xmlns:xlink="http://www.w3.org/1999/xlink" width="15px" height="8px" xmlns="http://www.w3.org/2000/svg">
  <g transform="matrix(1 0 0 1 -143 -760 )">
    <path d="M 14.7216796875 0.263888888888889  C 14.9072265625 0.439814814814814  15 0.648148148148146  15 0.888888888888889  C 15 1.12962962962963  14.9072265625 1.33796296296296  14.7216796875 1.51388888888889  L 8.1591796875 7.73611111111111  C 7.9736328125 7.91203703703704  7.75390625 8  7.5 8  C 7.24609375 8  7.0263671875 7.91203703703704  6.8408203125 7.73611111111111  L 0.2783203125 1.51388888888889  C 0.0927734375 1.33796296296296  0 1.12962962962963  0 0.888888888888889  C 0 0.648148148148146  0.0927734375 0.439814814814814  0.2783203125 0.263888888888889  C 0.4638671875 0.0879629629629619  0.68359375 0  0.9375 0  L 14.0625 0  C 14.31640625 0  14.5361328125 0.0879629629629619  14.7216796875 0.263888888888889  Z " fill-rule="nonzero" fill="#f7f7f7" stroke="none" transform="matrix(1 0 0 1 143 760 )" />
  </g>
</svg>