<?xml version="1.0" encoding="utf-8"?>
<svg version="1.1" xmlns:xlink="http://www.w3.org/1999/xlink" width="14px" height="14px" xmlns="http://www.w3.org/2000/svg">
  <g transform="matrix(1 0 0 1 -181 -44 )">
    <path d="M 188 44.5  C 191.64 44.5  194.5 47.36  194.5 51  C 194.5 54.64  191.64 57.5  188 57.5  C 184.36 57.5  181.5 54.64  181.5 51  C 181.5 47.36  184.36 44.5  188 44.5  Z " fill-rule="nonzero" fill="#ffffff" stroke="none" fill-opacity="0" />
    <path d="M 188 44.5  C 191.64 44.5  194.5 47.36  194.5 51  C 194.5 54.64  191.64 57.5  188 57.5  C 184.36 57.5  181.5 54.64  181.5 51  C 181.5 47.36  184.36 44.5  188 44.5  Z " stroke-width="1" stroke="#000000" fill="none" stroke-opacity="0.247058823529412" />
  </g>
</svg>