<?xml version="1.0" encoding="utf-8"?>
<svg version="1.1" xmlns:xlink="http://www.w3.org/1999/xlink" width="14px" height="14px" xmlns="http://www.w3.org/2000/svg">
  <g transform="matrix(1 0 0 1 -228 -291 )">
    <path d="M 235 291  C 238.92 291  242 294.08  242 298  C 242 301.92  238.92 305  235 305  C 231.08 305  228 301.92  228 298  C 228 294.08  231.08 291  235 291  Z " fill-rule="nonzero" fill="#ffffff" stroke="none" fill-opacity="0" />
    <path d="M 235 291.5  C 238.64 291.5  241.5 294.36  241.5 298  C 241.5 301.64  238.64 304.5  235 304.5  C 231.36 304.5  228.5 301.64  228.5 298  C 228.5 294.36  231.36 291.5  235 291.5  Z " stroke-width="1" stroke="#1890ff" fill="none" />
  </g>
</svg>