<?xml version="1.0" encoding="utf-8"?>
<svg version="1.1" xmlns:xlink="http://www.w3.org/1999/xlink" width="16px" height="18px" xmlns="http://www.w3.org/2000/svg">
  <g transform="matrix(1 0 0 1 -1842 -1452 )">
    <path d="M 3.43307291666667 4.5404296875  C 3.43307291666667 2.077734375  5.38815104166667 0.080859375  7.80026041666667 0.080859375  C 10.2123697916667 0.080859375  12.1674479166667 2.077734375  12.1674479166667 4.5404296875  C 12.1674479166667 7.003125  10.2106770833333 9  7.80026041666667 9  C 5.38984375 9  3.43307291666667 7.003125  3.43307291666667 4.5404296875  Z M 3.43307291666667 4.5404296875  C 3.43307291666667 2.077734375  5.38815104166667 0.080859375  7.80026041666667 0.080859375  C 10.2123697916667 0.080859375  12.1674479166667 2.077734375  12.1674479166667 4.5404296875  C 12.1674479166667 7.003125  10.2106770833333 9  7.80026041666667 9  C 5.38984375 9  3.43307291666667 7.003125  3.43307291666667 4.5404296875  Z M 0.521614583333331 16.2474609375  C 0.521614583333331 13.0658203125  3.04713541666666 10.487109375  6.16171875 10.487109375  L 9.80104166666667 10.487109375  C 12.915625 10.487109375  15.4411458333333 13.0658203125  15.4411458333333 16.2474609375  L 15.4411458333333 16.618359375  C 15.4411458333333 17.8716796875  12.915625 17.919140625  9.80104166666666 17.919140625  L 6.16171875 17.919140625  C 3.04713541666666 17.919140625  0.521614583333331 17.9173828125  0.521614583333331 16.618359375  L 0.521614583333331 16.2474609375  Z " fill-rule="nonzero" fill="#6e6e6e" stroke="none" transform="matrix(1 0 0 1 1842 1452 )" />
  </g>
</svg>