<?xml version="1.0" encoding="utf-8"?>
<svg version="1.1" xmlns:xlink="http://www.w3.org/1999/xlink" width="6px" height="11px" xmlns="http://www.w3.org/2000/svg">
  <g transform="matrix(1 0 0 1 -2437 -3481 )">
    <path d="M 5.80208333333333 5.0166015625  C 5.93402777777778 5.15266927083333  6 5.31380208333333  6 5.5  C 6 5.68619791666667  5.93402777777778 5.84733072916667  5.80208333333333 5.9833984375  L 1.13541666666667 10.7958984375  C 1.00347222222222 10.9319661458333  0.847222222222222 11  0.666666666666667 11  C 0.486111111111111 11  0.329861111111111 10.9319661458333  0.197916666666667 10.7958984375  C 0.0659722222222222 10.6598307291667  0 10.4986979166667  0 10.3125  L 0 0.6875  C 0 0.501302083333332  0.0659722222222222 0.340169270833332  0.197916666666667 0.2041015625  C 0.329861111111111 0.0680338541666659  0.486111111111111 0  0.666666666666667 0  C 0.847222222222222 0  1.00347222222222 0.0680338541666659  1.13541666666667 0.2041015625  L 5.80208333333333 5.0166015625  Z " fill-rule="nonzero" fill="#ffffff" stroke="none" transform="matrix(1 0 0 1 2437 3481 )" />
  </g>
</svg>