<?xml version="1.0" encoding="utf-8"?>
<svg version="1.1" xmlns:xlink="http://www.w3.org/1999/xlink" width="17px" height="14px" xmlns="http://www.w3.org/2000/svg">
  <g transform="matrix(1 0 0 1 -2969 -2308 )">
    <path d="M 2.78969434851926 11.0171999957031  L 0.597880395030888 8.37939998710938  C 0.404200213149352 8.14134611152177  0.29603937827135 7.82408548136947  0.29603937827135 7.4940307932514  C 0.29603937827135 6.78810042601769  0.780852522309228 6.21583079325141  1.37889984338763 6.21583079325141  C 1.65897017690879 6.21583079325141  1.928147563001 6.34391860356476  2.12991362854288 6.57320000859375  L 4.31986379101563 9.20880001289063  C 4.5141055049647 9.44696309264651  4.62261842900031 9.76469796131075  4.62261842900031 10.095290778783  C 4.62261842900031 10.8012211460168  4.13780528496243 11.373490778783  3.53975796388403 11.373490778783  C 3.26014352106722 11.373490778783  2.99136789883751 11.2458185721124  2.78969434851926 11.0171999957031  Z M 14.8894020006359 0.850999991406251  L 14.8931295571857 0.855400000000003  C 15.0988221790128 0.560177477174762  15.4056516384529 0.389110305329765  15.729475966699 0.389110305329765  C 16.3275232877774 0.389110305329765  16.8123364318153 0.961379938096047  16.8123364318153 1.66731030532977  C 16.8123364318153 1.97227165920716  16.7199650406463 2.26718414261296  16.5519003249455 2.49879999140625  L 6.09791695444223 13.4240000042969  C 5.89219056138867 13.7075187247348  5.59174363334554 13.8707103182203  5.27549259619578 13.8707103182203  C 4.67744527511738 13.8707103182203  4.1926321310795 13.298440685454  4.1926321310795 12.5925103182203  C 4.1926321310795 12.2963347882867  4.27976681894718 12.0093509452825  4.43914618668241 11.7806000128906  L 14.8894020006359 0.850999991406251  Z " fill-rule="nonzero" fill="#ffffff" stroke="none" transform="matrix(1 0 0 1 2969 2308 )" />
  </g>
</svg>