<?xml version="1.0" encoding="utf-8"?>
<svg version="1.1" xmlns:xlink="http://www.w3.org/1999/xlink" width="18px" height="14px" xmlns="http://www.w3.org/2000/svg">
  <g transform="matrix(1 0 0 1 -1537 -4005 )">
    <path d="M 16.51618603125 13.8571708447266  C 17.1650421035156 13.8571708447266  17.5659902578125 13.1691697949219  17.2325143476563 12.6280341967773  L 9.70668687304688 0.415626708984375  C 9.38243870507813 -0.110521557617187  8.598242390625 -0.110521557617187  8.27399424023437 0.415626708984375  L 0.748166748046875 12.6280341967773  C 0.414690837890625 13.1691697949219  0.8156569921875 13.8571708447266  1.46451306445313 13.8571708447266  L 16.51618603125 13.8571708447266  Z M 9.81178961132812 11.077832722168  C 9.81178961132812 11.5182016455078  9.44327346679688 11.8764462646484  8.99034055664062 11.8764462646484  C 8.5373896640625 11.8764462646484  8.16889150195312 11.5182016625977  8.16889150195312 11.077832722168  C 8.16889150195312 10.6374637817383  8.5373896640625 10.2792016967773  8.99034055664062 10.2792016967773  C 9.44329144921875 10.2792016967773  9.81178961132812 10.6374637988281  9.81178961132812 11.077832722168  Z M 9.82977739453125 4.23395288818359  L 9.82977741210937 8.58267694580078  C 9.82977741210937 9.03266435791016  9.453202734375 9.39877862792969  8.99034055664062 9.39877862792969  C 8.52747837890625 9.39877862792969  8.15090370117187 9.03266435791016  8.15090370117187 8.58267694580078  L 8.15090368359375 4.23395288818359  C 8.15090368359375 3.78394799316406  8.52747836132813 3.41783372314453  8.9903405390625 3.41783372314453  C 9.45320271679688 3.41783372314453  9.82977739453125 3.78394799316406  9.82977739453125 4.23395288818359  Z " fill-rule="nonzero" fill="#ff0d0d" stroke="none" transform="matrix(1 0 0 1 1537 4005 )" />
  </g>
</svg>