<?xml version="1.0" encoding="utf-8"?>
<svg version="1.1" xmlns:xlink="http://www.w3.org/1999/xlink" width="6px" height="6px" xmlns="http://www.w3.org/2000/svg">
  <g transform="matrix(1 0 0 1 -180 -470 )">
    <path d="M 2.45191087462837 2.59687072172392  C 2.9006391220987 2.0892928753529  2.7167340947408 0.757820592979385  3.13603751855091 0.757820640974394  C 3.13603751855091 0.757820640974394  3.27580531020612 0.74310822935665  3.35672355138038 0.838738834153656  C 3.43764179255466 0.934369438950661  3.52591616712056 2.25112930885697  3.87165757956278 2.61158313334166  C 4.21739899242974 2.97203695782636  5.60772087327921 2.76606333703935  5.60772087327921 3.23686017793879  C 5.60772087327921 3.61202641446596  4.31302959680201 3.65616360174891  3.87165757956278 4.0166174262336  C 3.43028556232356 4.3770712507183  3.68039637039351 5.89980474183635  3.14339374878202 5.8409551433604  C 2.7240903249719 5.79681795607745  3.01833832074954 4.59040105374141  2.50340429214242 4.10489184921924  C 1.98847026396002 3.61938259627733  0.730559992954412 3.71501320064959  0.730559992529678 3.27364118341037  C 0.730559992529678 2.83226916617114  2.01789508762025 3.10444856767021  2.45191087462837 2.59687072172392  Z " fill-rule="nonzero" fill="#ff0000" stroke="none" transform="matrix(1 0 0 1 180 470 )" />
  </g>
</svg>