<?xml version="1.0" encoding="utf-8"?>
<svg version="1.1" xmlns:xlink="http://www.w3.org/1999/xlink" width="7px" height="7px" xmlns="http://www.w3.org/2000/svg">
  <g transform="matrix(1 0 0 1 -141 -465 )">
    <path d="M 6.12007997613991 4.53669132744535  C 6.02444937134291 4.37485489394129  5.84054434398501 4.26451192552155  5.64192690500937 4.26451192552155  L 3.97206939158026 4.26451192552155  L 3.97206939158026 3.10223225888819  L 5.64192690500937 3.10223225888819  C 5.95088731240475 3.10223225888819  6.19364193866333 2.85212145081824  6.19364193866333 2.5505172248095  C 6.19364193866333 2.24155681741412  5.94353113059337 1.99880219115553  5.64192690500937 1.99880219115553  L 4.68562085958776 1.99880219115553  L 5.29618549214241 0.94686549294191  C 5.44330951402873 0.682042272829481  5.34767890923173 0.351013272004998  5.09021187093067 0.203889249693944  C 4.8327448326296 0.0567652273828863  4.49435964999375 0.137683468981887  4.33987944629607 0.395150459287947  L 3.42771058815741 1.98408977953779  L 2.51554173001874 0.395150459287947  C 2.36106152632106 0.137683420986885  2.02267629526547 0.0494090464209904  1.7652092569644 0.203889249693944  C 1.50774221866333 0.351013271580264  1.41211161386634 0.68204227240475  1.55923563575266 0.94686549294191  L 2.16980031715178 1.99880219115553  L 1.21349422331043 1.99880219115553  C 0.904533815915059 1.99880219115553  0.661779189656471 2.24891299922549  0.661779189231737 2.5505172248095  C 0.661779189231737 2.85947763220487  0.911889997301692 3.10223225846346  1.21349422331043 3.1022322588882  L 2.8833517363148 3.1022322588882  L 2.8833517363148 4.26451192552155  L 1.21349422331043 4.26451192552155  C 0.904533815915059 4.26451192552155  0.661779189656471 4.51462273359151  0.661779189231737 4.81622695917552  C 0.661779189231737 5.12518736657089  0.911889997301692 5.36794199282949  1.21349422331043 5.36794199282949  L 2.8833517363148 5.36794199282949  L 2.8833517363148 6.38309768599625  C 2.8833517363148 6.69205809339163  3.13346254438476 6.93481271965022  3.43506676996877 6.93481271965022  C 3.74402717736415 6.93481271965022  3.98678180362273 6.68470191158027  3.98678180404747 6.38309768599625  L 3.98678180404747 5.36794199282949  L 5.64192690500937 5.36794199282949  C 5.84054429599 5.36794199282949  6.02444932334791 5.26495520664585  6.12007997613991 5.08840636109932  C 6.21571058093691 4.91921374535915  6.21571058093691 4.70588394276078  6.12007997613991 4.53669132744535  Z " fill-rule="nonzero" fill="#f4ad51" stroke="none" transform="matrix(1 0 0 1 141 465 )" />
  </g>
</svg>