<?xml version="1.0" encoding="utf-8"?>
<svg version="1.1" xmlns:xlink="http://www.w3.org/1999/xlink" width="51px" height="59px" xmlns="http://www.w3.org/2000/svg">
  <defs>
    <linearGradient gradientUnits="userSpaceOnUse" x1="25.3805969937313" y1="0.947674934328359" x2="25.3805969937313" y2="58.3834958298508" id="LinearGradient4305">
      <stop id="Stop4306" stop-color="#59d0fc" stop-opacity="0.0980392156862745" offset="0" />
      <stop id="Stop4307" stop-color="#4b79ff" stop-opacity="0.458823529411765" offset="1" />
    </linearGradient>
    <linearGradient gradientUnits="userSpaceOnUse" x1="-7.5" y1="-7" x2="-7.5" y2="-6" id="LinearGradient4308">
      <stop id="Stop4309" stop-color="#59d0fc" offset="0" />
      <stop id="Stop4310" stop-color="#4b79ff" offset="1" />
    </linearGradient>
    <mask fill="white" id="clip4311">
      <path d="M 0.404186877014926 15.2006600089552  C 0.404186877014926 15.2006600089552  25.4865671641791 0.841704785074628  25.4865671641791 0.841704785074628  C 25.4865671641791 0.841704785074628  50.3570071104478 15.2006600089552  50.3570071104478 15.2006600089552  C 50.3570071104478 15.2006600089552  50.3570071104478 44.1305107552239  50.3570071104478 44.1305107552239  C 50.3570071104478 44.1305107552239  25.4865671641791 58.4894659791045  25.4865671641791 58.4894659791045  C 25.4865671641791 58.4894659791045  0.404186877014926 44.1305107552239  0.404186877014926 44.1305107552239  C 0.404186877014926 44.1305107552239  0.404186877014926 15.2006600089552  0.404186877014926 15.2006600089552  Z " fill-rule="evenodd" />
    </mask>
  </defs>
  <g transform="matrix(1 0 0 1 -8 -7 )">
    <path d="M 0.404186877014926 15.2006600089552  C 0.404186877014926 15.2006600089552  25.4865671641791 0.841704785074628  25.4865671641791 0.841704785074628  C 25.4865671641791 0.841704785074628  50.3570071104478 15.2006600089552  50.3570071104478 15.2006600089552  C 50.3570071104478 15.2006600089552  50.3570071104478 44.1305107552239  50.3570071104478 44.1305107552239  C 50.3570071104478 44.1305107552239  25.4865671641791 58.4894659791045  25.4865671641791 58.4894659791045  C 25.4865671641791 58.4894659791045  0.404186877014926 44.1305107552239  0.404186877014926 44.1305107552239  C 0.404186877014926 44.1305107552239  0.404186877014926 15.2006600089552  0.404186877014926 15.2006600089552  Z " fill-rule="nonzero" fill="url(#LinearGradient4305)" stroke="none" transform="matrix(1 0 0 1 8 7 )" />
    <path d="M 0.404186877014926 15.2006600089552  C 0.404186877014926 15.2006600089552  25.4865671641791 0.841704785074628  25.4865671641791 0.841704785074628  C 25.4865671641791 0.841704785074628  50.3570071104478 15.2006600089552  50.3570071104478 15.2006600089552  C 50.3570071104478 15.2006600089552  50.3570071104478 44.1305107552239  50.3570071104478 44.1305107552239  C 50.3570071104478 44.1305107552239  25.4865671641791 58.4894659791045  25.4865671641791 58.4894659791045  C 25.4865671641791 58.4894659791045  0.404186877014926 44.1305107552239  0.404186877014926 44.1305107552239  C 0.404186877014926 44.1305107552239  0.404186877014926 15.2006600089552  0.404186877014926 15.2006600089552  Z " stroke-width="0.423880597014925" stroke-dasharray="3.60298507462687,1.6955223880597" stroke="url(#LinearGradient4308)" fill="none" transform="matrix(1 0 0 1 8 7 )" mask="url(#clip4311)" />
  </g>
</svg>