<?xml version="1.0" encoding="utf-8"?>
<svg version="1.1" xmlns:xlink="http://www.w3.org/1999/xlink" width="11px" height="12px" xmlns="http://www.w3.org/2000/svg">
  <g transform="matrix(1 0 0 1 -28 -31 )">
    <path d="M 10.3397116976119 8.3970169719403  C 10.4809121316418 8.45643187014926  10.5731343283582 8.59777583014926  10.5731343283582 8.75374699820895  L 10.5731343283582 10.6839772229851  C 10.5731343283582 10.8928047119403  10.4003059376119 11.0634478922388  10.1967029889552 11.0699938167164  C 10.1774999050746 11.0704009752239  4.14730037402985 11.0688779086567  4.14730037402985 11.0688779086567  C 2.59982718597015 10.9553712895522  0.93796887567164 8.96028044537314  0.517518076080595 7.69015031850746  C 0.261525699985071 6.91695669432836  0.471568738188058 6.51391629283582  0.693272856447759 6.3124034358209  C 0.864953942298506 6.15641605432836  1.06932223704478 6.0738387519403  1.28499694056716 6.0738387519403  C 1.86469378576119 6.0738387519403  2.39770610480597 6.65440108925373  2.96232008089552 7.2690434477612  C 3.35869055164179 7.70100816835821  3.80778789014925 8.19009544089553  4.1755448522388 8.33606881283582  C 5.06427109641791 8.68773291492538  5.8980132238806 8.76337406835821  6.44383390477612 8.76420315761195  C 6.2171902480597 8.47002389820896  6.02598211910448 8.20170728955224  5.97590022388059 8.0731656680597  C 5.89388250746268 7.86277126208955  5.92961271701493 7.60912666567165  6.07118076149253 7.39446306149254  C 6.24090613432836 7.13739601074627  6.52136651940298 6.99802748268657  6.81342768985074 7.04592096716418  C 7.29337427402985 7.12076259701493  9.83495563641791 8.18431970746269  10.3397091119403 8.39702174059702  Z M 5.45081444656716 0.261107770149255  C 7.83805484328358 0.261107770149255  9.78039080119403 2.25230630319403  9.78039080119403 4.70145378925373  C 9.78039080119403 5.7155786438806  9.4431298438806 6.64864892358209  8.8830045280597 7.3968134158209  C 8.01611283970149 7.04821093970149  7.12814188716418 6.7107976397015  6.83527229164179 6.6652559719403  C 6.77697177552238 6.65595166567164  6.71896532656717 6.65094512716418  6.66175325104477 6.65094512716418  C 6.29101244507463 6.65094512716418  5.9397685358209 6.84862760835821  5.72187246059701 7.17868208686567  C 5.50991677522388 7.49907007432836  5.46024841791045 7.88743848477612  5.58895022388059 8.21713069373134  C 5.60027213820895 8.24570713402985  5.61569645373135 8.28081317940298  5.64053106686567 8.32751572895523  C 5.23175140686567 8.2739065961194  4.76164086597015 8.16923691253731  4.27376945253731 7.97625952716418  C 3.98469356716418 7.86159172955224  3.53071409910447 7.36587017462686  3.19798203044776 7.0037856038806  C 2.57611517820895 6.32707402805971  1.98968388128358 5.68819773761194  1.247375202 5.68819773761194  C 1.24249354507463 5.68819773761194  1.23836178167164 5.68929857671642  1.23381830940298 5.68929857671642  C 1.16271084931343 5.37078083522388  1.12204008462686 5.04074110776119  1.12204008462686 4.70061372149254  C 1.12204008462686 2.25230565465672  3.06357190925373 0.261107770149255  5.45082667552239 0.261107770149255  Z M 6.76904999820896 3.36799910149254  L 6.15965121223881 3.36799910149254  L 7.0554795122388 2.48128487014925  C 7.2049440919403 2.33301859029851  7.20948732895522 2.08867964808955  7.06491933313433 1.93540636134328  C 6.92035123134328 1.78177227591045  6.68251746597015 1.77830418871642  6.53265655791044 1.92574013098508  L 5.63566661313433 2.81363101671642  L 4.77290750626865 1.93039959182089  C 4.62535556059701 1.77941921934328  4.38710967731343 1.77941921934328  4.24030727970149 1.93074643  C 4.09309278537313 2.08207287343284  4.09349053373134 2.3264736661791  4.24064547283582 2.47704610656717  L 5.11133085014925 3.36840509432836  L 4.50979945761194 3.36840509432836  C 4.30204957910448 3.36840509432836  4.13341120567164 3.54135738537314  4.13341120567164 3.75448058626866  C 4.13341120567164 3.96754488895522  4.30204957910448 4.14048096656717  4.50979945761194 4.14048096656717  L 5.26261904895522 4.14048096656717  L 5.26261904895522 4.5265564797015  L 4.50979945761194 4.5265564797015  C 4.30204957910448 4.5265564797015  4.13341120567164 4.69950877074627  4.13341120567164 4.91257307343284  C 4.13341120567164 5.1256830280597  4.30204957910448 5.29863383552239  4.50979945761194 5.29863383552239  L 5.26261904895522 5.29863383552239  L 5.26261904895522 6.07301737731343  C 5.26261904895522 6.2865484997015  5.43125742238806 6.45909286925373  5.63905038835821 6.45909286925373  C 5.84721238477611 6.45909286925373  6.01551186567164 6.28656322955224  6.01551186567164 6.07301737731343  L 6.01551186567164 5.29863383552239  L 6.76908100507463 5.29863383552239  C 6.9772272119403 5.29863383552239  7.14546927820896 5.12568154447762  7.14546927820896 4.91257307343284  C 7.14546927820896 4.69950877074627  6.97724300149254 4.5265564797015  6.76908100507463 4.5265564797015  L 6.01551186567164 4.5265564797015  L 6.01551186567164 4.14048096656717  L 6.76908100507463 4.14048096656717  C 6.9772272119403 4.14048096656717  7.14546927820896 3.96754488895522  7.14546927820896 3.75448058626866  C 7.14546927820896 3.54135590179105  6.97724300149254 3.36840509432836  6.76908100507463 3.36840509432836  Z " fill-rule="nonzero" fill="#b6e8fd" stroke="none" transform="matrix(1 0 0 1 28 31 )" />
  </g>
</svg>