<?xml version="1.0" encoding="utf-8"?>
<svg version="1.1" xmlns:xlink="http://www.w3.org/1999/xlink" width="8px" height="8px" xmlns="http://www.w3.org/2000/svg">
  <g transform="matrix(1 0 0 1 -63 -5 )">
    <path d="M 67 5  C 69.24 5  71 6.76  71 9  C 71 11.24  69.24 13  67 13  C 64.76 13  63 11.24  63 9  C 63 6.76  64.76 5  67 5  Z " fill-rule="nonzero" fill="#37e5e6" stroke="none" fill-opacity="0.152941176470588" />
    <path d="M 67 5.10597014925373  C 69.1806567164179 5.10597014925373  70.8940298507463 6.81934328358209  70.8940298507463 9  C 70.8940298507463 11.1806567164179  69.1806567164179 12.8940298507463  67 12.8940298507463  C 64.8193432835821 12.8940298507463  63.1059701492537 11.1806567164179  63.1059701492537 9  C 63.1059701492537 6.81934328358209  64.8193432835821 5.10597014925373  67 5.10597014925373  Z " stroke-width="0.211940298507463" stroke="#18c3e8" fill="none" />
  </g>
</svg>