<?xml version="1.0" encoding="utf-8"?>
<svg version="1.1" xmlns:xlink="http://www.w3.org/1999/xlink" width="34px" height="31px" xmlns="http://www.w3.org/2000/svg">
  <defs>
    <linearGradient gradientUnits="userSpaceOnUse" x1="115.022685687211" y1="79.7860099357133" x2="609.15101882547" y2="826.136101199123" id="LinearGradient4546">
      <stop id="Stop4547" stop-color="#dee7ff" offset="0" />
      <stop id="Stop4548" stop-color="#c5d4ff" offset="1" />
    </linearGradient>
  </defs>
  <g transform="matrix(1 0 0 1 -9 -23 )">
    <path d="M 3.04767283624161 0.171025981208054  C 3.20690750067114 0.192833747651008  3.36058426979865 0.244547310067112  3.50060845503355 0.323442706040268  L 29.5789355033557 15.0170466979866  C 32.0656027114094 16.418137557047  33.6040268456376 19.0507663355705  33.6040268456376 21.9049861208054  L 33.6040268456376 27.1719779060403  C 33.6040268456376 28.2987870604027  32.6905675436242 29.2122463624161  31.5637583892617 29.2122463624161  C 31.2051924295302 29.2122463624161  30.8529586979866 29.1177497986577  30.5425412885906 28.9382765637584  L 28.8554155033557 27.9628346711409  L 28.8554155033557 30.0469798657718  L 26.9087262550336 26.8373215973154  L 5.46683852751678 14.440311261745  C 2.29451133154362 12.6061736778524  0.546572743624157 9.03554703355705  1.04378269798657 5.40505075167786  L 1.61127426442953 1.26137681342282  C 1.70683271140939 0.563634228187919  2.34993025100671 0.0754675342281885  3.04767283624161 0.171025981208054  Z " fill-rule="nonzero" fill="url(#LinearGradient4546)" stroke="none" transform="matrix(1 0 0 1 9 23 )" />
  </g>
</svg>