<?xml version="1.0" encoding="utf-8"?>
<svg version="1.1" xmlns:xlink="http://www.w3.org/1999/xlink" width="33px" height="31px" xmlns="http://www.w3.org/2000/svg">
  <defs>
    <linearGradient gradientUnits="userSpaceOnUse" x1="1.49414025293692" y1="2.66418617227804" x2="16.6310312719212" y2="27.6358331829348" id="LinearGradient4543">
      <stop id="Stop4544" stop-color="#dee7ff" offset="0" />
      <stop id="Stop4545" stop-color="#c5d4ff" offset="1" />
    </linearGradient>
  </defs>
  <g transform="matrix(1 0 0 1 -2 0 )">
    <path d="M 2.39666612483221 0.21800584085906  C 2.55590078926174 0.239813620563758  2.70957755838926 0.291527175073826  2.84960174362416 0.370422573852349  L 28.9279287919463 15.0640264872483  C 31.414596 16.4651173463087  32.9530201342282 19.0977461503356  32.9530201342282 21.9519658590604  L 32.9530201342282 27.2189577718121  C 32.9530201342282 28.3457669261745  32.0395608322148 29.2592262281879  30.9127516778523 29.2592262281879  C 30.5541857181208 29.2592262281879  30.2019519865772 29.1647296644295  29.8915345771812 28.9852564295302  L 28.2044087919463 28.0098145369128  L 28.2044087919463 30.0939597315436  L 26.2577195436242 26.8843014630872  L 4.81583181610738 14.4872910510067  C 1.64350462013422 12.6531534416107  -0.104433980536918 9.08252692483222  0.392775981476504 5.45203069395973  L 0.960267553020129 1.30835667409396  C 1.05582599999999 0.610614093959732  1.69892353959731 0.122447399489933  2.39666612483221 0.21800584085906  Z " fill-rule="nonzero" fill="url(#LinearGradient4543)" stroke="none" transform="matrix(1 0 0 1 2 0 )" />
  </g>
</svg>