<?xml version="1.0" encoding="utf-8"?>
<svg version="1.1" xmlns:xlink="http://www.w3.org/1999/xlink" width="33px" height="31px" xmlns="http://www.w3.org/2000/svg">
  <defs>
    <linearGradient gradientUnits="userSpaceOnUse" x1="16.5907628159424" y1="0.481227409795843" x2="16.5907628159424" y2="30.3691275167785" id="LinearGradient3870">
      <stop id="Stop3871" stop-color="#59d0fc" offset="0" />
      <stop id="Stop3872" stop-color="#4b79ff" offset="1" />
    </linearGradient>
  </defs>
  <g transform="matrix(1 0 0 1 0 -1 )">
    <path d="M 2.35639765825503 0.493173627114094  C 2.51563232268456 0.514981406308725  2.66930909181207 0.566694961073826  2.80933328469798 0.645590359597316  L 28.8876603355705 15.3391942724832  C 31.3743275436242 16.7402851315436  32.9127516778523 19.3729139355705  32.9127516778523 22.2271336442953  L 32.9127516778523 27.494125557047  C 32.9127516778523 28.6209347114094  31.9992923758389 29.5343940134228  30.8724832214765 29.5343940134228  C 30.513917261745 29.5343940134228  30.1616835302013 29.4398974496644  29.8512661208054 29.2604242147651  L 28.1641403355705 28.2849823221477  L 28.1641403355705 30.3691275167785  L 26.2174510872483 27.1594692483221  L 4.77556335973154 14.7624588362416  C 1.60323617140939 12.9283212268456  -0.144702436912757 9.35769471006711  0.352507525865766 5.72719847919463  L 0.91999909664429 1.58352445932886  C 1.01555753852348 0.885781879194631  1.6586550781208 0.397615185234899  2.35639765825503 0.493173627114094  Z " fill-rule="nonzero" fill="url(#LinearGradient3870)" stroke="none" transform="matrix(1 0 0 1 0 1 )" />
  </g>
</svg>