<?xml version="1.0" encoding="utf-8"?>
<svg version="1.1" xmlns:xlink="http://www.w3.org/1999/xlink" width="29px" height="62px" xmlns="http://www.w3.org/2000/svg">
  <defs>
    <linearGradient gradientUnits="userSpaceOnUse" x1="14.3355704697987" y1="0.695388923087248" x2="14.3355704697987" y2="61.758389261745" id="LinearGradient4534">
      <stop id="Stop4535" stop-color="#ffffff" offset="0" />
      <stop id="Stop4536" stop-color="#4b79ff" offset="1" />
    </linearGradient>
  </defs>
  <g transform="matrix(1 0 0 1 -21 -2 )">
    <path d="M 4.00671140939597 0.695388923087248  C 4.63803519731543 0.695388923087248  5.25807104697986 0.862783148993289  5.80361689932885 1.18050862147651  L 25.4478696644295 12.6213062120805  C 27.1734955704698 13.6263093503356  28.2348993288591 15.4727618416107  28 17.469713485906  L 28 57.8759596107383  C 28.2348993288591 59.5773290201342  27.0344153154362 61.0423583221477  25.3662359731544 61.3767769395973  L 23.4626407651007 61.758389261745  L 3.63592490469798 49.1923725234899  C 1.64359854899328 47.9296516510067  0.43624161073825 45.7350111275168  1 43.3762340671141  L 1 4.26585871409396  C 0.43624161073825 2.29394269395973  2.03479538926174 0.695388923087248  4.00671140939597 0.695388923087248  Z " fill-rule="nonzero" fill="url(#LinearGradient4534)" stroke="none" transform="matrix(1 0 0 1 21 2 )" />
  </g>
</svg>