<?xml version="1.0" encoding="utf-8"?>
<svg version="1.1" xmlns:xlink="http://www.w3.org/1999/xlink" width="33px" height="31px" xmlns="http://www.w3.org/2000/svg">
  <g transform="matrix(1 0 0 1 -8 -23 )">
    <path d="M 2.26243793691275 0.936126652348992  C 2.42167260134228 0.957934418791947  2.57534937046979 1.00964798120805  2.71537355570469 1.08854337718121  L 28.7937006040268 15.7821473691275  C 31.2803678120805 17.1832382281879  32.8187919463087 19.8158670067114  32.8187919463087 22.6700867919463  L 32.8187919463087 27.9370785771812  C 32.8187919463087 29.0638877315436  31.9053326442953 29.9773470335571  30.7785234899329 29.9773470335571  C 30.4199575302013 29.9773470335571  30.0677237986577 29.8828504697987  29.7573063892617 29.7033772348993  L 28.0701806040268 28.7279353422819  L 28.0701806040268 30.8120805369128  L 26.1234913557047 27.6024222684564  L 4.68160362818792 15.2054119328859  C 1.50927643221476 13.3712743489933  -0.238662155704703 9.80064770469799  0.258547798657712 6.17015142281879  L 0.826039365100668 2.02647748456376  C 0.921597812080533 1.32873489932886  1.56469535167785 0.840568205369127  2.26243793691275 0.936126652348992  Z " fill-rule="nonzero" fill="#b6e8fd" stroke="none" transform="matrix(1 0 0 1 8 23 )" />
  </g>
</svg>