<?xml version="1.0" encoding="utf-8"?>
<svg version="1.1" xmlns:xlink="http://www.w3.org/1999/xlink" width="26px" height="52px" xmlns="http://www.w3.org/2000/svg">
  <defs>
    <linearGradient gradientUnits="userSpaceOnUse" x1="12.8053691275168" y1="0.631656687248323" x2="12.8053691275168" y2="51.724058147651" id="LinearGradient3861">
      <stop id="Stop3862" stop-color="#97dbf4" offset="0" />
      <stop id="Stop3863" stop-color="#537fff" offset="1" />
    </linearGradient>
  </defs>
  <g transform="matrix(1 0 0 1 -21 -9 )">
    <path d="M 2.73154362416107 0.631656687248322  C 3.15226001208053 0.631656687248322  3.56488359865771 0.747289437583895  3.92433115838926 0.965920907382552  L 22.4794611543624 12.2519491395973  C 24.1529765637584 13.2698530738255  25.1744966442953 15.0868266697987  25 17.0455970872483  L 25 50.4488903624161  C 25.1744966442953 51.1531458926175  24.6035846442953 51.724058147651  23.8993288590604 51.724058147651  C 23.6746532214765 51.724058147651  23.4539660536913 51.6646960268456  23.2596088053691 51.5519819060403  L 4.75728700134228 40.8218637583893  C 2.08261515033556 39.2707318120805  0.43624161073825 36.4127459463087  0.43624161073825 33.3208402416107  L 0.43624161073825 2.92695870067114  C 0.43624161073825 1.65929838926175  1.46388333825503 0.631656687248322  2.73154362416107 0.631656687248322  Z " fill-rule="nonzero" fill="url(#LinearGradient3861)" stroke="none" transform="matrix(1 0 0 1 21 9 )" />
  </g>
</svg>