<?xml version="1.0" encoding="utf-8"?>
<svg version="1.1" xmlns:xlink="http://www.w3.org/1999/xlink" width="53px" height="30px" xmlns="http://www.w3.org/2000/svg">
  <defs>
    <linearGradient gradientUnits="userSpaceOnUse" x1="4.17268367450368" y1="3.72817700364936" x2="26.4656745437847" y2="19.4098681730297" id="LinearGradient3849">
      <stop id="Stop3850" stop-color="#3470af" offset="0" />
      <stop id="Stop3851" stop-color="#3965ca" offset="1" />
    </linearGradient>
  </defs>
  <g transform="matrix(1 0 0 1 -9 -42 )">
    <path d="M 12.5862956791946 0.899102053691273  C 13.1778680496644 0.58120884563759  13.8879928711409 0.574793986577184  14.4852114295302 0.881948751677854  L 51.1204800671141 19.7237876510067  C 52.1225283355705 20.2391497718121  52.5170655033557 21.469254147651  52.0017031275168 22.4713024161074  C 51.836104738255 22.7932848322148  51.5878053422819 23.0653997718121  51.2822935033557 23.2597139194631  L 45.6192417449664 26.8615745234899  C 40.7158510469799 29.9802692080537  34.4690636912752 30.0523577583893  29.4950080402685 27.0476500671141  L 1.68895008993288 10.2506766040269  C 0.724457935570465 9.66805014765101  0.414894735570465 8.41386244295303  0.997521344966438 7.44937041610739  C 1.18652791275167 7.13648504697986  1.45612340134228 6.88012429530202  1.77811890067114 6.70709371812081  L 12.5862956791946 0.899102053691273  Z " fill-rule="nonzero" fill="url(#LinearGradient3849)" stroke="none" transform="matrix(1 0 0 1 9 42 )" />
  </g>
</svg>