<?xml version="1.0" encoding="utf-8"?>
<svg version="1.1" xmlns:xlink="http://www.w3.org/1999/xlink" width="40px" height="22px" xmlns="http://www.w3.org/2000/svg">
  <defs>
    <linearGradient gradientUnits="userSpaceOnUse" x1="39.9665917624202" y1="4.10480267522863" x2="20.3811271365583" y2="14.5116401440293" id="LinearGradient3852">
      <stop id="Stop3853" stop-color="#59d0fc" offset="0" />
      <stop id="Stop3854" stop-color="#4b79ff" offset="1" />
    </linearGradient>
  </defs>
  <g transform="matrix(1 0 0 1 -15 -46 )">
    <path d="M 6.05202531946308 0.975911651006712  C 6.64093309932885 0.66278680536913  7.34571022416107 0.657279865771812  7.93943926040268 0.961163825503355  L 39.6888100536913 17.2112055838926  C 39.939575114094 17.3395527516779  40.0388145369128 17.646884  39.910467114094 17.8976493154362  C 39.8668882550336 17.9827940536913  39.8002464563758 18.0539695838926  39.7181501342282 18.1030505369128  L 34.5062703355705 21.2189482684564  C 33.0234988590604 22.1054160939597  31.1809188993289 22.1354207919463  29.6700705234899 21.2977013557047  L 1.45271291677852 5.65203123489933  C 0.836798944966439 5.31052574496645  0.614347021476508 4.53438365100671  0.955852664429527 3.91846970469799  C 1.07536972885906 3.70291763758389  1.25479323221476 3.52662110067114  1.47241298389261 3.41091186577182  L 6.05202531946308 0.975911651006712  Z " fill-rule="nonzero" fill="url(#LinearGradient3852)" stroke="none" transform="matrix(1 0 0 1 15 46 )" />
  </g>
</svg>