<?xml version="1.0" encoding="utf-8"?>
<svg version="1.1" xmlns:xlink="http://www.w3.org/1999/xlink" width="29px" height="61px" xmlns="http://www.w3.org/2000/svg">
  <defs>
    <linearGradient gradientUnits="userSpaceOnUse" x1="9.22074074465772" y1="-22.4998686390254" x2="14.8053691275168" y2="60.0575164966443" id="LinearGradient4280">
      <stop id="Stop4281" stop-color="#59d0fc" offset="0" />
      <stop id="Stop4282" stop-color="#4b79ff" offset="1" />
    </linearGradient>
  </defs>
  <g transform="matrix(1 0 0 1 -19 -3 )">
    <path d="M 4.47651006711409 0.208689855033557  C 5.10932513825503 0.208689855033557  5.73077127248322 0.376875381208054  6.27721321073825 0.696024451006712  L 25.9236361073826 12.1705051395973  C 27.6458930201342 13.1763882456376  28.7046979865772 15.0209469852349  28.7046979865772 17.0154319194631  L 28.7046979865772 56.4870466979866  C 28.7046979865772 58.458962590604  27.1061440805369 60.0575164966443  25.1342281879195 60.0575164966443  C 24.5150403758389 60.0575164966443  23.9064956241611 59.8964923892617  23.3683401342282 59.590253704698  L 4.38630523355704 48.7884780134228  C 2.23479797449664 47.5641572885906  0.906040268456369 45.27919  1 42.8037213154362  L 1 3.77915965369128  C 0.906040268456369 1.80724363355705  2.50459404697986 0.208689855033557  4.47651006711409 0.208689855033557  Z " fill-rule="nonzero" fill="url(#LinearGradient4280)" stroke="none" transform="matrix(1 0 0 1 19 3 )" />
  </g>
</svg>