<?xml version="1.0" encoding="utf-8"?>
<svg version="1.1" xmlns:xlink="http://www.w3.org/1999/xlink" width="68px" height="40px" xmlns="http://www.w3.org/2000/svg">
  <defs>
    <linearGradient gradientUnits="userSpaceOnUse" x1="33.5925373134328" y1="0.261107770149258" x2="33.5925373134328" y2="39.6820032925373" id="LinearGradient4552">
      <stop id="Stop4553" stop-color="#59d0fc" stop-opacity="0.0980392156862745" offset="0" />
      <stop id="Stop4554" stop-color="#4b79ff" stop-opacity="0.0980392156862745" offset="1" />
    </linearGradient>
    <linearGradient gradientUnits="userSpaceOnUse" x1="33.5925373134328" y1="0.261107770149258" x2="33.5925373134328" y2="39.6820032925373" id="LinearGradient4555">
      <stop id="Stop4556" stop-color="#59d0fc" stop-opacity="0.0980392156862745" offset="0" />
      <stop id="Stop4557" stop-color="#4b79ff" stop-opacity="0.0980392156862745" offset="1" />
    </linearGradient>
    <mask fill="white" id="clip4558">
      <path d="M 33.6985074626866 0.155137620895523  C 33.6985074626866 0.155137620895523  0.105970149253731 20.273197441791  0.105970149253731 20.273197441791  C 0.105970149253731 20.273197441791  33.0814962686567 39.7879734417911  33.0814962686567 39.7879734417911  C 33.0814962686567 39.7879734417911  67.0791044776119 20.273197441791  67.0791044776119 20.273197441791  C 67.0791044776119 20.273197441791  33.6985074626866 0.155137620895523  33.6985074626866 0.155137620895523  Z " fill-rule="evenodd" />
    </mask>
  </defs>
  <g transform="matrix(1 0 0 1 0 -31 )">
    <path d="M 33.6985074626866 0.155137620895523  C 33.6985074626866 0.155137620895523  0.105970149253731 20.273197441791  0.105970149253731 20.273197441791  C 0.105970149253731 20.273197441791  33.0814962686567 39.7879734417911  33.0814962686567 39.7879734417911  C 33.0814962686567 39.7879734417911  67.0791044776119 20.273197441791  67.0791044776119 20.273197441791  C 67.0791044776119 20.273197441791  33.6985074626866 0.155137620895523  33.6985074626866 0.155137620895523  Z " fill-rule="nonzero" fill="url(#LinearGradient4552)" stroke="none" transform="matrix(1 0 0 1 0 31 )" />
    <path d="M 33.6985074626866 0.155137620895523  C 33.6985074626866 0.155137620895523  0.105970149253731 20.273197441791  0.105970149253731 20.273197441791  C 0.105970149253731 20.273197441791  33.0814962686567 39.7879734417911  33.0814962686567 39.7879734417911  C 33.0814962686567 39.7879734417911  67.0791044776119 20.273197441791  67.0791044776119 20.273197441791  C 67.0791044776119 20.273197441791  33.6985074626866 0.155137620895523  33.6985074626866 0.155137620895523  Z " stroke-width="0.423880597014925" stroke="url(#LinearGradient4555)" fill="none" transform="matrix(1 0 0 1 0 31 )" mask="url(#clip4558)" />
  </g>
</svg>