<?xml version="1.0" encoding="utf-8"?>
<svg version="1.1" xmlns:xlink="http://www.w3.org/1999/xlink" width="99px" height="10px" xmlns="http://www.w3.org/2000/svg">
  <g transform="matrix(1 0 0 1 -234 -110 )">
    <path d="M 31.0296875 0.985937499999999  C 31.45625 1.15  31.63125 1.54375  32.1234375 1.2046875  C 31.8609375 0.84375  31.5765625 0.767187499999999  31.0296875 0.985937499999999  Z M 32.6265625 1.303125  L 33.6984375 1.303125  C 33.8953125 1.5328125  34.1359375 1.5328125  34.3765625 1.434375  C 34.4203125 1.4125  34.4421875 1.215625  34.409375 1.1828125  C 34.2015625 1.00781249999999  33.9390625 1.0734375  33.6875 1.084375  C 33.3265625 1.084375  32.9546875 0.975000000000001  32.6265625 1.303125  Z M 36.7828125 1.6859375  C 37.209375 1.5546875  37.8546875 2.1015625  38.0515625 1.28125  L 37.8546875 1.28125  C 37.5921875 1.6640625  37.0453125 1.303125  36.7828125 1.6859375  Z M 27.5953125 0.635937500000004  C 27.7375 0.920312500000009  28.0109375 0.7890625  28.21875 0.854687500000004  C 28.2296875 1.0625  28.240625 1.2703125  28.240625 1.478125  C 28.74375 1.346875  29.246875 1.215625  29.75 1.0953125  C 29.946875 1.3359375  30.253125 1.2375  30.253125 1.0625  C 30.253125 0.646875000000001  29.8375 0.701562500000001  29.5421875 0.646875000000001  C 29.378125 0.646875000000001  29.225 0.657812499999999  29.0609375 0.657812499999999  C 28.56875 0.646875000000001  28.0875 0.646875000000001  27.5953125 0.635937500000004  Z M 1.946875 3.4140625  C 1.946875 3.5671875  2.0671875 3.6328125  2.296875 3.6328125  C 2.340625 3.5671875  2.428125 3.4796875  2.5046875 3.38125  C 2.384375 3.3375  2.275 3.271875  2.1546875 3.271875  C 2.078125 3.271875  1.946875 3.359375  1.946875 3.4140625  Z M 26.03125 0.395312499999996  C 26.0203125 0.723437499999996  26.3703125 0.657812499999991  26.5015625 0.832812499999996  L 27.103125 0.832812499999996  C 26.8625 0.40625  26.446875 0.384374999999991  26.03125 0.395312499999996  Z M 43.75 1.90468749999999  C 43.8921875 1.77343749999999  43.88125 1.64218749999999  43.7609375 1.5  C 43.5421875 1.565625  43.3234375 1.6421875  43.1046875 1.7078125  C 43.0390625 1.7734375  42.9734375 1.8390625  42.9078125 1.91562499999999  C 43.1921875 1.91562499999999  43.4765625 1.90468749999999  43.75 1.90468749999999  Z M 1.3125 5.2296875  L 1.3453125 4.9671875  C 1.0171875 4.715625  0.798437499999999 4.9125  0.459375000000001 5.2296875  L 1.3125 5.2296875  Z M 39.33125 1.5875  C 39.6484375 1.784375  39.94375 1.7296875  40.425 1.609375  C 39.9546875 1.45625  39.659375 1.4234375  39.33125 1.5875  Z M 28 1.4890625  C 27.8359375 0.810937500000001  27.5953125 1.390625  27.3875 1.4890625  L 28 1.4890625  Z M 97.7375 5.03281249999999  C 98.153125 4.409375  98.0765625 3.65468749999999  97.60625 2.9  C 96.99375 1.9265625  96.11875 1.71875  95.1234375 1.7078125  C 93.0890625 1.696875  91.0765625 2.04687500000001  89.03125 1.915625  C 88.4515625 1.9265625  87.8609375 1.9265625  87.28125 1.9375  C 86.9421875 1.80625  86.646875 1.8609375  86.384375 2.1015625  C 86.31875 2.0578125  86.253125 2.06875  86.1984375 2.1234375  C 84.328125 1.89375  82.4578125 2.090625  80.5875 2.1015625  C 76.628125 2.1125  72.66875 1.7296875  68.709375 2.1671875  C 68.1078125 1.8171875  67.5171875 1.95937500000001  66.9265625 2.1890625  L 66.5875 2.1890625  C 66.040625 2.1890625  65.4828125 1.9375  64.9359375 2.178125  C 64.7390625 2.1671875  64.5421875 2.1671875  64.3453125 2.15625  L 63.7875 2.15625  C 63.6453125 2.15625  63.4921875 2.15625  63.35 2.1671875  C 63.109375 2.1453125  62.8578125 2.15625  62.6171875 2.1453125  L 61.3265625 2.1453125  C 61.11875 2.1125  60.9 2.134375  60.6921875 2.15625000000001  C 60.528125 2.1453125  60.353125 2.1453125  60.1890625 2.13437500000001  C 60.090625 2.14531250000001  60.003125 2.15625000000001  59.9046875 2.15625000000001  C 59.346875 2.15625000000001  58.8 2.1453125  58.2421875 2.1453125  C 58.165625 2.2  58.0890625 2.21093750000001  58.0125 2.221875  C 58.0890625 2.2  58.165625 2.17812500000001  58.2421875 2.1453125  C 58.0890625 2.1453125  57.9359375 2.134375  57.7828125 2.134375  C 57.225 1.54375  56.4703125 1.85  55.8140625 1.71875  L 55.3765625 1.71875  C 54.73125 1.71875  54.075 1.7078125  53.4296875 1.7078125  C 53.3859375 1.784375  53.375 1.8390625  53.3859375 1.8828125  C 53.134375 1.8390625  52.8828125 1.7734375  52.6203125 1.8171875  C 52.63125 1.7734375  52.5984375 1.7296875  52.521875 1.69687499999999  C 52.084375 1.7078125  51.646875 1.7078125  51.209375 1.71874999999999  L 50.334375 1.71874999999999  C 49.678125 1.75156249999999  49.04375 1.45625  48.3875 1.65312499999999  C 48.2453125 1.42343749999999  48.0921875 1.45624999999999  47.928125 1.64218749999999  C 47.5015625 1.66406249999999  47.0640625 1.68593749999999  46.6375 1.70781249999999  C 46.0578125 1.70781249999999  45.478125 1.71874999999999  44.8984375 1.71874999999999  C 44.8546875 1.784375  44.84375 1.84999999999999  44.865625 1.90468749999999  C 44.8 1.91562499999999  44.734375 1.91562499999999  44.66875 1.92656249999999  C 44.8546875 2.54999999999999  45.2375 2.62656249999999  45.7734375 2.35312499999999  C 46.1015625 2.46249999999999  46.50625 2.85624999999999  46.6375 2.13437499999999  L 47.0859375 2.13437499999999  C 47.446875 2.46249999999999  47.8078125 2.15624999999999  48.16875 2.14531249999999  C 48.190625 2.26562499999999  48.190625 2.40781249999999  48.3 2.47343749999999  C 47.0203125 2.48437499999999  45.7625 2.74687499999999  44.4828125 2.76874999999999  C 44.3734375 2.79062499999999  44.253125 2.82343749999999  44.14375 2.85624999999999  C 44.0453125 2.72499999999999  43.903125 2.67031249999999  43.684375 2.73593749999999  C 42.8203125 2.99843749999999  41.8796875 2.68124999999999  41.103125 2.58281249999999  C 40.03125 2.44062499999999  38.9484375 2.57187499999999  37.8875 2.34218749999999  C 37.5046875 2.25468749999999  37.1328125 2.34218749999999  37.0234375 2.82343749999999  C 36.509375 2.80156249999999  36.00625 2.79062499999999  35.4921875 2.76874999999999  C 35.415625 2.79062499999999  35.35 2.81249999999999  35.2734375 2.83437499999999  C 35.3390625 2.84531249999999  35.39375 2.86718749999999  35.459375 2.87812499999999  C 35.39375 2.86718749999999  35.328125 2.85624999999999  35.2734375 2.83437499999999  C 34.978125 2.82343749999999  34.6828125 2.82343749999999  34.3875 2.81249999999999  C 34.1796875 2.80156249999999  33.971875 2.77968749999999  33.7640625 2.76875  C 33.5015625 2.50625  33.1625 2.64843749999999  32.85625 2.57187499999999  C 32.6375 2.2546875  32.33125 2.2546875  32.003125 2.35312499999999  C 31.5546875 2.29843749999999  31.15 2.0359375  30.6796875 2.1453125  C 30.31875 2.15625  29.9578125 2.15625  29.5859375 2.1671875  L 28.2734375 1.9046875  C 28.0546875 1.9703125  27.759375 1.8171875  27.60625 2.1234375  C 27.4640625 2.06875  27.3109375 2.025  27.16875 1.9703125  C 26.8078125 1.959375  26.446875 1.9375  26.075 1.9265625  C 25.9984375 1.90468750000001  25.9328125 1.88281250000001  25.85625 1.8609375  C 25.6375 1.89375  25.4078125 1.9375  25.1890625 1.9703125  C 25.1234375 1.9484375  25.046875 1.915625  24.98125 1.89375  C 24.9375 1.7078125  24.871875 1.5109375  24.6421875 1.57656250000001  C 23.821875 1.8390625  22.9796875 1.653125  22.1484375 1.7078125  C 21.7765625 1.71875000000001  21.415625 1.74062500000001  21.04375 1.7515625  C 20.759375 1.7296875  20.4640625 1.71875  20.1796875 1.696875  L 20.1796875 1.2921875  C 20.3109375 1.2703125  20.453125 1.24843750000001  20.584375 1.2265625  C 20.95625 1.390625  21.3390625 1.4015625  21.721875 1.2484375  L 22.96875 1.2484375  C 22.5421875 1.215625  22.1484375 0.745312499999997  21.7 1.0734375  C 21.39375 1.09531249999999  21.1203125 1.01875  20.8578125 0.876562499999991  C 21 0.843749999999993  21.1203125 0.799999999999997  21.240625 0.712499999999991  C 21.2734375 0.668749999999996  21.2953125 0.635937499999997  21.30625 0.592187499999994  C 22.0828125 1.18281249999999  22.925 0.942187499999989  23.7671875 0.778124999999989  C 23.84375 0.734374999999993  23.8765625 0.69062499999999  23.8984375 0.63593749999999  C 24.171875 0.90937499999999  24.45625 0.898437499999986  24.7734375 0.668749999999989  C 24.8390625 0.657812499999991  24.915625 0.646874999999994  24.98125 0.646874999999994  C 25.1890625 0.559374999999989  25.3421875 0.41718749999999  25.41875 0.209374999999994  C 25.046875 0.25312499999999  24.6421875 0.0890624999999901  24.3140625 0.406249999999993  C 24.1609375 0.428124999999994  24.01875 0.439062499999991  23.865625 0.460937499999993  C 23.0015625 0.110937499999991  22.1375 0.132812499999993  21.2625 0.417187499999997  C 20.409375 -0.0312500000000071  19.5125 0.307812499999997  18.6375 0.242187499999993  C 18.178125 0.187499999999993  17.71875 0.0999999999999943  17.303125 0.417187499999997  C 17.0953125 0.428125000000001  16.8875 0.449999999999996  16.690625 0.460937499999993  L 16.0125 0.460937499999993  C 15.0390625 0.504687499999989  14.0546875 0.220312499999991  13.103125 0.624999999999993  C 12.928125 0.701562499999994  12.7640625 0.778124999999989  12.5890625 0.854687499999997  C 11.615625 0.460937499999993  10.6421875 0.668749999999996  9.66875 0.843749999999993  C 9.7015625 0.876562499999991  9.7234375 0.909374999999997  9.75625 0.953124999999993  L 9.66875 0.953124999999993  C 9.646875 0.920312499999994  9.646875 0.887499999999989  9.66875 0.854687499999997  C 9.5265625 0.854687499999997  9.3734375 0.865625000000001  9.23125 0.865625000000001  C 9.14375 0.8984375  9.05625000000001 0.920312500000001  8.96875 0.953125  C 8.3453125 0.548437499999999  7.765625 0.6796875  7.1859375 1.0625  C 7.0765625 1.0625  6.95625 1.0734375  6.846875 1.0734375  L 6.584375 0.876562499999999  C 6.0375 0.581250000000004  5.446875 0.657812499999999  4.8671875 0.668750000000003  C 4.571875 0.504687500000003  4.396875 0.723437500000003  4.2109375 0.887500000000003  C 3.89375 0.975000000000009  3.5765625 1.06250000000001  3.259375 1.13906250000001  C 3.2703125 1.19375000000001  3.2703125 1.2375  3.28125 1.2921875  L 3.9921875 1.2921875  L 4.0796875 1.325  L 4.1671875 1.3140625  C 4.178125 1.4453125  4.178125 1.5875  4.1890625 1.71875  C 3.828125 1.71875  3.45625 1.740625  3.36875 2.2  C 3.19375 2.4515625  2.9203125 2.35312499999999  2.6796875 2.396875  C 2.3734375 2.440625  2.1109375 2.55  2.5375 2.8015625  C 2.778125 2.94375  3.1171875 2.8890625  3.1390625 3.29375  C 3.040625 3.81875  3.7078125 3.578125  3.7734375 3.928125  C 3.325 3.971875  2.84375 3.796875  2.4390625 4.125  C 2.165625 4.3546875  1.88125 4.5953125  1.6078125 4.825  C 1.684375 4.825  1.7609375 4.81406249999999  1.8375 4.81406249999999  C 2.778125 5.24062499999999  3.7515625 4.934375  4.7140625 4.97812499999999  C 4.7578125 4.9890625  4.8125 4.99999999999999  4.8671875 5.01093749999999  L 4.921875 5.01093749999999  C 4.9765625 5.02187499999999  5.0421875 5.04374999999999  5.096875 5.05468749999999  C 5.1734375 5.17499999999999  5.25 5.29531249999999  5.3265625 5.42656249999999  C 4.9546875 5.50312499999999  4.528125 5.30624999999998  4.221875 5.66718749999999  C 3.9484375 5.73281249999999  3.7625 5.55781249999999  3.5546875 5.43749999999999  C 2.9640625 5.17499999999999  2.384375 5.07656249999999  1.815625 5.50312499999999  C 1.96875 5.52499999999999  2.1109375 5.53593749999999  2.2640625 5.55781249999999  L 2.2640625 5.88593749999999  C 2.121875 5.96249999999999  1.96875 6.03906249999999  1.8265625 6.12656249999999  C 1.553125 6.06093749999999  1.3015625 6.0828125  1.1375 6.35625  C 1.3015625 6.60781249999999  1.5640625 6.53125  1.79375 6.55312499999999  C 1.815625 6.49843749999999  1.8265625 6.43281249999999  1.8484375 6.37812499999999  C 2.40625 6.21406249999999  3.1390625 6.71718749999999  3.54375 5.92968749999999  C 3.7625 5.91874999999999  3.9703125 5.90781249999998  4.1890625 5.89687499999999  C 4.2765625 5.99531249999999  4.353125 6.0828125  4.440625 6.18124999999999  C 4.5390625 6.21406249999999  4.6265625 6.23593749999999  4.7359375 6.23593749999999  C 4.7578125 6.23593749999999  4.76875 6.22499999999999  4.790625 6.22499999999999  C 5.009375 6.4109375  5.3265625 6.21406249999999  5.5453125 6.35625  L 5.5453125 6.5421875  C 5.3265625 6.55312500000001  5.096875 6.56406250000001  4.965625 6.72812500000001  C 4.725 6.64062500000001  4.484375 6.60781250000001  4.24375 6.73906250000001  C 4.025 6.75000000000001  3.80625 6.77187500000001  3.5875 6.78281250000001  C 3.5328125 6.80468750000001  3.478125 6.815625  3.4125 6.80468750000001  C 3.36875 6.87031250000001  3.3578125 6.93593750000002  3.3796875 7.00156250000001  L 3.36875 7.00156250000001  L 3.3796875 7.034375  C 3.128125 7.034375  2.865625 7.0234375  2.6140625 7.0234375  C 2.515625 7.00156249999999  2.4171875 6.9796875  2.3296875 6.94687499999999  C 2.23125 6.903125  2.13281250000001 6.92499999999999  2.05625 6.99062499999999  C 1.88125 7.19843749999999  1.5203125 7.0671875  1.4 7.35156249999999  C 1.05 7.50468749999999  0.601562500000004 7.30781249999999  0.295312500000005 7.62499999999999  C 0.218750000000004 7.61406249999999  0.153125000000006 7.62499999999999  0.0875000000000039 7.63593749999999  C 0.131250000000005 8.33593749999999  0.678125000000005 7.93124999999999  0.995312500000004 8.02968749999999  L 0.984375000000004 8.06249999999999  C 1.071875 8.22656249999999  1.1703125 8.39062499999999  1.25781250000001 8.55468749999999  L 0.535937500000006 8.94843749999999  C 0.995312500000006 9.37499999999999  1.54218750000001 9.05781249999999  2.0453125 9.12343749999999  C 2.121875 9.1453125  2.209375 9.16718749999999  2.2859375 9.18906249999999  C 2.2859375 9.34218749999999  1.87031250000001 9.4296875  2.11093750000001 9.56093749999999  C 2.48281250000001 9.75781249999999  2.85468750000001 10.075  3.3796875 9.67031249999999  C 3.5765625 9.51718749999999  3.88281250000001 9.18906249999999  4.33125000000001 9.37499999999999  C 5.47968750000001 9.85624999999999  6.6609375 9.40781249999998  7.83125000000001 9.38593749999999  C 8.03906250000001 9.44062499999999  8.24687500000001 9.48437499999999  8.46562500000001 9.41874999999999  C 8.49843750000001 9.41874999999999  8.53125000000001 9.42968749999999  8.56406250000001 9.42968749999999  C 8.58593750000001 9.42968749999999  8.60781250000001 9.37499999999999  8.62968750000001 9.34218749999999  C 8.91406250000001 9.27656249999999  9.1984375 9.1453125  9.471875 9.16718749999999  C 11.0140625 9.34218749999999  12.55625 9.16718749999999  14.0875 9.15624999999999  C 14.5796875 9.18906249999998  15.071875 9.19999999999999  15.53125 9.00312499999999  C 15.575 8.99218749999999  15.6078125 8.97031249999999  15.6515625 8.94843749999999  L 15.640625 8.95937499999999  C 16.1328125 9.1453125  16.6359375 9.18906249999999  17.15 9.13437499999999  L 17.5875 9.13437499999999  C 18.353125 8.609375  19.1734375 9.29843749999999  19.9609375 9.0359375  C 20.234375 9.29843749999999  20.4421875 9.090625  20.65 8.9375  C 21.4046875 9.15625  22.115625 8.828125  22.8375 8.71875  L 23.49375 8.68593750000001  C 24.0296875 8.65312500000001  24.5328125 9.2109375  25.0796875 8.75156250000001  C 25.3421875 8.58750000000001  25.6046875 8.27031250000001  25.9109375 8.69687500000001  C 26.6328125 9.09062500000001  27.3546875 9.07968750000001  28.0875 8.71875000000001  C 28.6015625 8.78437500000001  29.1046875 9.20000000000001  29.61875 8.75156250000001  C 29.771875 8.675  29.9140625 8.60937500000001  30.0671875 8.53281250000001  C 30.471875 8.75156250000001  30.9203125 8.70781250000001  31.346875 8.70781250000001  C 34.496875 8.65312500000001  37.646875 8.78437500000001  40.7859375 8.45625000000001  C 42.3390625 8.29218750000001  43.903125 8.23750000000001  45.4234375 7.87656250000002  C 45.7734375 7.86562500000002  46.1125 7.84375000000003  46.4625 7.83281250000002  C 49.39375 7.81093750000002  52.3359375 7.97500000000002  55.25625 7.65781250000002  C 55.60625 7.64687500000002  55.95625 7.89843750000003  56.30625 7.65781250000002  C 56.371875 7.65781250000002  56.4484375 7.65781250000002  56.5140625 7.64687500000002  C 56.65625 7.63593750000001  56.809375 7.62500000000001  56.9515625 7.62500000000001  C 57.8375 7.60312500000001  58.7234375 7.74531250000001  59.5875 7.46093750000001  L 59.6859375 7.48281250000002  L 59.784375 7.46093750000001  C 60.24375 7.80000000000001  60.6703125 7.38437500000001  61.1078125 7.39531250000001  L 61.3265625 7.39531250000001  L 63.7328125 7.42812500000001  C 64.9796875 7.48281250000001  66.215625 7.39531250000001  67.4515625 7.20937500000001  C 67.6703125 7.20937500000001  67.8890625 7.1984375  68.1078125 7.1984375  C 69.125 7.3625  70.13125 7.49375000000001  71.1703125 7.40625  L 74.440625 7.40625  C 74.528125 7.32968749999999  74.615625 7.2859375  74.7140625 7.26406250000001  C 74.703125 7.3078125  74.6921875 7.3515625  74.6921875 7.4171875  C 75.8515625 7.4171875  77.0109375 7.4171875  78.1703125 7.40625  C 81.33125 7.37343750000001  84.4921875 7.53750000000001  87.6421875 7.22031249999999  C 89.99375 6.97968749999999  92.3453125 6.77187499999999  94.6859375 6.5203125  C 95.8671875 6.38906249999999  96.99375 5.9734375  97.7375 5.03281249999999  Z M 3.36875 5.8203125  C 3.2375 5.7765625  3.1171875 5.73281250000001  2.9859375 5.7109375  L 3.0296875 5.6671875  C 3.10625 5.65625  3.19375 5.63437500000001  3.2703125 5.6125  C 3.2703125 5.68906250000001  3.3140625 5.7546875  3.36875 5.8203125  Z M 61.1078125 6.20312500000001  C 61.0421875 6.22500000000002  60.9984375 6.25781250000001  60.965625 6.3234375  L 60.965625 6.34531250000001  C 60.746875 6.33437500000001  60.5390625 6.3234375  60.3203125 6.31250000000001  C 60.4296875 6.27968750000002  60.5390625 6.24687500000001  60.6375 6.19218750000001  C 60.6703125 6.20312500000001  60.6921875 6.17031250000001  60.725 6.13750000000001  C 60.8234375 6.19218750000001  60.921875 6.18125000000001  61.009375 6.09375000000001  L 61.009375 6.10468750000001  L 61.1078125 6.20312500000001  Z M 54.4578125 6.78281250000001  C 54.46875 6.77187500000001  54.4796875 6.78281250000001  54.4796875 6.78281250000001  C 54.4796875 6.79375000000001  54.46875 6.80468750000001  54.46875 6.815625  C 54.46875 6.8046875  54.46875 6.79375  54.4578125 6.78281250000001  Z M 31.9484375 5.14218750000001  L 31.89375 5.14218750000001  L 31.8609375 5.14218750000001  C 31.7296875 5.03281250000001  31.5984375 4.97812500000001  31.45625 4.94531250000001  C 31.6859375 4.92343750000001  31.915625 4.91250000000001  32.1453125 5.02187500000001  C 32.0796875 5.0546875  32.0140625 5.09843750000001  31.9484375 5.14218750000001  Z M 29.5421875 6.01718750000001  C 29.4765625 6.08281250000001  29.44375 6.14843750000001  29.4109375 6.2140625  C 29.246875 6.1375  29.0828125 6.1375  28.91875 6.27968750000001  C 28.9296875 6.24687500000001  28.9296875 6.2140625  28.9296875 6.159375  C 28.7109375 5.809375  28.3828125 5.83125  28.0328125 5.90781250000001  L 28.0328125 5.87500000000001  C 28.3828125 5.85312500000001  28.7328125 5.84218750000002  29.09375 5.82031250000001  C 29.246875 5.87500000000001  29.4328125 5.87500000000001  29.5421875 6.01718750000001  Z M 16.7453125 6.3234375  C 16.8328125 6.3125  16.9203125 6.3125  17.01875 6.3125  C 17.0078125 6.35625  17.0078125 6.38906250000001  17.01875 6.4328125  C 16.93125 6.378125  16.8328125 6.34531250000001  16.7453125 6.3234375  Z M 9.87656250000001 5.36093749999999  C 9.8 5.41562499999999  9.76718750000001 5.51406249999999  9.7890625 5.66718749999999  C 9.66850328988524 5.54582267436584  9.51048307890295 5.46873964461838  9.340625 5.4484375  C 9.4171875 5.39375  9.49375000000001 5.328125  9.559375 5.2625  C 9.66875 5.3171875  9.778125 5.3390625  9.87656250000001 5.36093749999999  Z M 7.2734375 6.77187500000001  C 7.2625 6.72812500000001  7.2515625 6.6953125  7.21875 6.67343750000001  C 7.0984375 6.58593750000001  6.95625 6.53125000000001  6.803125 6.52031250000001  C 6.803125 6.50937500000001  6.7921875 6.50937500000001  6.7921875 6.49843750000001  L 6.7921875 6.34531250000001  C 6.86875 6.3234375  6.94531250000001 6.31250000000001  7.021875 6.29062500000001  L 7.415625 6.35625000000001  C 7.415625 6.40000000000001  7.415625 6.44375000000001  7.4265625 6.49843750000001  C 7.4921875 6.56406250000001  7.546875 6.61875000000001  7.6125 6.66250000000001  C 7.503125 6.68437500000001  7.3828125 6.71718750000001  7.2734375 6.77187500000001  Z M 33.95 3.72031250000001  C 33.95 3.73125000000001  33.9390625 3.74218750000001  33.928125 3.75312500000001  C 33.928125 3.74218750000001  33.928125 3.73125000000001  33.9171875 3.73125000000001  C 33.928125 3.73125000000001  33.9390625 3.73125000000001  33.95 3.72031250000001  Z M 21.2296875 5.2625  C 21.21875 5.2296875  21.196875 5.175  21.153125 5.109375  C 20.978125 5.0109375  20.803125 4.9671875  20.628125 4.9453125  C 20.9125 4.9125  21.196875 4.934375  21.48125 4.9453125  C 21.4265625 4.978125  21.4046875 5.04375  21.4265625 5.153125  C 21.35 5.153125  21.284375 5.175  21.240625 5.25156249999999  L 21.2296875 5.2625  Z M 17.3796875 3.1953125  C 17.3359375 3.2171875  17.2921875 3.2171875  17.2484375 3.228125  C 17.36875 3.20625  17.478125 3.1625  17.5765625 3.0859375  C 17.5875 3.0859375  17.5875 3.096875  17.5984375 3.096875  C 17.521875 3.1296875  17.45625 3.16250000000001  17.3796875 3.1953125  Z M 17.2921875 1.89375  C 17.171875 1.915625  17.084375 1.95937500000001  16.996875 2.046875  C 17.0515625 1.9703125  17.0953125 1.89375  17.128125 1.784375  C 17.128125 1.7734375  17.1171875 1.7625  17.1171875 1.7515625  C 17.171875 1.80625  17.2265625 1.85  17.2921875 1.89375  Z M 12.1953125 1.8390625  C 12.2171875 1.89375  12.25 1.9484375  12.271875 1.9921875  C 12.03125 1.915625  11.7796875 1.871875  11.528125 1.871875  C 11.746875 1.8828125  11.9765625 1.85  12.20625 1.7734375  C 12.20625 1.7953125  12.1953125 1.8171875  12.1953125 1.8390625  Z M 12.578125 5.36093749999999  C 12.5453125 5.33906249999999  12.5125 5.3171875  12.490625 5.284375  C 12.359375 5.2296875  12.228125 5.175  12.1078125 5.153125  C 12.2828125 5.14218749999999  12.46875 5.175  12.64375 5.29531249999999  L 12.578125 5.36093749999999  Z M 22.79375 3.075  C 23.1984375 3.22812499999999  23.078125 3.403125  22.946875 3.578125  C 22.9140625 3.403125  22.8921875 3.228125  22.79375 3.075  Z M 21.8640625 4.9890625  C 21.853125 4.97812499999999  21.853125 4.9671875  21.8421875 4.9671875  L 21.8640625 4.9890625  L 21.8859375 4.9890625  C 21.875 4.9890625  21.875 5  21.8640625 5  L 21.8640625 4.9890625  Z M 16.9421875 2.10156249999999  C 16.93125 2.12343749999999  16.9203125 2.14531249999999  16.8984375 2.1671875  L 16.8765625 2.1671875  L 16.9421875 2.10156249999999  Z M 10.4890625 5.27343750000001  C 10.5546875 5.24062500000002  10.6421875 5.20781250000001  10.71875 5.1640625  C 10.7296875 5.19687499999999  10.7515625 5.24062500000001  10.784375 5.29531250000001  C 11.0578125 5.40468750000001  11.33125 5.3390625  11.6046875 5.26250000000001  C 11.528125 5.33906250000001  11.4515625 5.44843750000001  11.4078125 5.60156250000001  C 11.375 5.55781250000001  11.3421875 5.52500000000001  11.2875 5.49218750000001  C 11.0359375 5.37187500000001  10.7625 5.29531250000002  10.4890625 5.27343750000001  Z M 12.90625 4.759375  C 12.9171875 4.759375  12.90625 4.759375  12.90625 4.759375  C 12.90625 4.759375  12.90625 4.7484375  12.9171875 4.7484375  L 12.90625 4.759375  Z M 19.709375 2.17812500000001  C 19.6875 2.18906250000001  19.665625 2.21093750000001  19.64375 2.221875  L 19.665625 2.2  C 19.6765625 2.1890625  19.6984375 2.1890625  19.709375 2.17812500000001  L 19.6765625 2.17812500000001  L 19.6984375 2.15625000000001  L 19.709375 2.17812500000001  Z M 14.284375 1.2921875  C 14.2734375 1.2921875  14.2734375 1.2921875  14.284375 1.2921875  C 14.2734375 1.2921875  14.2734375 1.2921875  14.284375 1.2921875  C 14.2734375 1.2921875  14.2734375 1.2921875  14.284375 1.2921875  Z M 12.3265625 6.575  C 12.315625 6.5859375  12.3046875 6.5859375  12.29375 6.5859375  C 12.29375 6.575  12.2828125 6.575  12.2828125 6.56406249999999  C 12.29375 6.56406249999999  12.3046875 6.575  12.3265625 6.575  Z M 14.4046875 6.26875  C 14.503125 6.3125  14.5578125 6.06093750000001  14.4265625 6.1484375  C 14.2296875 6.06093750000001  14.0109375 6.09375  13.7921875 6.11562500000001  C 13.584375 6.07187500000001  13.3875 6.05  13.1796875 6.07187500000001  C 13.0921875 6.03906250000001  13.0046875 5.97343750000001  12.928125 5.8859375  C 13.2890625 5.7765625  13.7265625 6.028125  14.021875 5.6453125  L 13.978125 5.6671875  C 13.7375 5.19687500000001  13.278125 5.503125  12.9390625 5.371875  L 12.9390625 5.34999999999999  L 13.015625 5.34999999999999  C 13.671875 5.2078125  14.371875 5.36093749999999  15.0171875 5.12031249999999  C 15.115625 5.05468749999999  15.1703125 4.95624999999999  15.159375 4.83593749999999  C 15.1484375 4.82499999999999  15.1484375 4.81406249999999  15.1375 4.80312499999999  C 15.2578125 4.87968749999999  15.378125 4.90156249999998  15.4765625 4.80312499999999  C 15.53125 4.83593749999999  15.5859375 4.85781249999999  15.6515625 4.86874999999999  C 15.88125 4.82499999999999  16.1546875 4.96718749999999  16.3625 4.78124999999999  C 16.3734375 4.79218749999999  16.3734375 4.81406249999999  16.384375 4.82499999999999  C 16.6140625 4.99999999999999  16.8765625 5.03281249999998  17.1390625 5.05468749999999  C 17.171875 5.05468749999999  17.19375 5.05468749999999  17.2265625 5.06562499999999  C 17.19375 5.13124999999999  17.128125 5.19687499999999  17.0515625 5.24062499999999  C 16.8328125 5.21874999999999  16.6140625 5.2078125  16.40625 5.18593749999999  C 16.121875 5.2625  15.8265625 5.34999999999999  15.5421875 5.4265625  C 15.1921875 5.04375  15.0390625 5.4375  14.8203125 5.6125  C 15.0390625 5.940625  15.4765625 5.8640625  15.7609375 6.09375  L 15.7609375 6.1484375  L 15.75 6.1484375  C 15.4 6.09375  15.0828125 6.12656249999999  14.8640625 6.44375000000001  C 14.853125 6.46562500000001  14.853125 6.4765625  14.8421875 6.49843750000001  C 14.6453125 6.34531250000001  14.4484375 6.35625000000001  14.2515625 6.52031250000001  C 14.2515625 6.47656250000001  14.240625 6.43281250000001  14.21875 6.38906250000001  C 14.196875 6.35625000000001  14.175 6.33437500000001  14.153125 6.3125  C 14.2515625 6.26875  14.35 6.23593749999999  14.4046875 6.26875  Z M 18.76875 6.25781249999999  C 18.571875 6.24687499999999  18.3640625 6.23593749999998  18.1671875 6.159375  C 18.0359375 6.09375  17.9046875 6.0390625  17.7625 5.984375  C 17.7625 5.89687500000001  17.7078125 5.8203125  17.63125 5.7546875  L 17.565625 5.721875  C 17.696875 5.503125  17.9046875 5.503125  18.15625 5.65625  L 18.15625 5.63437499999999  L 18.1671875 5.63437499999999  C 18.1671875 5.6453125  18.15625 5.65625  18.15625 5.66718749999999  C 18.3640625 5.86406249999999  18.5609375 6.06093749999999  18.76875 6.25781249999999  Z M 25.571875 6.10468749999999  C 25.571875 6.10468749999999  25.5609375 6.09374999999999  25.5609375 6.0828125  C 25.571875 6.0828125  25.571875 6.07187499999999  25.5828125 6.07187499999999  C 25.5828125 6.0828125  25.571875 6.09375  25.571875 6.10468749999999  Z M 30.821875 5.4375  C 30.7015625 5.7546875  30.975 5.875  31.2375 6.00624999999999  C 31.2921875 6.01718749999999  31.325 6.028125  31.3578125 6.04999999999999  C 31.346875 6.06093749999999  31.3359375 6.07187499999999  31.325 6.09374999999999  C 31.3140625 6.07187499999998  31.303125 6.06093749999999  31.2921875 6.03906249999999  C 30.9640625 5.89687499999999  30.625 5.77656249999999  30.253125 5.80937499999999  L 30.209375 5.80937499999999  L 30.209375 5.68906249999998  C 30.2859375 5.60156249999999  30.3734375 5.51406249999998  30.45 5.42656249999999  C 30.4171875 5.36093749999998  30.3953125 5.29531249999998  30.384375 5.22968749999999  C 30.340625 5.18593749999999  30.3078125 5.14218749999999  30.2640625 5.09843749999999  C 29.8703125 4.94531249999999  29.4984375 4.86874999999998  29.246875 5.33906249999999  C 29.2578125 5.37187499999999  29.26875 5.39374999999999  29.2796875 5.41562499999999  L 29.26875 5.41562499999999  C 29.0390625 5.04375  28.678125 4.99999999999999  28.284375 4.99999999999999  L 28.240625 4.99999999999999  L 28.240625 4.95625  C 28.2515625 4.95625  28.2625 4.9671875  28.2734375 4.9671875  C 28.48125 5.0109375  28.7 5  28.9078125 4.9453125  C 29.071875 4.9234375  29.2359375 4.890625  29.3890625 4.846875  C 29.640625 4.846875  29.8921875 4.7921875  30.1328125 4.759375  C 30.1546875 4.7921875  30.1765625 4.825  30.1984375 4.86875  C 30.3734375 4.9890625  30.58125 4.9890625  30.778125 5  L 30.8328125 5  C 30.734375 5.03281249999999  30.6359375 5.065625  30.5265625 5.109375  C 30.40625 5.19687499999999  30.3734375 5.30624999999999  30.4390625 5.4375  L 30.821875 5.4375  Z M 19.73125 2.15625  L 19.6984375 2.15625  C 19.709375 2.1453125  19.709375 2.134375  19.7203125 2.134375  C 19.7203125 2.1453125  19.73125 2.15625  19.73125 2.15625  Z M 15.684375 0.953125  C 15.70625 0.975000000000001  15.7171875 0.985937499999999  15.728125 1.0078125  C 15.728125 1.01875  15.7171875 1.01875  15.7171875 1.0296875  C 15.6515625 0.996874999999996  15.596875 0.964062499999997  15.53125 0.942187499999996  C 15.5859375 0.931249999999991  15.6515625 0.920312500000001  15.70625 0.920312500000001  C 15.6953125 0.931249999999999  15.6953125 0.942187499999996  15.684375 0.953125  Z M 14.984375 0.996874999999996  C 14.91875 1.0515625  14.8640625 1.1171875  14.7984375 1.215625  C 14.7984375 1.2375  14.809375 1.25937499999999  14.8203125 1.28125  C 14.7875 1.28125  14.7546875 1.28125  14.721875 1.2703125  C 14.7546875 1.1828125  14.7765625 1.09531249999999  14.7546875 1.0078125  C 14.83125 1.0078125  14.9078125 0.996874999999996  14.984375 0.996874999999996  Z M 8.75 1.5546875  C 8.7390625 1.5546875  8.7390625 1.5546875  8.75 1.5546875  C 8.7390625 1.5546875  8.7390625 1.5546875  8.75 1.5546875  Z M 5.3265625 8.99218749999999  C 5.315625 9.00312499999999  5.3046875 9.01406249999999  5.3046875 9.02499999999999  L 5.3046875 9.00312499999999  C 5.315625 9.00312499999999  5.315625 9.00312499999999  5.3265625 8.99218749999999  Z M 19.796875 6.39999999999999  C 19.753125 6.38906249999999  19.73125 6.3671875  19.6984375 6.34531249999999  L 19.6765625 6.34531249999999  L 19.6984375 6.34531249999999  C 19.971875 6.26874999999999  20.25625 6.203125  20.5515625 6.12656249999999  C 20.5515625 6.15937499999999  20.5625 6.203125  20.5734375 6.23593749999999  C 20.34375 6.246875  20.1140625 6.27968749999999  19.8953125 6.35625  C 19.8625 6.3671875  19.8296875 6.378125  19.796875 6.39999999999999  Z M 49.7546875 2.30937499999999  C 49.7328125 2.32031249999999  49.7109375 2.33124999999999  49.7 2.34218749999999  C 49.7109375 2.33124999999999  49.7328125 2.32031249999999  49.7546875 2.30937499999999  Z M 49.83125 2.27656249999999  C 49.8640625 2.23281249999999  49.8859375 2.19999999999999  49.91875 2.17812499999999  C 49.9515625 2.19999999999999  49.9953125 2.21093749999999  50.028125 2.19999999999999  C 50.0171875 2.23281249999999  50.00625 2.27656249999999  50.00625 2.30937499999999  C 49.940625 2.27656249999999  49.875 2.26562499999999  49.809375 2.28749999999999  C 49.8203125 2.28749999999999  49.8203125 2.27656249999999  49.83125 2.27656249999999  Z M 34.34375 2.82343749999999  C 34.3328125 2.84531249999999  34.321875 2.85624999999999  34.3109375 2.85624999999999  L 34.34375 2.82343749999999  Z M 3.7625 4.1359375  C 3.7515625 4.1359375  3.7625 4.1359375  3.7625 4.1359375  C 3.7515625 4.1359375  3.7515625 4.1359375  3.7625 4.1359375  Z M 9.8984375 6.64062500000001  C 9.865625 6.66250000000002  9.8328125 6.69531250000001  9.8109375 6.72812500000001  C 9.75625 6.68437500000001  9.7015625 6.69531250000001  9.6578125 6.75000000000001  C 9.646875 6.72812500000001  9.646875 6.71718750000002  9.6359375 6.69531250000001  C 9.5921875 6.66250000000002  9.5484375 6.65156250000001  9.5046875 6.64062500000001  C 9.6359375 6.62968750000001  9.7671875 6.62968750000001  9.8984375 6.64062500000001  Z M 76.0703125 7.02343750000001  C 76.1140625 6.96875000000001  76.146875 6.89218750000001  76.16875 6.78281250000001  C 76.25625 6.84843750000001  76.34375 6.89218750000001  76.4421875 6.89218750000001  C 76.321875 6.95781250000001  76.2015625 7.00156250000001  76.0703125 7.02343750000001  Z M 87.9484375 2.81250000000001  L 87.9484375 2.84531250000001  C 87.9484375 2.83437500000001  87.9375 2.82343750000001  87.9375 2.82343750000001  C 87.9375 2.82343750000001  87.9484375 2.82343750000001  87.9484375 2.81250000000001  Z " fill-rule="nonzero" fill="#ff5d17" stroke="none" transform="matrix(1 0 0 1 234 110 )" />
  </g>
</svg>