<?xml version="1.0" encoding="utf-8"?>
<svg version="1.1" xmlns:xlink="http://www.w3.org/1999/xlink" width="50px" height="50px" xmlns="http://www.w3.org/2000/svg">
  <g transform="matrix(1 0 0 1 -163 -409 )">
    <path d="M 50 25  C 50 11.2  38.8 0  25 0  C 11.2 0  0 11.2  0 25  C 0 38.8  11.2 50  25 50  C 38.8 50  50 38.8  50 25  Z M 32.9 22.9  C 33.725 23.725  33.725 25.025  32.9 25.85  L 21.875 36.875  C 21.075 37.675  19.75 37.675  18.95 36.875  C 18.15 36.075  18.15 34.775  18.925 33.95  L 26.9 25.825  C 27.7 25.025  27.7 23.725  26.9 22.925  L 18.925 14.8  C 18.125 14  18.125 12.675  18.95 11.875  C 19.75 11.075  21.075 11.075  21.875 11.875  L 32.9 22.9  Z " fill-rule="nonzero" fill="#1890ff" stroke="none" transform="matrix(1 0 0 1 163 409 )" />
  </g>
</svg>