<?xml version="1.0" encoding="utf-8"?>
<svg version="1.1" xmlns:xlink="http://www.w3.org/1999/xlink" width="14px" height="18px" xmlns="http://www.w3.org/2000/svg">
  <g transform="matrix(1 0 0 1 -95 -272 )">
    <path d="M 2.78000001252232 0  L 11.2199999874777 0  C 12.7550000013895 0  14 1.2049999921875  14 2.6925  L 14 15.3075  C 14 16.7950000078125  12.7550000013895 18  11.2199999874777 18  L 2.78000001252232 18  C 1.24499999861049 18  0 16.7950000078125  0 15.3075  L 0 2.6925  C 0 1.2049999921875  1.24499999861049 0  2.78000001252232 0  Z M 12.4835000016925 15.3075  L 12.4835000016925 13.4305000078125  L 1.51600000612054 13.4775  L 1.51600000612054 15.3075  C 1.51600000612054 15.9835000078125  2.08199999767634 16.5315  2.78000001252232 16.5315  L 11.2199999874777 16.5315  C 11.9179999788862 16.5315  12.483499978255 15.9835000078125  12.4835000016925 15.3075  Z M 5.28200000972991 14.367  L 8.70249999809989 14.3425000078125  C 9.12099999763281 14.3380000078125  9.4640000050625 14.6635000078125  9.46850000505748 15.069  C 9.47300000505246 15.474  9.13700000542746 15.8065000078125  8.71850000589453 15.8110000078125  L 5.2985000097115 15.8355  C 4.87950001799163 15.8395000078125  4.53650001056194 15.5145  4.53200001056697 15.1090000078125  C 4.52800000275893 14.703500015625  4.86350001019699 14.3710000078125  5.28200000972991 14.367  Z M 12.4835000016925 2.6925  C 12.4835000016925 2.0164999921875  11.9180000023237 1.4685  11.2199999874777 1.4685  L 2.78000001252232 1.4685  C 2.08200002111384 1.4685  1.51650002174498 2.0164999921875  1.51649999830748 2.6925  L 1.51600000612053 12  L 12.4835000016925 12  L 12.4835000016925 2.6925  Z " fill-rule="nonzero" fill="#4d4d4d" stroke="none" transform="matrix(1 0 0 1 95 272 )" />
  </g>
</svg>