<?xml version="1.0" encoding="utf-8"?>
<svg version="1.1" xmlns:xlink="http://www.w3.org/1999/xlink" width="15px" height="17px" xmlns="http://www.w3.org/2000/svg">
  <g transform="matrix(1 0 0 1 -95 -317 )">
    <path d="M 0.416666661132812 3.75416666113281  L 1.47916666113281 3.75416666113281  L 1.47916666113281 1.62916666113281  C 1.47916666113281 1.34583332226562  1.7625 1.0625  2.04583333886719 1  L 12.8125 1  C 13.0958333388672 1.0625  13.3791666611328 1.34583333886719  13.3791666611328 1.62916666113281  L 13.3791666611328 3.75416666113281  L 14.4416666611328 3.75416666113281  L 14.4416666611328 1.13333333886719  C 14.4416666611328 0.495833338867188  13.9458333222656 0  13.3083333388672 0  L 1.55 0  C 0.9125 0  0.416666661132812 0.495833338867188  0.416666661132812 1.13333333886719  L 0.416666661132812 3.75416666113281  Z M 14.4416666611328 13.0333333388672  L 13.3791666611328 13.0333333388672  L 13.3791666611328 15.3  C 13.3791666611328 15.5833333388672  13.0958333222656 15.8666666611328  12.8125 15.8666666611328  L 2.04583333886719 15.8666666611328  C 1.7625 15.8666666611328  1.47916667773438 15.5833333222656  1.47916666113281 15.3  L 1.47916666113281 13.0333333388672  L 0.416666661132812 13.0333333388672  L 0.416666661132812 15.8666666611328  C 0.416666661132812 16.5041666611328  0.9125 17  1.55 17  L 13.3083333388672 17  C 13.9458333388672 17  14.4416666777344 16.5041666611328  14.4416666611328 15.8666666611328  L 14.4416666611328 13.0333333388672  Z M 2.96666666113281 5.59583333886719  L 2.89583333886719 11.3333333388672  L 1.83333333886719 11.3333333388672  L 1.83333333886719 7.225  C 1.40833333886719 7.57916666113281  0.983333338867187 7.8625  0.416666661132812 8.075  L 0.416666661132812 7.08333333886719  C 0.7 7.0125  0.983333322265625 6.8  1.3375 6.51666666113281  C 1.69166667773438 6.23333332226563  1.90416666113281 5.95  2.04583333886719 5.59583333886719  L 2.96666666113281 5.59583333886719  Z M 6.93333333886719 10.2708333388672  L 9.05833333886719 10.2708333388672  L 9.05833333886719 11.3333333388672  L 5.23333333886719 11.3333333388672  C 5.30416667773437 10.9791666777344  5.375 10.5541666777344  5.5875 10.2708333388672  C 5.8 9.91666667773437  6.225 9.49166667773438  6.79166666113281 8.925  C 7.2875 8.5  7.57083332226562 8.14583333886719  7.7125 8.00416666113281  C 7.85416666113281 7.79166666113281  7.925 7.57916666113281  7.925 7.36666666113281  C 7.925 7.15416666113281  7.85416666113281 6.94166666113281  7.7125 6.8  C 7.57083333886719 6.65833333886719  7.42916666113281 6.5875  7.14583333886719 6.5875  C 6.93333333886719 6.5875  6.72083333886719 6.65833333886719  6.57916666113281 6.8  C 6.4375 6.94166666113281  6.36666666113281 7.15416666113281  6.36666666113281 7.50833333886719  L 5.30416666113281 7.36666666113281  C 5.375 6.72916666113281  5.5875 6.30416666113281  5.94166666113281 6.09166666113281  C 6.29583332226562 5.80833332226562  6.72083332226562 5.66666666113281  7.21666666113281 5.66666666113281  C 7.78333332226562 5.66666666113281  8.20833332226562 5.80833332226562  8.5625 6.09166666113281  C 8.91666666113281 6.375  9.05833333886719 6.8  9.05833333886719 7.225  C 9.05833333886719 7.50833333886719  8.9875 7.72083333886719  8.91666666113281 7.93333333886719  C 8.84583332226563 8.14583333886719  8.70416666113281 8.42916667773437  8.49166666113281 8.64166666113281  C 8.35 8.78333332226562  8.1375 9.06666666113281  7.78333333886719 9.35  C 7.42916667773438 9.63333333886718  7.21666667773438 9.84583333886718  7.14583333886719 9.9875  C 7.075 10.0583333388672  7.00416667773437 10.2  6.93333333886719 10.2708333388672  Z M 11.1833333388672 10.8375  C 10.9 10.6958333388672  10.7583333388672 10.2708333388672  10.6875 9.775  L 11.75 9.63333333886719  C 11.75 9.91666667773438  11.8916666611328 10.1291666777344  12.0333333388672 10.2708333388672  C 12.175 10.4125  12.3875 10.4833333388672  12.6 10.4833333388672  C 12.8125 10.4833333388672  13.025 10.4125  13.1666666611328 10.2  C 13.3083333222656 10.0583333388672  13.3791666611328 9.775  13.3791666611328 9.49166666113281  C 13.3791666611328 9.20833332226562  13.3083333222656 8.99583332226562  13.1666666611328 8.85416666113281  C 13.025 8.7125  12.8125 8.64166666113281  12.6 8.64166666113281  C 12.4583333388672 8.64166666113281  12.3166666611328 8.64166666113281  12.1041666611328 8.7125  L 12.2458333388672 7.79166666113281  C 12.5291666777344 7.79166666113281  12.7416666777344 7.72083332226562  12.9541666611328 7.57916666113281  C 13.0958333222656 7.4375  13.1666666611328 7.29583332226562  13.1666666611328 7.0125  C 13.1666666611328 6.8  13.0958333222656 6.65833333886719  13.025 6.5875  C 12.8833333388672 6.44583333886719  12.7416666611328 6.44583333886719  12.6 6.44583333886719  C 12.3875 6.44583333886719  12.2458333388672 6.51666667773437  12.1041666611328 6.65833333886719  C 11.9625 6.8  11.8916666611328 7.0125  11.8916666611328 7.225  L 10.7583333388672 7.08333333886718  C 10.8291666777344 6.72916667773437  10.9 6.44583333886719  11.0416666611328 6.23333333886718  C 11.1833333222656 6.02083333886718  11.3958333222656 5.87916667773437  11.6083333388672 5.7375  C 11.8916666777344 5.59583333886718  12.175 5.525  12.4583333388672 5.525  C 13.025 5.525  13.45 5.66666666113281  13.7333333388672 6.02083333886718  C 14.0166666777344 6.30416667773437  14.1583333388672 6.5875  14.1583333388672 6.94166666113281  C 14.1583333388672 7.4375  13.875 7.8625  13.3083333388672 8.14583333886718  C 13.6625 8.21666667773437  13.875 8.35833333886718  14.0875 8.64166666113281  C 14.3 8.85416666113281  14.3708333388672 9.20833332226562  14.3708333388672 9.49166666113281  C 14.3708333388672 9.9875  14.1583333388672 10.4125  13.8041666611328 10.7666666611328  C 13.4499999833984 11.1208333222656  12.9541666611328 11.2625  12.4583333388672 11.2625  C 11.9625000166016 11.2625  11.5375 11.1208333388672  11.1833333388672 10.8375  Z " fill-rule="nonzero" fill="#000000" stroke="none" transform="matrix(1 0 0 1 95 317 )" />
  </g>
</svg>