<?xml version="1.0" encoding="utf-8"?>
<svg version="1.1" xmlns:xlink="http://www.w3.org/1999/xlink" width="28px" height="26px" xmlns="http://www.w3.org/2000/svg">
  <g transform="matrix(1 0 0 1 -176 -176 )">
    <path d="M 17.969306921875 14.0547194648437  C 17.969306921875 13.4627722753906  17.4576237480469 12.9811881074219  16.7390099042969 12.9811881074219  C 16.2611881074219 12.9811881074219  15.7821121992188 13.4627722753906  15.7821121992188 14.0547194648437  C 15.7821121992188 14.5363036328125  16.2611881074219 15.0166336523438  16.7390099042969 15.0166336523438  C 17.4563696367188 15.0166336523438  17.969306921875 14.535049484375  17.969306921875 14.0547194648437  Z M 12.1953135371094 6.68924091796875  C 12.1953135371094 7.46679866210937  12.8788118925781 7.98475246679687  13.596171625 7.98475246679687  C 14.3486468828125 7.98475246679687  14.8264686425781 7.46679866210937  14.8264686425781 6.68924091796875  C 14.8264686425781 5.87531353710937  14.3486468457031 5.39372936914063  13.596171625 5.39372936914063  C 12.8788118925781 5.39372936914063  12.1953135371094 5.87531353710937  12.1953135371094 6.68924091796875  Z M 10.0143894453125 18.756435640625  L 10.0093729257813 18.7551815292969  C 8.74521449414063 18.7551815292969  7.82343231445313 18.5332013378906  6.62323433984375 18.1632343398437  L 3.173135296875 20.0444224472656  L 4.16389437890625 16.8601980117187  C 1.74092409179687 15.0166336523438  0.304950478515625 12.6864686425781  0.304950478515625 9.83458745703125  C 0.304950478515625 4.80052806835937  4.67808577539063 0.951617169921876  10.0081188144531 0.951617169921876  C 14.7236303632812 0.951617169921876  18.924950515625 3.98660065039063  19.7451485273437 8.28072608007813  C 19.4442260648618 8.21234084714996  19.1369498722946 8.17577035745126  18.8283828300781 8.17161716992188  C 14.1818481835937 8.17161716992188  10.595049484375 11.9465346464844  10.5950495214844 16.4990099042969  C 10.5994031735146 17.247480981251  10.6911578435676 17.9928825249685  10.8684488339844 18.7200660039063  C 10.5848433724363 18.7505783979041  10.2995621712184 18.7627269367395  10.0143894453125 18.756435640625  Z M 24.2487128867187 22.3821121992187  L 24.2562376289062 22.3833663476562  L 24.939735984375 25.0483828300781  L 22.3399339960938 23.4568977050781  C 21.3491749140625 23.6788778964844  20.3922772460937 24.0112211464844  19.4015181640625 24.011221109375  C 14.8227062714844 24.011221109375  11.2020462324219 20.6062706308594  11.2020461953125 16.3861386230469  C 11.2020461582031 12.1660066152344  14.8239603828125 8.76105609960937  19.4015181640625 8.76105609960937  C 23.7407920839844 8.76105609960937  27.6348515097656 12.1672607265625  27.6348514726563 16.3861386230469  C 27.6348514726563 18.7551815292969  26.1650164824219 20.8646204589844  24.2487128867187 22.3821121992187  Z M 8.06171617578125 6.68924091796875  C 8.06171617578125 5.87531353710937  7.51491751367188 5.39372936914063  6.83141915820312 5.39372936914063  C 6.11405942578125 5.39372936914063  5.36283831640625 5.87531353710937  5.36283827929687 6.68924091796875  C 5.36283827929687 7.46679866210937  6.11531353710937 7.98475246679687  6.83141915820312 7.98475246679687  C 7.51491751367187 7.98475246679687  8.06171617578125 7.46679866210937  8.06171617578125 6.68924091796875  Z M 23.2980858125 14.0547194648437  C 23.2980858125 13.4627722753906  22.7851485273438 12.9811881074219  22.1029042832031 12.9811881074219  C 21.5899669980469 12.9811881074219  21.146006578125 13.4627722753906  21.1460066152344 14.0547194648437  C 21.1669526704109 14.5751234662222  21.5826169172272 14.9929668256881  22.1029042832031 15.0166336523438  C 22.7864026386719 15.0166336523438  23.2980858125 14.535049484375  23.2980858125 14.0547194648437  Z " fill-rule="nonzero" fill="#ffffff" stroke="none" transform="matrix(1 0 0 1 176 176 )" />
  </g>
</svg>