<?xml version="1.0" encoding="utf-8"?>
<svg version="1.1" xmlns:xlink="http://www.w3.org/1999/xlink" width="39px" height="49px" xmlns="http://www.w3.org/2000/svg">
  <defs>
    <linearGradient gradientUnits="userSpaceOnUse" x1="7.704" y1="0.799999999158275" x2="31.896" y2="48.0499999794888" id="LinearGradient4493">
      <stop id="Stop4494" stop-color="#ffeacc" offset="0" />
      <stop id="Stop4495" stop-color="#ffd599" offset="1" />
    </linearGradient>
  </defs>
  <g transform="matrix(1 0 0 1 -330 -596 )">
    <path d="M 0.899999999999999 22.4057893625  C 0.899999999999999 9.4065699125  9.361818225 -0.227348217174997  19.8 0.887831009000003  C 30.238181775 2.00301023675  38.7 13.444991135  38.7 26.4442106375  C 38.7 39.4434300875  30.238181775 49.0773481925  19.8 47.96216897  C 9.361818225 46.8469897475  0.899999999999999 35.405008865  0.899999999999999 22.4057893625  Z M 36.6 26.2198538825  C 36.6 14.66499212  29.0783838 4.49434243325  19.8 3.50307200975  C 10.5216162 2.51180158625  3 11.075284355  3 22.6301461175  C 3 34.18500788  10.5216162 44.3556575825  19.8 45.346927985  C 29.0783838 46.33819844  36.6 37.774715645  36.6 26.2198538825  Z " fill-rule="nonzero" fill="url(#LinearGradient4493)" stroke="none" transform="matrix(1 0 0 1 330 596 )" />
  </g>
</svg>