<?xml version="1.0" encoding="utf-8"?>
<svg version="1.1" xmlns:xlink="http://www.w3.org/1999/xlink" width="30px" height="30px" xmlns="http://www.w3.org/2000/svg">
  <g transform="matrix(1 0 0 1 -1014 -752 )">
    <path d="M 5.22321875 5.2231875  L 5.22321875 9.50890625  L 9.5089375 9.50890625  L 9.5089375 5.2231875  L 5.22321875 5.2231875  Z M 26.919625 18.080375  L 26.919625 15.9375  L 29.0625 15.9375  L 29.0625 22.6339375  L 26.919625 22.6339375  L 26.919625 20.4910625  L 24.77675 20.4910625  L 24.77675 18.080375  L 22.633875 18.080375  L 22.633875 15.9375  L 24.77675 15.9375  L 24.77675 18.080375  L 26.919625 18.080375  Z M 20.49109375 20.49109375  L 24.7768125 20.49109375  L 24.7768125 24.7768125  L 26.9196875 24.7768125  L 26.9196875 26.9196875  L 29.0625625 26.9196875  L 29.0625625 29.0625625  L 24.77684375 29.0625625  L 24.77684375 26.9196875  L 22.63396875 26.9196875  L 22.63396875 22.63396875  L 20.49109375 22.63396875  L 20.49109375 24.77684375  L 18.08040625 24.77684375  L 18.08040625 26.91971875  L 20.49109375 26.91971875  L 20.49109375 29.06259375  L 16 29.06259375  L 16 15.93759375  L 20.49109375 15.93759375  L 20.49109375 18.08046875  L 18.08040625 18.08046875  L 18.08040625 22.63403125  L 20.49109375 22.63403125  L 20.49109375 20.49115625  Z M 1 16  L 1 29  L 14 29  L 14 16  L 1 16  Z M 3.080375 26.91965625  L 3.080375 18.08034375  L 11.65178125 18.08034375  L 11.65178125 26.91965625  L 3.080375 26.91965625  Z M 5.22321875 20.4910625  L 5.22321875 24.77678125  L 9.5089375 24.77678125  L 9.5089375 20.4910625  L 5.22321875 20.4910625  Z M 29 1  L 16 1  L 16 14  L 29 14  L 29 1  Z M 26.919625 3.080375  L 26.919625 11.65178125  L 18.0803125 11.65178125  L 18.0803125 3.080375  L 26.919625 3.080375  Z M 1 1  L 1 14  L 14 14  L 14 1  L 1 1  Z M 3.080375 11.65178125  L 3.080375 3.080375  L 11.65178125 3.080375  L 11.65178125 11.65178125  L 3.080375 11.65178125  Z M 24.77678125 9.5089375  L 24.77678125 5.22321875  L 20.4910625 5.22321875  L 20.4910625 9.5089375  L 24.77678125 9.5089375  Z " fill-rule="nonzero" fill="#a4a4a4" stroke="none" transform="matrix(1 0 0 1 1014 752 )" />
  </g>
</svg>