<?xml version="1.0" encoding="utf-8"?>
<svg version="1.1" xmlns:xlink="http://www.w3.org/1999/xlink" width="75px" height="18px" xmlns="http://www.w3.org/2000/svg">
  <g transform="matrix(1 0 0 1 -325 -504 )">
    <path d="M 2 17  L 13.2465116337209 17  C 15.1319814069767 17.400460508093  16.0494139534884 16.5145814383256  15.999999994186 14.6938046511628  L 15.999999994186 5.46589768018605  L 9.97209301744186 5.46589768018605  C 10.0215069767442 5.17060465116279  10.0959255697674 4.75246973023256  10.1953488313953 4.21090231981395  C 10.2447627906977 3.9646279384186  10.2947720930233 3.79276739888372  10.3441860523256 3.69413954065116  L 17.4139534883721 3.69413954065116  L 17.4139534883721 2  L 0.520930238372093 2  L 0.520930238372093 3.69413954065116  L 7.21860465697674 3.69413954065116  C 7.16919069767442 3.89080469413953  7.11918139534884 4.16188368948837  7.06976743604651 4.50619534883721  C 6.98800929266224 4.82437218782681  6.9135713627855 5.1443560376466  6.84651162209302 5.46589768018605  L 2 5.46589768018605  L 2 17  Z M 13.3953488372093 7.311479064  L 13.3953488372093 10.412055808186  L 4.53953488953488 10.412055808186  L 4.53953488953488 7.311479064  L 13.3953488372093 7.311479064  Z M 12.5023255813953 15.5796837209302  L 12.5916279069767 15.5838178174884  L 12.5023255813953 15.5796837209302  L 4.53953488953488 15.5796837209302  L 4.53953488953488 12.3314604708837  L 13.3953488372093 12.3314604708837  L 13.3953488372093 14.5461581453023  C 13.4447627965116 15.2843907092093  13.147088372093 15.6287023685581  12.5023255813953 15.5796837209302  Z M 22 17.9420279012093  L 24 17.9420279012093  L 24 5.09678138958139  C 24.4093023139535 4.25992096744186  24.9302325523256 2.88208371516279  25.3767441802326 0.962679069767439  L 22.4744185988372 0.962679069767439  C 21.9784930116279 3.81698143255814  20.9116279011628 5.71217206158139  19.2744186104651 6.64706976167442  L 19.2744186104651 8.19735813376744  C 19.9101813280889 8.05263493215243  20.5325339116005 7.85507532873704  22 7.60677209302326  L 22 17.9420279012093  Z M 26.49302325 17.4252651220465  L 34.0837209244186 17.4252651220465  C 35.7209302325581 17.4252651220465  36.539534877907 16.638013927814  36.539534877907 15.0629209244651  L 36.539534877907 13.5126325523721  L 34.2325581453488 13.5126325523721  L 34.2325581453488 14.6199813895814  C 34.2325581453488 15.3091953058605  33.9098790697674 15.6535069652093  33.2651162790698 15.6535069825116  L 29.0232558139535 15.6535069825116  C 28.4279069825581 15.6535069825116  28.2540651104651 15.3830185674419  28.5023255755814 14.8414511570232  L 35.4232558081395 3.91560930809302  L 35.4232558081395 2.14385116855814  L 25.8232558081395 2.14385116855814  L 25.8232558081395 3.98943255237209  L 31.8511627848837 3.98943255237209  L 25.3023255872093 14.6938046511628  C 24.4587162906977 16.2688976372093  24.8558139593023 17.1789907406512  26.49302325 17.4252651220465  Z M 48 17.9420279012093  L 51 17.9420279012093  L 51 0.888855808186044  L 48 0.888855808186044  L 48 17.9420279012093  Z M 41.600000005814 3.76796278493023  L 44.1302325523256 3.76796278493023  C 43.8819720872093 2.73443720930232  43.5348837209302 1.79953949190697  43.0883720930233 0.962679069767439  L 40.70697675 0.962679069767439  C 41.153488377907 1.94718601506977  41.4511628023256 2.88208371516279  41.600000005814 3.76796278493023  Z M 41.0790697674419 17.9420279012093  L 43.6837209244186 17.9420279012093  L 43.6837209244186 12.4791069767442  C 44.6261581395349 12.7253813581395  45.4447627848837 12.9958697732093  46.139534877907 13.2911627849302  C 46.2883720813954 13.3401814325581  46.4122046511628 13.3897906604651  46.5116279127907 13.438809308093  L 46.5116279127907 11.4455814011163  C 45.6680186162791 11.1012697417674  44.7255814011628 10.9040139906977  43.6837209244186 10.8549953430698  L 43.6837209244186 10.6335255756279  C 44.6208555945638 10.5853454544948  45.5470990486799 10.4115120926506  46.4372093023256 10.1167627964651  L 46.4372093023256 7.97588836632558  C 46.1889488372093 8.07451624186046  46.1145302267442 8.09873025823256  46.2139534883721 8.04971162790698  C 45.2715162732558 8.44363251516279  44.5767441802326 8.68931631627907  44.1302325523256 8.78794419181395  C 44.5767441802326 8.00069299758139  44.9982511569767 7.09000931386046  45.3953488430232 6.05648372093023  L 45.3953488430232 4.28472558139535  L 38.9209302383721 4.28472558139535  L 38.9209302383721 6.05648372093023  L 42.5674418546512 6.05648372093023  C 41.9226790639535 8.17255351981395  40.5581395290698 10.0429395348837  38.4744186104651 11.6670511685581  L 38.4744186104651 13.438809308093  C 38.573841872093 13.3897906604651  38.7470883837209 13.2911628022326  38.9953488313953 13.1435162790698  C 39.9877953488372 12.6515580965581  40.6819720813953 12.2576372093023  41.0790697674419 11.9623441802791  L 41.0790697674419 17.9420279012093  Z M 51.7209302267442 8.4926511627907  C 53.2093023139535 9.32951158493023  54.499423255814 10.3630371778605  55.5906976744186 11.5932279069767  L 55.5906976744186 8.34500465693023  C 54.6482604593023 7.36049771162791  53.3581395348837 6.59805113134884  51.7209302267442 6.05648372093023  L 51.7209302267442 8.4926511627907  Z M 66.1581395406977 17.4252651220465  L 71.7395348895349 17.4252651220465  C 73.4761674418605 17.4742837696744  74.3191813953488 16.6132093138605  74.2697674360465 14.8414511570232  L 74.2697674360465 8.78794419181395  L 71.2186046511628 8.78794419181395  L 71.2186046511628 5.6873674476279  L 74.7906976744186 5.6873674476279  L 74.7906976744186 3.91560930809302  L 71.2186046511628 3.91560930809302  L 71.2186046511628 0.888855808186044  L 68.5395348837209 0.888855808186044  L 68.5395348837209 8.78794419181395  L 66.1581395406977 8.78794419181395  L 66.1581395406977 17.4252651220465  Z M 58 12.8482232500465  L 59.9813953430232 12.8482232500465  L 59.9813953430232 3.3988465116279  L 63.5534883662791 3.3988465116279  L 63.5534883662791 12.8482232500465  L 65 12.8482232500465  L 65 1.62708837209302  L 58 1.62708837209302  L 58 12.8482232500465  Z M 57.5255813895349 16.2440930232558  L 57.5255813895349 17.9420279012093  C 59.4604651046512 17.2528139849302  60.8744185988372 16.1702697616744  61.7674418546511 14.6938046511628  C 62.4622139476744 15.8749767499535  63.7273302209302 16.8594836779535  65.5627906918605 17.6467348894884  L 65.5627906918605 16.0964465173953  C 63.5284837151163 14.8166465603721  62.5860465 12.7744000057674  62.7348837209302 9.96911627330233  L 62.7348837209302 4.35854884297674  L 60.8000000058139 4.35854884297674  L 60.8000000058139 9.96911627330233  C 60.9488372093023 12.7743999884651  59.8575627906977 14.8662557709767  57.5255813895349 16.2440930232558  Z M 71.7395348895349 14.6938046511628  C 71.7889488488372 15.4320372150698  71.4418604651163 15.8011534883721  70.6976744127907 15.8011534883721  L 68.7627906976744 15.8011534883721  L 68.7627906976744 10.5597023313488  L 71.7395348895349 10.5597023313488  L 71.7395348895349 14.6938046511628  Z " fill-rule="nonzero" fill="#ffa100" stroke="none" transform="matrix(1 0 0 1 325 504 )" />
  </g>
</svg>