<?xml version="1.0" encoding="utf-8"?>
<svg version="1.1" xmlns:xlink="http://www.w3.org/1999/xlink" width="385px" height="243px" xmlns="http://www.w3.org/2000/svg">
  <g transform="matrix(1 0 0 1 61 -32 )">
    <path d="M 210.295555555555 238.368705882353  C 203.451111111111 238.597411764706  197.062962962963 238.14  190.674814814815 238.14  C 184.971111111111 238.14  179.267407407407 238.368705882353  173.791851851852 238.14  C 166.719259259259 237.682588235294  159.874814814815 236.996470588235  152.802222222222 236.081647058824  C 146.87037037037 235.166823529412  140.938518518519 234.023294117647  135.006666666667 232.879764705882  C 130.443703703704 231.964941176471  125.880740740741 231.278823529412  121.317777777778 230.135294117647  C 111.963703703704 227.390823529412  102.60962962963 224.188941176471  93.2555555555556 220.987058823529  C 88.2362962962963 219.157411764706  83.2170370370371 217.099058823529  78.1977777777778 214.812  C 74.7755555555556 213.211058823529  71.5814814814815 211.610117647059  68.6155555555556 209.780470588235  C 63.14 206.578588235294  57.6644444444445 203.605411764706  52.6451851851852 199.946117647059  C 46.4851851851852 195.372  40.5533333333334 190.569176470588  34.8496296296297 185.537647058824  C 29.8303703703704 180.734823529412  25.2674074074074 175.474588235294  21.1607407407408 169.985647058824  C 17.7385185185186 165.411529411765  15.0007407407408 160.151294117647  12.262962962963 155.119764705882  C 8.84074074074078 149.173411764706  7.24370370370374 142.312235294118  5.87481481481485 135.679764705882  C 4.73407407407411 130.190823529412  4.50592592592596 124.701882352941  4.73407407407411 119.212941176471  C 4.96222222222226 110.750823529412  7.01555555555559 102.746117647059  9.75333333333337 94.9701176470589  C 11.3503703703704 90.624705882353  13.86 86.2792941176471  15.9133333333334 82.1625882352942  C 19.3355555555556 75.5301176470589  23.8985185185185 69.8124705882353  29.145925925926 64.5522352941177  C 33.2525925925926 60.2068235294118  37.5874074074074 56.0901176470589  42.1503703703704 52.2021176470589  C 46.4851851851852 48.5428235294118  51.0481481481482 45.1122352941177  55.8392592592593 41.9103529411765  C 58.3488888888889 40.080705882353  61.0866666666667 38.7084705882353  63.5962962962963 37.1075294117648  C 73.862962962963 30.9324705882353  85.0422222222223 25.9009411764706  96.2214814814815 21.7842352941177  C 104.434814814815 18.8110588235295  112.648148148148 16.2952941176471  121.08962962963 14.2369411764706  C 128.39037037037 12.1785882352942  135.919259259259 10.5776470588236  143.448148148148 9.20541176470593  C 149.836296296296 8.06188235294123  156.452592592593 7.60447058823535  162.840740740741 6.68964705882358  C 175.160740740741 5.31741176470593  187.708888888889 4.63129411764711  200.257037037037 5.31741176470593  C 211.208148148148 5.77482352941181  222.159259259259 6.68964705882358  233.11037037037 7.83317647058829  C 239.954814814815 8.51929411764711  246.799259259259 9.66282352941182  253.415555555556 11.2637647058824  C 262.541481481481 13.3221176470589  271.439259259259 16.0665882352942  280.565185185185 18.5823529411765  C 291.744444444444 22.0129411764707  302.695555555556 26.5870588235295  313.19037037037 32.0760000000001  C 319.578518518519 35.5065882352942  325.966666666667 39.1658823529412  332.126666666667 43.2825882352942  C 337.602222222222 47.1705882352942  342.84962962963 51.5160000000001  347.868888888889 55.861411764706  C 351.975555555556 59.2920000000001  355.625925925926 63.408705882353  359.276296296296 67.296705882353  C 363.611111111111 72.0995294117648  367.261481481481 77.3597647058824  370.455555555556 83.0774117647059  C 373.193333333333 88.1089411764707  375.702962962963 93.3691764705883  377.528148148148 98.8581176470589  C 378.668888888889 102.517411764706  379.581481481481 106.176705882353  380.037777777778 109.836  C 380.722222222222 115.324941176471  380.95037037037 121.042588235294  380.95037037037 126.531529411765  C 380.95037037037 133.621411764706  379.125185185185 140.482588235294  376.843703703704 147.115058823529  C 372.052592592593 160.38  364.295555555555 171.815294117647  354.485185185185 181.649647058824  C 347.184444444444 189.196941176471  339.199259259259 195.600705882353  330.301481481481 201.318352941177  C 323.913333333333 205.43505882353  317.753333333333 209.323058823529  310.908888888889 212.524941176471  C 304.748888888889 215.269411764706  298.817037037037 218.013882352941  292.428888888889 220.529647058824  C 285.584444444444 223.274117647059  278.511851851852 225.561176470588  271.667407407407 227.848235294118  C 267.332592592593 229.220470588235  262.997777777778 230.135294117647  258.434814814815 231.050117647059  C 254.1 231.964941176471  249.993333333333 233.108470588235  245.658518518518 234.023294117647  C 242.692592592592 234.709411764706  239.954814814815 234.938117647059  236.988888888889 235.395529411765  C 228.091111111111 236.310352941177  219.193333333333 237.682588235294  210.295555555555 238.368705882353  Z M 367.261481481481 100  C 369.086666666667 99.7729411764706  371.368148148148 99.5442352941177  373.877777777778 99.3155294117647  C 373.877777777778 99.0868235294118  374.105925925926 98.8581176470588  374.105925925926 98.4007058823529  C 372.737037037037 97.7145882352941  371.368148148148 97.0284705882353  369.771111111111 96.5710588235294  C 363.154814814815 94.5127058823529  356.31037037037 92.6830588235294  349.694074074074 90.6247058823529  C 346.5 89.7098823529412  343.305925925926 88.7950588235294  340.34 87.6515294117647  C 337.374074074074 86.508  334.636296296296 84.9070588235294  332.582962962963 82.391294117647  C 328.704444444444 77.5884705882353  324.825925925926 72.7856470588235  320.491111111111 68.2115294117647  C 315.7 63.18  310.224444444444 59.063294117647  304.748888888889 55.175294117647  C 295.394814814815 48.7715294117647  285.584444444444 43.511294117647  275.317777777778 39.3945882352941  C 266.191851851852 35.735294117647  256.837777777778 32.7621176470588  247.255555555556 30.4750588235294  C 241.551851851852 29.1028235294117  236.076296296296 28.1879999999999  230.372592592593 27.2731764705882  C 223.071851851852 26.1296470588235  215.999259259259 24.9861176470588  208.698518518519 24.7574117647058  C 195.694074074074 24.071294117647  182.68962962963 24.071294117647  169.685185185185 25.2148235294117  C 159.19037037037 26.1296470588235  149.151851851852 27.7305882352941  139.113333333333 30.0176470588235  C 132.725185185185 31.6185882352941  126.108888888889 33.6769411764705  119.948888888889 35.735294117647  C 113.560740740741 38.0223529411764  107.400740740741 40.5381176470588  101.240740740741 43.511294117647  C 95.7651851851852 46.0270588235294  90.5177777777778 49.2289411764705  85.2703703703704 52.4308235294117  C 81.3918518518519 54.7178823529411  77.5133333333333 57.4623529411764  74.0911111111111 60.2068235294117  C 70.6688888888889 62.951294117647  67.4748148148148 65.9244705882353  64.5088888888889 68.8976470588235  C 60.8585185185185 72.7856470588235  57.2081481481482 76.6736470588235  54.0140740740741 80.7903529411765  C 50.3637037037037 85.5931764705882  47.6259259259259 90.8534117647059  45.3444444444445 96.5710588235294  C 42.8348148148148 102.288705882353  41.4659259259259 108.463764705882  40.5533333333333 114.638823529412  C 39.1844444444445 122.643529411765  40.5533333333333 130.419529411765  42.6066666666667 138.195529411765  C 44.2037037037037 143.913176470588  46.4851851851852 149.630823529412  49.4511111111111 154.891058823529  C 53.1014814814815 161.294823529412  57.4362962962963 167.012470588235  62.4555555555556 172.272705882353  C 68.8437037037037 178.905176470588  75.6881481481482 184.851529411765  83.4451851851852 189.654352941176  C 88.9207407407408 193.084941176471  94.6244444444445 196.515529411765  100.556296296296 199.26  C 106.031851851852 202.004470588235  111.735555555556 204.291529411765  117.439259259259 206.349882352941  C 122.002222222222 208.179529411765  127.021481481481 209.551764705882  131.812592592593 210.924  C 135.462962962963 212.067529411765  139.341481481481 212.753647058824  142.991851851852 213.439764705882  C 148.923703703704 214.583294117647  154.627407407407 215.726823529412  160.559259259259 216.641647058824  C 168.088148148148 217.556470588235  175.388888888889 218.013882352941  182.917777777778 218.7  C 195.465925925926 219.614823529412  208.014074074074 218.471294117647  220.562222222222 217.099058823529  C 228.775555555556 216.184235294118  236.988888888889 214.354588235294  244.745925925926 211.838823529412  C 256.153333333333 208.408235294118  267.332592592593 204.062823529412  277.142962962963 197.201647058824  C 284.9 191.712705882353  291.744444444444 185.537647058824  296.079259259259 176.846823529412  C 299.273333333333 170.443058823529  300.185925925926 163.353176470588  298.360740740741 156.492  C 295.622962962963 146.657647058824  288.322222222222 141.397411764706  279.424444444444 137.966823529412  C 274.405185185185 136.137176470588  269.157777777778 134.764941176471  263.91037037037 133.850117647059  C 256.381481481482 132.477882352941  248.852592592593 131.334352941177  241.323703703704 131.105647058824  C 224.668888888889 130.648235294118  208.014074074074 130.876941176471  191.587407407407 130  L 131.584444444444 130  C 128.618518518519 130.876941176471  125.652592592593 130.419529411765  122.914814814815 129.504705882353  C 118.123703703704 127.675058823529  114.92962962963 124.244470588235  112.648148148148 119.441647058824  C 110.138518518519 113.952705882353  107.172592592593 108.692470588235  104.434814814815 103.432235294118  C 102.60962962963 100.001647058824  102.837777777778 100.001647058824  106.716296296296 100  L 367.261481481481 100  Z " fill-rule="nonzero" fill="#a2a2a2" stroke="none" transform="matrix(1 0 0 1 -61 32 )" />
  </g>
</svg>