<?xml version="1.0" encoding="utf-8"?>
<svg version="1.1" xmlns:xlink="http://www.w3.org/1999/xlink" width="52px" height="52px" xmlns="http://www.w3.org/2000/svg">
  <g transform="matrix(1 0 0 1 -162 -98 )">
    <path d="M 52 26  C 52 11.6140408007813  40.3859591992187 0  26 0  C 11.6140408007813 0  0 11.6140408007813  0 26  C 0 40.3859591992187  11.6580816523438 52  26 52  C 40.3419183476563 52  52 40.3419183476563  52 26  Z M 49.636122453125 26  C 49.636122453125 39.0636734921875  39.0636734921875 49.636122453125  26 49.636122453125  C 12.9363265078125 49.636122453125  2.36387754687501 39.0636734921875  2.36387754687501 26  C 2.36387754687501 12.9363265078125  12.9363265078125 2.36387754687501  26 2.36387754687501  C 39.0636734921875 2.36387754687501  49.636122453125 12.9363265078125  49.636122453125 26  Z M 35.942612265625 27.8475918398438  C 37.3062857578125 27.011877546875  37.3062857578125 24.988122453125  35.942612265625 24.1964489609375  L 22.5244898125 16.4532244804688  C 21.1608163203125 15.6615509882813  19.4013061328125 16.6734285859375  20 18.2573061328125  L 20 33.78673471875  C 19.4013061328125 35.370612265625  21.1167755195313 36.3824898125  22.5244898125 35.5908163203125  L 35.942612265625 27.8475918398438  Z " fill-rule="nonzero" fill="#b7b7b7" stroke="none" transform="matrix(1 0 0 1 162 98 )" />
  </g>
</svg>