<?xml version="1.0" encoding="utf-8"?>
<svg version="1.1" xmlns:xlink="http://www.w3.org/1999/xlink" width="16px" height="16px" xmlns="http://www.w3.org/2000/svg">
  <g transform="matrix(1 0 0 1 -335 -27 )">
    <path d="M 15.7727272695312 12.7045454609375  C 15.770473665797 14.3981211319673  14.3981211319673 15.770473665797  12.7045454609375 15.7727272695313  L 3.2954545390625 15.7727272695312  C 1.60187886803271 15.770473665797  0.22952633420301 14.3981211319673  0.22727273046875 12.7045454609375  L 0.22727273046875 3.2954545390625  C 0.22952633420301 1.60187886803271  1.60187886803272 0.22952633420301  3.2954545390625 0.22727273046875  L 8 0.22727273046875  C 8.33890199731665 0.22727273046875  8.61363635609048 0.50200708924258  8.61363635609048 0.840909095703124  C 8.61363635609048 1.17981110216367  8.33890199731665 1.4545454609375  7.99999999085611 1.4545454609375  L 3.2954545390625 1.4545454609375  C 2.27968188182015 1.45679524955872  1.45679524955872 2.27968188182015  1.4545454609375 3.2954545390625  L 1.4545454609375 12.7045454609375  C 1.45679524955872 13.7203181181799  2.27968188182015 14.5432047504413  3.2954545390625 14.5454545390625  L 12.7045454609375 14.5454545390625  C 13.7203181181798 14.5432047504413  14.5432047504413 13.7203181181799  14.5454545390625 12.7045454609375  L 14.5454545390625 8  C 14.5454545390625 7.66109799353945  14.8201888978363 7.38636363476562  15.1590909042969 7.38636363476562  C 15.4979929107574 7.38636363476562  15.7727272695312 7.66109799353945  15.7727272695312 8  L 15.7727272695312 12.7045454609375  Z " fill-rule="nonzero" fill="#000000" stroke="none" transform="matrix(1 0 0 1 335 27 )" />
  </g>
</svg>