<?xml version="1.0" encoding="utf-8"?>
<svg version="1.1" xmlns:xlink="http://www.w3.org/1999/xlink" width="9px" height="9px" xmlns="http://www.w3.org/2000/svg">
  <g transform="matrix(1 0 0 1 -342 -27 )">
    <path d="M 1.22909090429687 8.63818182617187  C 1.11386969644616 8.75291603066347  0.95805686919684 8.81759305305692  0.795454539062499 8.81818182617187  C 0.632852208928162 8.81759305305692  0.477039381678843 8.75291603066347  0.361818173828125 8.63818182617187  C 0.245893244276829 8.52366341885652  0.180647749156545 8.36749654226413  0.180647749156545 8.2045454609375  C 0.180647749156545 8.04159437961087  0.24589324427683 7.88542750301848  0.361818173828125 7.77090909570312  L 7.7254545390625 0.407272730468749  C 7.8390420514425 0.301430776307428  7.98852743946125 0.242579497447681  8.14378413731794 0.242579497447681  C 8.48268614377849 0.242579497447681  8.75742050255232 0.517313856221511  8.75742050255232 0.856215862682056  C 8.75742050255232 1.01147256053875  8.69856922369257 1.1609579485575  8.59272726953125 1.2745454609375  L 1.22909090429687 8.63818182617187  Z " fill-rule="nonzero" fill="#000000" stroke="none" transform="matrix(1 0 0 1 342 27 )" />
  </g>
</svg>