<?xml version="1.0" encoding="utf-8"?>
<svg version="1.1" xmlns:xlink="http://www.w3.org/1999/xlink" width="54px" height="34px" xmlns="http://www.w3.org/2000/svg">
  <g transform="matrix(1 0 0 1 -161 -53 )">
    <path d="M 29.496 33.352  C 28.536 33.384  27.64 33.32  26.744 33.32  C 25.944 33.32  25.144 33.352  24.376 33.32  C 23.384 33.256  22.424 33.16  21.432 33.032  C 20.6 32.904  19.768 32.744  18.936 32.584  C 18.296 32.456  17.656 32.36  17.016 32.2  C 15.704 31.816  14.392 31.368  13.08 30.92  C 12.376 30.664  11.672 30.376  10.968 30.056  C 10.488 29.832  10.04 29.608  9.62400000000001 29.352  C 8.85600000000001 28.904  8.08800000000001 28.488  7.38400000000001 27.976  C 6.52 27.336  5.68800000000001 26.664  4.88800000000001 25.96  C 4.184 25.288  3.54400000000001 24.552  2.96800000000001 23.784  C 2.488 23.144  2.10400000000001 22.408  1.72 21.704  C 1.24000000000001 20.872  1.01600000000001 19.912  0.824000000000005 18.984  C 0.664000000000005 18.216  0.632000000000005 17.448  0.664000000000005 16.68  C 0.696000000000005 15.496  0.984000000000005 14.376  1.368 13.288  C 1.592 12.68  1.944 12.072  2.232 11.496  C 2.71200000000001 10.568  3.352 9.76800000000001  4.088 9.03200000000001  C 4.66400000000001 8.42400000000001  5.272 7.84800000000001  5.912 7.30400000000001  C 6.52 6.79200000000001  7.16 6.31200000000001  7.832 5.86400000000001  C 8.184 5.60800000000001  8.568 5.41600000000001  8.92000000000001 5.19200000000001  C 10.36 4.32800000000001  11.928 3.62400000000001  13.496 3.04800000000001  C 14.648 2.63200000000001  15.8 2.28000000000001  16.984 1.99200000000001  C 18.008 1.70400000000001  19.064 1.48000000000001  20.12 1.28800000000001  C 21.016 1.12800000000001  21.944 1.06400000000001  22.84 0.936000000000007  C 24.568 0.744000000000007  26.328 0.648000000000007  28.088 0.744000000000007  C 29.624 0.808000000000007  31.16 0.936000000000007  32.696 1.09600000000001  C 33.656 1.19200000000001  34.616 1.35200000000001  35.544 1.57600000000001  C 36.824 1.86400000000001  38.072 2.24800000000001  39.352 2.60000000000001  C 40.92 3.08000000000001  42.456 3.72000000000001  43.928 4.48800000000001  C 44.824 4.96800000000001  45.72 5.48000000000001  46.584 6.05600000000001  C 47.352 6.60000000000001  48.088 7.20800000000001  48.792 7.81600000000001  C 49.368 8.29600000000001  49.88 8.87200000000001  50.392 9.41600000000001  C 51 10.088  51.512 10.824  51.96 11.624  C 52.344 12.328  52.696 13.064  52.952 13.832  C 53.112 14.344  53.24 14.856  53.304 15.368  C 53.4 16.136  53.432 16.936  53.432 17.704  C 53.432 18.696  53.176 19.656  52.856 20.584  C 52.184 22.44  51.096 24.04  49.72 25.416  C 48.696 26.472  47.576 27.368  46.328 28.168  C 45.432 28.744  44.568 29.288  43.608 29.736  C 42.744 30.12  41.912 30.504  41.016 30.856  C 40.056 31.24  39.064 31.56  38.104 31.88  C 37.496 32.072  36.888 32.2  36.248 32.328  C 35.64 32.456  35.064 32.616  34.456 32.744  C 34.04 32.84  33.656 32.872  33.24 32.936  C 31.992 33.064  30.744 33.256  29.496 33.352  Z M 51.512 14  C 51.768 13.96  52.088 13.928  52.44 13.896  C 52.44 13.864  52.472 13.832  52.472 13.768  C 52.28 13.672  52.088 13.576  51.864 13.512  C 50.936 13.224  49.976 12.968  49.048 12.68  C 48.6 12.552  48.152 12.424  47.736 12.264  C 47.32 12.104  46.936 11.88  46.648 11.528  C 46.104 10.856  45.56 10.184  44.952 9.544  C 44.28 8.84  43.512 8.264  42.744 7.72  C 41.432 6.82399999999999  40.056 6.08799999999999  38.616 5.51199999999999  C 37.336 4.99999999999999  36.024 4.58399999999999  34.68 4.26399999999999  C 33.88 4.07199999999999  33.112 3.94399999999999  32.312 3.81599999999999  C 31.288 3.65599999999999  30.296 3.49599999999999  29.272 3.46399999999999  C 27.448 3.36799999999999  25.624 3.36799999999999  23.8 3.52799999999999  C 22.328 3.65599999999999  20.92 3.87999999999999  19.512 4.19999999999999  C 18.616 4.42399999999999  17.688 4.71199999999999  16.824 4.99999999999999  C 15.928 5.31999999999999  15.064 5.67199999999999  14.2 6.08799999999999  C 13.432 6.43999999999999  12.696 6.88799999999999  11.96 7.33599999999999  C 11.416 7.656  10.872 8.04  10.392 8.424  C 9.912 8.808  9.464 9.224  9.048 9.64  C 8.536 10.184  8.024 10.728  7.576 11.304  C 7.064 11.976  6.68 12.712  6.36 13.512  C 6.008 14.312  5.816 15.176  5.688 16.04  C 5.496 17.16  5.688 18.248  5.976 19.336  C 6.2 20.136  6.52 20.936  6.936 21.672  C 7.448 22.568  8.056 23.368  8.76 24.104  C 9.656 25.032  10.616 25.864  11.704 26.536  C 12.472 27.016  13.272 27.496  14.104 27.88  C 14.872 28.264  15.672 28.584  16.472 28.872  C 17.112 29.128  17.816 29.32  18.488 29.512  C 19 29.672  19.544 29.768  20.056 29.864  C 20.888 30.024  21.688 30.184  22.52 30.312  C 23.576 30.44  24.6 30.504  25.656 30.6  C 27.416 30.728  29.176 30.568  30.936 30.376  C 32.088 30.248  33.24 29.992  34.328 29.64  C 35.928 29.16  37.496 28.552  38.872 27.592  C 39.96 26.824  40.92 25.96  41.528 24.744  C 41.976 23.848  42.104 22.856  41.848 21.896  C 41.464 20.52  40.44 19.784  39.192 19.304  C 38.488 19.048  37.752 18.856  37.016 18.728  C 35.96 18.536  34.904 18.376  33.848 18.344  C 31.512 18.28  29.176 18.312  26.872 18.312  L 18.456 18.312  C 18.04 18.312  17.624 18.248  17.24 18.12  C 16.568 17.864  16.12 17.384  15.8 16.712  C 15.448 15.944  15.032 15.208  14.648 14.472  C 14.392 13.992  14.424 13.992  14.968 14  L 51.512 14  Z " fill-rule="nonzero" fill="#ffffff" stroke="none" transform="matrix(1 0 0 1 161 53 )" />
  </g>
</svg>