<?xml version="1.0" encoding="utf-8"?>
<svg version="1.1" xmlns:xlink="http://www.w3.org/1999/xlink" width="4px" height="4px" xmlns="http://www.w3.org/2000/svg">
  <g transform="matrix(1 0 0 1 -31 -7 )">
    <path d="M 1.81072519225484 1.68729998684156  C 1.98381224834479 1.4925770166979  1.91025026033729 0.968988654174474  2.07468298463461 0.968988654174474  C 2.07468298463461 0.968988654174474  2.13093628157402 0.964661488403081  2.16122649868832 0.999278871288778  C 2.19151674403498 1.03389628265667  2.23046132117427 1.54883031363731  2.36460382885697 1.69162715261295  C 2.49874630805747 1.83442399183843  3.04397058463461 1.75220761507391  3.04397055590256 1.93827622544243  C 3.04397055590256 2.08540023018947  2.53769088469707 2.10270895023943  2.36460382885697 2.24117862344368  C 2.19151677276703 2.38397546266916  2.29104181236727 2.97679867616073  2.07901015065584 2.95516279033937  C 1.91457742585884 2.93785407053925  2.03141121374141 2.4661918104518  1.82803391205497 2.27579603456173  C 1.62465661036852 2.08540025867166  1.13568563048095 2.12434483556111  1.13568563073079 1.95125777947116  C 1.13568563098063 1.77817072338122  1.6376381361649 1.88202295698522  1.81072519225484 1.68729998684156  Z " fill-rule="nonzero" fill="#e94151" stroke="none" transform="matrix(1 0 0 1 31 7 )" />
  </g>
</svg>