<?xml version="1.0" encoding="utf-8"?>
<svg version="1.1" xmlns:xlink="http://www.w3.org/1999/xlink" width="4px" height="4px" xmlns="http://www.w3.org/2000/svg">
  <g transform="matrix(1 0 0 1 -7 -13 )">
    <path d="M 1.09069016523007 1.51572561723923  C 1.34166640383094 1.2301319390381  1.23348700445555 0.455567309431605  1.48013607703519 0.455567337913803  C 1.48013607703519 0.455567337913803  1.56235242506767 0.446912978138663  1.60562419646055 0.498839080824484  C 1.64889596760358 0.555092377763899  1.70514926454299 1.31667548157402  1.9041994002082 1.52437997726421  C 2.10324953612326 1.73208447320425  2.9124315768478 1.61525068532167  2.9124315768478 1.88786283772642  C 2.9124315768478 2.1042216649594  2.16382999858422 2.13018474478451  1.90852656572975 2.3378892119925  C 1.65322313312513 2.54559370793254  1.80034713787216 3.42833776514678  1.48879043681033 3.39372035402873  C 1.24646852975224 3.36775730268582  1.41522842032064 2.66675466133666  1.11665321657298 2.38548814915678  C 0.818078012825319 2.10422166520924  0.0911123201332522 2.16047496189881  0.0911123483656067 1.90517152904435  C 0.0911123483656067 1.64986809643973  0.835386760857799 1.8056464609619  1.09069016523007 1.51572561723923  Z " fill-rule="nonzero" fill="#ffbb5a" stroke="none" transform="matrix(1 0 0 1 7 13 )" />
  </g>
</svg>