<?xml version="1.0" encoding="utf-8"?>
<svg version="1.1" xmlns:xlink="http://www.w3.org/1999/xlink" width="4px" height="5px" xmlns="http://www.w3.org/2000/svg">
  <g transform="matrix(1 0 0 1 -34 -15 )">
    <path d="M 1.91288874978139 2.02033311859775  C 2.176846542411 1.74041886508432  2.06866711455341 1.00615106230481  2.31531618738289 1.00615108877264  C 2.31531618738289 1.00615108877264  2.39753253541537 0.998037626483448  2.445131500812 1.05077509236415  C 2.49273046620862 1.10351255824485  2.54465656889444 1.82966689826671  2.74803387033105 2.02844658088695  C 2.9514111720175 2.22722626350718  3.76924757251718 2.11363786969082  3.76924757251718 2.37326848048095  C 3.76924757251718 2.58016162562461  3.00766446870706 2.60450198625859  2.74803387033105 2.80328166887883  C 2.48840327195503 3.00206135149906  2.63552727670207 3.84180408557152  2.31964338163648 3.80935026288257  C 2.072994308807 3.7850099022486  2.24608136514679 3.11970646346034  1.94317899537789 2.85196241684885  C 1.64027662585884 2.58421834353529  0.900329407620243 2.63695580918176  0.900329407370397 2.39355212320425  C 0.900329407370397 2.15014843722673  1.65758534565897 2.30024737187695  1.91288874978139 2.02033311859775  Z " fill-rule="nonzero" fill="#ff0000" stroke="none" transform="matrix(1 0 0 1 34 15 )" />
  </g>
</svg>