<?xml version="1.0" encoding="utf-8"?>
<svg version="1.1" xmlns:xlink="http://www.w3.org/1999/xlink" width="17px" height="8px" xmlns="http://www.w3.org/2000/svg">
  <g transform="matrix(1 0 0 1 -12 -10 )">
    <path d="M 16.691490193919 4.87193368666012  C 16.6402595127777 4.79404450832515  16.5456798000312 4.73840937399839  16.4392776003525 4.73840937421255  L 15.5447110753011 4.73840937421255  L 15.5447110753011 4.1523860128848  L 16.4392776003525 4.1523860128848  C 16.6047921043143 4.1523860128848  16.7348392255242 4.02627972310163  16.7348392255242 3.87421036545017  C 16.7348392255242 3.71843200878023  16.6008512926296 3.59603471822968  16.4392776003525 3.59603471822968  L 15.9269707903052 3.59603471822968  L 16.2540589863166 3.06564646702954  C 16.3328754266128 2.93212215436781  16.2816447454716 2.76521677580084  16.1437159749532 2.69103659648434  C 16.0057872044347 2.61685641716784  15.8245094280227 2.6576555305791  15.7417521503301 2.78747081980905  L 15.2452086386723 3.58490767191934  L 14.7565467501562 2.78376182036227  C 14.6737894981752 2.65394650693317  14.492511695824 2.60943841891675  14.3545829255331 2.68732759746587  C 14.2166541550147 2.76150777656822  14.1654234738735 2.92841315513518  14.2442399141697 3.06193746779691  L 14.567387298724 3.59232569479789  L 14.0550804884492 3.59232569479789  C 13.8895659844874 3.59232569479789  13.7595188632774 3.71843198458107  13.7595188632774 3.87050134201838  C 13.7595188632774 4.02627969868832  13.893506796172 4.14867698923887  14.0550804884492 4.14867698923887  L 14.949647013273 4.14867698923887  L 14.949647013273 4.73470037497992  L 14.0550804884492 4.73470037497992  C 13.8895659844874 4.73470037497992  13.7595188632774 4.86080666476309  13.7595188632774 5.01287602220041  C 13.7595188632774 5.16865437887035  13.893506796172 5.2910516694209  14.0550804884492 5.2910516694209  L 14.949647013273 5.2910516694209  L 14.949647013273 5.80289485164629  C 14.949647013273 5.95867320831623  15.0836349461676 6.08107049886678  15.2452086386723 6.08107049886678  C 15.4107231426341 6.08107049886678  15.540770263844 5.95496420908361  15.540770263844 5.80289485164629  L 15.540770263844 5.2910516694209  L 16.4353367886678 5.2910516694209  C 16.5417389624074 5.2910516694209  16.6402595127777 5.23912555874007  16.691490193919 5.15010933409476  C 16.7427208750602 5.06480213288123  16.7427208750602 4.95724088787365  16.691490193919 4.87193368666012  Z M 4.43553473743196 0.992310646274648  C 2.45724223612474 0.992310670687962  0.849386988600875 2.50187717412331  0.849386988600875 4.36750850311412  C 0.849386988600875 6.23313985651825  2.45724223589721 7.74270638436691  4.43553473743196 7.74270638415276  C 6.41776805042384 7.74270638415276  8.02168248626305 6.22943085728563  8.02168248603551 4.36750850311412  C 8.02168248580798 2.50558614894262  6.41382723873918 0.992310621861336  4.43553473743196 0.992310646274648  Z " fill-rule="nonzero" fill="#f4ad51" stroke="none" transform="matrix(1 0 0 1 12 10 )" />
  </g>
</svg>