<?xml version="1.0" encoding="utf-8"?>
<svg version="1.1" xmlns:xlink="http://www.w3.org/1999/xlink" width="24px" height="10px" xmlns="http://www.w3.org/2000/svg">
  <g transform="matrix(1 0 0 1 -11 -7 )">
    <path d="M 1.53311452916927 0.105194670049968  C 1.1047240204872 0.105194670049968  0.762011623660212 0.466243467754528  0.762011623885072 0.908426863288569  C 0.762011623885072 1.35061023188632  1.10861846968145 1.71165905652717  1.53311452916927 1.71165902982511  C 1.95761058865709 1.71165900312305  2.30421743467833 1.35061023212055  2.30421743490318 0.908426863288569  C 2.30421743512805 0.46624349445659  1.95761056347283 0.105194670049968  1.53311452916927 0.105194670049968  Z M 22.2788980593879 7.2612632204872  C 21.8582964745034 7.26531993839788  21.5194785268707 7.6182553005153  21.5194785268707 8.05638195120237  C 21.5194785268707 8.49450860212367  21.8621909236977 8.8474439642411  22.2788980593879 8.8474439642411  C 22.6994996442723 8.8474439642411  23.0422120408745 8.49045188421299  23.0422120410993 8.05638195120237  C 23.0422120410993 7.61825530028108  22.6994996442723 7.2612632204872  22.2788980593879 7.2612632204872  Z " fill-rule="nonzero" fill="#ffeb00" stroke="none" transform="matrix(1 0 0 1 11 7 )" />
  </g>
</svg>