<?xml version="1.0" encoding="utf-8"?>
<svg version="1.1" xmlns:xlink="http://www.w3.org/1999/xlink" width="5px" height="6px" xmlns="http://www.w3.org/2000/svg">
  <g transform="matrix(1 0 0 1 -19 -10 )">
    <path d="M 4.749434876015 3.85372561656465  C 4.676413767411 3.72520846126171  4.53037155067146 3.64731927320425  4.37621587140849 3.64731929906308  L 3.06589266325734 3.64731929906308  L 3.06589266325734 2.77106601009369  L 4.37621587140849 2.77106601009369  C 4.61556283947533 2.77106601009369  4.81028577771705 2.58413196374766  4.81028580418489 2.35435887462836  C 4.81028580418489 2.1245857852842  4.6155628392411 1.93765176457214  4.37621587140849 1.93765176457214  L 3.62572114381637 1.93765176457214  L 4.10035836227358 1.14707656182386  C 4.20989001171143 0.948459142485946  4.13686890310744 0.703108230955652  3.93403250234229 0.590168923697689  C 3.73119610181137 0.477229616439725  3.47156549102124 0.539540956452218  3.34986363468145 0.730369451767645  L 2.63182275694879 1.9259683913554  L 1.91378185251406 0.730369451767644  C 1.8367040262336 0.60185229646471  1.69471852717052 0.520068659437851  1.53650612999688 0.520068659437851  C 1.38235045049969 0.520068659437851  1.23630823376015 0.597957847495315  1.15923040724548 0.730369451767644  C 1.08215258096503 0.858886607070581  1.08215258096503 1.0185594321549  1.15923040724548 1.14707656182386  L 1.63386759900063 1.93765176457214  L 0.883372898110562 1.93765176457214  C 0.644025930043728 1.93765176457214  0.449302991802003 2.12458581091818  0.449302965099942 2.35435887462836  C 0.449302965099942 2.58413196397252  0.644025930043728 2.77106598468457  0.883372898110562 2.77106601009369  L 2.19369610626172 2.77106601009369  L 2.19369610626172 3.64731929906308  L 0.883372898110562 3.64731929906308  C 0.644025930043728 3.64731929906308  0.449302991802003 3.83425334540912  0.449302965099942 4.0640264091193  C 0.449302965099942 4.29379949846346  0.644025930043728 4.48073351917552  0.883372898110562 4.48073354480949  L 2.19369610626172 4.48073354480949  L 2.19369610626172 5.24404752629606  C 2.19369610626172 5.47382061564022  2.3884190712055 5.66075463635228  2.62776601257027 5.66075463635228  C 2.86711298063711 5.66075463635228  3.06183591887883 5.47382059000625  3.06183594534667 5.24404752629606  L 3.06183594534667 4.48073354480949  L 4.37215915326359 4.48073354480949  C 4.52631483276078 4.48073354480949  4.67235704950032 4.40284435675203  4.749434876015 4.27043275225484  C 4.82651270229545 4.14191559695191  4.82651270229545 3.98224277186758  4.749434876015 3.85372561656465  Z " fill-rule="nonzero" fill="#ffbb5a" stroke="none" transform="matrix(1 0 0 1 19 10 )" />
  </g>
</svg>