<?xml version="1.0" encoding="utf-8"?>
<svg version="1.1" xmlns:xlink="http://www.w3.org/1999/xlink" width="4px" height="5px" xmlns="http://www.w3.org/2000/svg">
  <g transform="matrix(1 0 0 1 -14 -13 )">
    <path d="M 3.79612547616073 2.83273418792942  C 3.73987217922132 2.74348615474703  3.63169275136373 2.68263525304497  3.514858963731 2.68263525304497  L 2.53258983818447 2.68263525304497  L 2.53258983818447 2.04167220159275  L 3.514858963731 2.04167220159275  C 3.69660037984593 2.04167220159275  3.83939721882157 1.90374344714241  3.83939721882157 1.73741758721112  C 3.83939721882157 1.56703500960337  3.69227321407453 1.43316297306371  3.514858963731 1.43316297306371  L 2.95232599583594 1.43316297306371  L 3.31148166204456 0.853050823313555  C 3.39802520433063 0.707008606339787  3.34177190739121 0.524455848532166  3.19032070839059 0.443321277404747  C 3.03886950938996 0.362186706277328  2.83981940195711 0.406810736570893  2.74894869389965 0.548796209166147  L 2.21237877734749 1.42504951077452  L 1.67580886079534 0.548796209166147  C 1.58493815273788 0.406810710103063  1.38588801682282 0.358129988835105  1.2344368178222 0.443321277404749  C 1.08298561882157 0.52445584829794  1.02673232188216 0.707008606105561  1.11327586416823 0.853050823313555  L 1.47243155910889 1.43316297306371  L 0.909898562731629 1.43316297306371  C 0.728157146616702 1.43316297306371  0.585360307641061 1.57109172751405  0.585360307391217 1.73741758721112  C 0.585360307391217 1.90780016481886  0.732484312138252 2.04167220135853  0.909898562731629 2.04167220159276  L 1.89216768802832 2.04167220159276  L 1.89216768802832 2.68263525304497  L 0.909898562731629 2.68263525304497  C 0.728157146616702 2.68263525304497  0.585360307641061 2.82056400749532  0.585360307391217 2.98688986719238  C 0.585360307391217 3.15727244480013  0.732484312138252 3.29114448133979  0.909898562731629 3.29114448133979  L 1.89216768802832 3.29114448133979  L 1.89216768802832 3.85097298860088  C 1.89216768802832 4.02135556620862  2.03929169277535 4.15522760274828  2.21670594311888 4.15522760274828  C 2.39844735923381 4.15522760274828  2.54124419820945 4.01729884829794  2.5412441984593 3.85097298860088  L 2.5412441984593 3.29114448133979  L 3.514858963731 3.29114448133979  C 3.63169272313137 3.29114448133979  3.73987215098897 3.23435029778264  3.79612547616073 3.13698880207683  C 3.85237877310015 3.04368405074953  3.85237877310015 2.92603893902249  3.79612547616073 2.83273418792942  Z " fill-rule="nonzero" fill="#f4ad51" stroke="none" transform="matrix(1 0 0 1 14 13 )" />
  </g>
</svg>