<?xml version="1.0" encoding="utf-8"?>
<svg version="1.1" xmlns:xlink="http://www.w3.org/1999/xlink" width="10px" height="11px" xmlns="http://www.w3.org/2000/svg">
  <g transform="matrix(1 0 0 1 -17 -19 )">
    <path d="M 3.98782538179263 8.5227103065237  L 3.98376866411618 8.5227103065237  L 1.41180296931605 8.5227103065237  L 1.41180296931605 7.40016852709418  L 3.98376866411618 7.40016852709418  L 3.98376866411618 6.6187525326532  L 1.41180296931605 6.6187525326532  L 1.41180296931605 5.49621075299466  L 3.49290454731418 5.49621075299466  L 0.401677657635853 0.67285106425845  L 3.20082011360087 0.67285106425845  L 4.21500216989382 2.86240250687764  C 4.72209318480637 3.94527849632174  4.83973832300125 4.23087216507045  5.16021983525921 4.9210568471025  L 5.24135440615241 4.9210568471025  C 5.57400612554653 4.23087216507045  5.7200483425203 3.88974637962385  6.18657207198626 2.86240250687764  L 7.17235702303248 0.67285106425845  L 9.91876204005309 0.67285106425845  L 6.82753512320424 5.49621075299466  L 8.90863670167083 5.49621075299466  L 8.90863670167083 6.6187525326532  L 6.36101139420675 6.6187525326532  L 6.36101139420675 7.40016852709418  L 8.90863670167083 7.40016852709418  L 8.90863670167083 8.5227103065237  L 6.36101139420675 8.5227103065237  L 6.36101139420675 10.4266680806232  L 3.98782538179263 10.4266680806232  L 3.98782538179263 8.5227103065237  Z " fill-rule="nonzero" fill="#ffffff" stroke="none" transform="matrix(1 0 0 1 17 19 )" />
  </g>
</svg>