<?xml version="1.0" encoding="utf-8"?>
<svg version="1.1" xmlns:xlink="http://www.w3.org/1999/xlink" width="21px" height="21px" xmlns="http://www.w3.org/2000/svg">
  <g transform="matrix(1 0 0 1 -14 -10 )">
    <path d="M 7.17500000683594 13.125  L 8.23427499316406 13.125  L 12.391575 16.206225  C 12.4518729279424 16.2509218055707  12.5249423955061 16.2750506434369  12.6000000036639 16.2750506434369  C 12.7932996698801 16.2750506434369  12.9500000104999 16.1183503028171  12.9500000104999 15.925050636601  C 12.9500000104999 15.9250337554564  12.9500000092786 15.9250168743084  13 15.9249999931641  L 13 5.07500000683594  C 12.9499563916808 4.88173119031458  12.793268830355 4.72507898482792  12.6000000089123 4.72507898482792  C 12.5250168670882 4.72507898482792  12.452015869423 4.74916002811221  12.3917499931641 4.793775  L 8.2341 7.875  L 3.84999999316406 7.875  C 3.5600504995029 7.875  3.32499999316406 8.11005050633883  3.32499999316406 8.4  L 3.32499999316406 12.6  C 3.32499999316406 12.8899494936612  3.5600504995029 13.125  3.84999999316406 13.125  L 5.07500000683594 13.125  L 5.07500000683594 14.5250000068359  C 5.07500000683594 14.8149495004971  5.31005051317477 15.0500000068359  5.60000000683594 15.0500000068359  C 4.90000000683594 15.0500000068359  6.30000000683594 15.0500000068359  5.60000000683594 15.0500000068359  L 6.65000000683594 15.0500000068359  C 6.93994950049711 15.0500000068359  7.17500000683594 14.8149495004971  7.17500000683594 14.5250000068359  L 7.17500000683594 13.125  Z M 0 21  L 0 0  L 21 0  L 21 21  L 0 21  Z M 13.824999508379 8.22499999658203  C 13.824999508379 8.39452794731555  13.9068608885907 8.55362283629521  14.0448 8.65217499316406  C 14.7264249931641 9.13902500683594  15.0500000068359 9.73997499316406  15.0500000068359 10.5  C 15.0500000068359 11.2600250068359  14.72625 11.8609749931641  14.0448 12.3478250068359  C 13.9068608885906 12.4463771637048  13.824999508379 12.6054720526845  13.824999508379 12.775000003418  C 13.824999508379 13.0649497704816  14.0600502363543 13.300000498457  14.350000003418 13.300000498457  C 14.4594430115282 13.300000498457  14.5661499639175 13.2657978094353  14.6552000068359 13.202175  C 15.6068499931641 12.5223  16.1000000068359 11.6067  16.1000000068359 10.5  C 16.1000000068359 9.3933  15.6068500136719 8.4777  14.6552000068359 7.797825  C 14.5661499639175 7.73420219056468  14.4594430115282 7.69999950154304  14.350000003418 7.69999950154304  C 14.0600502363543 7.69999950154304  13.824999508379 7.93505022951838  13.824999508379 8.22499999658203  Z M 14.6999571571259 5.59999999658203  C 14.6999571571259 5.76909660399661  14.7813984036214 5.92784336342478  14.9187500068359 6.026475  C 16.5341750068359 7.1862  17.325 8.6625  17.325 10.5  C 17.325 12.3375  16.5341750068359 13.8138  14.9187500068359 14.973525  C 14.7813984036214 15.0721566365752  14.6999571571259 15.2309033960034  14.6999571571259 15.400000003418  C 14.6999571571259 15.6899731585452  14.9350268448728 15.9250428462921  15.225 15.9250428462921  C 15.3348825772277 15.9250428462921  15.4419959958288 15.89056794512  15.5312499931641 15.8264750068359  C 17.415825 14.4733749931641  18.375 12.68295  18.375 10.5  C 18.375 8.31705  17.415825 6.52662500683594  15.5312499931641 5.17352499316406  C 15.4419959958288 5.10943205487996  15.3348825772277 5.07495715370791  15.225 5.07495715370791  C 14.9350268448728 5.07495715370791  14.6999571571259 5.31002684145485  14.6999571571259 5.59999999658203  Z " fill-rule="nonzero" fill="#4095eb" stroke="none" transform="matrix(1 0 0 1 14 10 )" />
  </g>
</svg>