<?xml version="1.0" encoding="utf-8"?>
<svg version="1.1" xmlns:xlink="http://www.w3.org/1999/xlink" width="59px" height="59px" xmlns="http://www.w3.org/2000/svg">
  <g transform="matrix(1 0 0 1 -998 -238 )">
    <path d="M 29.2343910625 11.3469997167969  L 29.2343910625 14.7559264785156  L 36.7038468046875 14.7559264785156  L 36.7038468046875 11.3469997167969  L 29.2343910625 11.3469997167969  Z M 43.5815576962891 28.3198581396484  C 42.7562082509766 29.4107495224609  42.1159213769531 30.4713104501953  41.6538007197266 31.4902256435547  C 38.3604376386719 29.9599781621094  35.9950653203125 27.7366165966797  34.5594916523437 24.82763984375  L 34.6446579433594 32.2855793720703  L 31.0824051494141 32.2855793720703  L 31.1695130664062 25.8351058232422  C 29.4839978613281 27.97142640625  27.3780077333984 29.8387233417969  24.8476592998047 31.4408131435547  C 24.1584285986328 30.2401831542969  23.4122195009766 29.2364666884766  22.6052826240234 28.4258472978516  C 23.7569018515625 28.1077459541016  24.8287111240234 27.5698326591797  25.8248617587891 26.8122412822266  C 27.5293251396484 25.4752248105469  28.7642358359375 23.9562926083984  29.529326109375 22.2632115722656  L 23.3553081044922 22.3199220996094  L 23.3553081044922 19.3314702607422  L 31.1694461318359 19.4108784121094  L 31.1694461318359 17.6118082177734  C 28.8702919287109 17.6270069453125  27.0900359755859 17.6649032314453  25.8248617587891 17.7179312451172  L 25.8248617587891 8.41157595703125  C 30.5368590234375 8.5138826015625  35.3341564482422 8.5138826015625  40.2201687431641 8.41157595703125  C 40.0478276005859 10.8621814355469  40.0478276005859 13.9643891328125  40.2201687431641 17.7179981796875  C 38.9152904179687 17.6460889248047  37.0308531289063 17.6119420869141  34.5612324746094 17.6119420869141  L 34.5612324746094 19.4111462158203  L 42.9491045224609 19.3316041953125  L 42.9491045224609 22.32012296875  L 36.5724818544922 22.2632785068359  C 38.3735607402344 25.4564105693359  40.7106112294922 27.4751588457031  43.5815576962891 28.3198581396484  Z M 19.2722154345703 32.2059703515625  L 19.3876451806641 28.7440825107422  L 19.3876451806641 19.1991010302734  C 18.8896367978516 19.9528090244141  18.3706716787109 20.6573723222656  17.8365748320312 21.3125900546875  C 17.2229358994141 19.9376772314453  16.5337051982422 18.7937578349609  15.7666062333984 17.8733998378906  C 18.4842266679688 15.7749086064453  20.2474762021484 12.27130803125  21.0542792099609 7.3511488984375  C 22.3743561972656 7.949455234375  23.5826190175781 8.3547984296875  24.6734434003906 8.56697761523437  C 23.9461824785156 10.6994148154297  23.1242477431641 12.7410615849609  22.2038228115234 14.6992828857422  L 22.6336713876953 14.6992828857422  C 22.4423820693359 19.8467529316406  22.4613971796875 25.6836544824219  22.6923905410156 32.2061042861328  L 19.2722154345703 32.2061042861328  Z M 29.4365270527344 42.0806363242188  C 64.7856123544922 33.4522633925781  45.6783081054688 1.0823232109375  45.6783081054688 1.0823232109375  C 36.5082723652344 6.010182109375  29.4364600527344 0.362628185546875  29.4364600527344 0.362628120117186  C 23.1658934775391 6.90402603417969  13.4316313046875 1.46115233398437  13.4316313701172 1.46115233398437  C -5.00893893261719 34.550653671875  29.4365270527344 42.0806363242188  29.4365270527344 42.0806363242188  Z M 56.7745608691406 44.3341274755859  C 57.9959467910156 42.0049776210938  58.8766676142578 34.5089409375  58.4182964052734 30.0584683583984  C 58.2441475058594 28.3842684980469  57.4866230634766 27.1002800400391  56.7745608691406 26.3047253769531  C 55.5964276347656 24.9904064638672  55.5150108574219 24.5812468857422  54.3105644199219 24.8010589023438  C 53.1079258046875 25.0245533671875  53.4887636191406 28.5584843974609  53.4887636191406 28.5584843320312  C 53.4887636191406 28.5584842666016  53.5778132275391 39.3535752363281  52.6647533232422 40.5769028496094  C 51.7520281572266 41.8039799111328  51.4603738857422 41.3798224746094  51.0209507871094 40.5769028496094  C 50.5854110712891 39.7777326728516  51.3618836240234 38.429266921875  51.0209507871094 36.8232938027344  C 50.6800179501953 35.2171867490234  49.3791569423828 36.0732013876953  49.3791569423828 36.0732013876953  C 47.9263089863281 40.1451126474609  47.7333457802734 40.5767689804687  47.7333457802734 40.5767689804687  C 45.8319019414062 45.2697511347656  39.5178149404297 47.3378449765625  39.5178149404297 47.3378449111328  C 33.8398635615234 48.6673624863281  32.1202015185547 54.0989878417969  32.1202015185547 54.0989879072266  L 32.1202015185547 58  L 42.8054199472656 58  L 41.9834182119141 56.352545993164  C 41.9834182119141 56.352545993164  43.6083395722656 53.8868087216797  47.7332788457031 52.5989369462891  C 51.8619006328125 51.3111321054688  55.5529071435547 46.6636120683594  56.7745608691406 44.3341274755859  Z M 26.5938353496094 54.1142535039062  C 26.5900859013672 54.1105709902344  24.8780566240234 48.6903279140625  19.2305027001953 47.3644928525391  C 19.2305027001953 47.3644928525391  12.9429297060547 45.2963990107422  11.0528012119141 40.6148661357422  C 11.0528012119141 40.6148661357422  10.8634535849609 40.1830758681641  9.41649763769531 36.1188644394531  C 9.41649763769531 36.1188644394531  8.12112690039062 35.2628498007813  7.78019399804688 36.8688229199219  C 7.44314454394531 38.4747291044922  8.21586758300781 39.8157628935547  7.78019399804688 40.6186155839844  C 7.34833679589844 41.4178526953125  7.05293307617188 41.8420770664063  6.14770687207031 40.6186155839844  C 5.23866421972656 39.3951541015625  5.32952158496094 28.6228946904297  5.32952158496094 28.6228946904297  C 5.32952158496094 28.6228946904297  5.71210022167969 25.0927801083984  4.51140329785156 24.8729681572266  C 3.31258113085937 24.6532900751953  3.22922259667969 25.0623157841797  2.05885612792969 26.3729521181641  C 1.34860169042969 27.1645563984375  0.594893696289061 28.4487457255859  0.420610796874999 30.1227447822266  C -0.0338770292968764 34.5620359511719  0.840951785156249 42.0427400380859  2.05885612792969 44.3684082480469  C 3.27461784472656 46.6903939443359  6.94500229199219 51.3302141503906  11.0546759033203 52.6143364775391  C 15.1624078886719 53.8983918701172  16.7798302216797 56.3604466279297  16.7798302871094 56.3604466279297  L 15.9598372431641 58  L 26.5938353496094 58  L 26.5938353496094 54.1142535039062  Z " fill-rule="nonzero" fill="#1b9d00" stroke="none" transform="matrix(1 0 0 1 998 238 )" />
  </g>
</svg>