<?xml version="1.0" encoding="utf-8"?>
<svg version="1.1" xmlns:xlink="http://www.w3.org/1999/xlink" width="34px" height="42px" xmlns="http://www.w3.org/2000/svg">
  <g transform="matrix(1 0 0 1 -921 -409 )">
    <path d="M 21.38964453125 29.0752890625  L 21.392265625 29.0752890625  C 21.4672890625 29.0287109375  22.2903125 28.5136875  22.53106640625 28.3687109375  C 22.97622265625 28.09951171875  23.34377734375 27.89764453125  23.7112890625 27.732  C 26.29435546875 26.55693359375  28.572 27.38777734375  31.5847109375 30.90777734375  C 33.448265625 33.08706640625  33.9995546875 35.02048828125  33.28 36.74164453125  C 32.74422265625 38.028  31.71151171875 38.91577734375  29.8738671875 40.01315625  C 29.75484375 40.08306640625  28.69622265625 40.69906640625  28.42448828125 40.8672890625  C 24.14608984375 43.5072890625  14.33933203125 37.463734375  7.28635546875 27.1367109375  C 0.2152890625 16.78377734375  -1.61462109375 5.74493359375  2.7207109375 3.0661328125  L 3.2927109375 2.70377734375  L 3.9138671875 2.3  C 6.1061328125 0.88164453125  7.50893359375 0.31484375  9.17315625 0.59693359375  C 10.83484375 0.88164453125  12.248 2.11106640625  13.44377734375 4.3498671875  C 15.9647109375 9.0863125  15.40822265625 11.33293359375  12.16515625 13.3750234375  C 11.932265625 13.52515625  11.104 14.0247109375  11.02635546875 14.0738671875  C 10.23177734375 14.56564453125  11.57764453125 17.86048828125  14.70684375 22.44164453125  C 17.87484375 27.074578125  20.522578125 29.60848828125  21.38964453125 29.0752890625  Z " fill-rule="nonzero" fill="#898989" stroke="none" transform="matrix(1 0 0 1 921 409 )" />
  </g>
</svg>