<?xml version="1.0" encoding="utf-8"?>
<svg version="1.1" xmlns:xlink="http://www.w3.org/1999/xlink" width="18px" height="20px" xmlns="http://www.w3.org/2000/svg">
  <g transform="matrix(1 0 0 1 -1425 -554 )">
    <path d="M 17.7216520491509 1.04424838362069  C 17.7216520491509 0.635102370689655  17.3895747346698 0.301724137931034  16.9866045106132 0.301724137931034  L 0.826752284575472 0.301724137931034  C 0.420050854528302 0.301724137931034  0.0917047460377355 0.635102370689655  0 1.04803677284483  L 0 18.9481748383621  C 0.0917047464622642 19.3611092405172  0.42005085495283 19.6944874732759  0.826752285 19.6944874732759  L 16.9866045106132 19.6944874732759  C 17.3933059406604 19.6944874732759  17.7216520491509 19.3611092405172  17.7216520491509 18.9481748383621  L 17.7216520491509 1.04424838362069  Z M 17 1.79056101853448  L 17 18.1980738146552  C 16.9866045106132 18.6110082168103  16.6582584021226 18.944386449569  16.2515569720755 19  L 1.56179982311321 19  C 1.15509839306604 18.944386449569  0.826752284575472 18.6110082168103  1 18.1980738146552  L 1 1.79056101810345  C 0.826752284575472 1.37762661594828  1.15509839306604 1.04424838318965  1.56179982311321 1  L 16.2515569725 1  C 16.6582584025472 1.04424838362069  16.9866045110377 1.37762661637931  17 1.79056101853448  Z M 15.9903725675943 2.79827249482759  C 15.8448555420283 2.6543137125  15.5911335491038 2.67704404655172  15.4194980837264 2.83615638448276  C 11.8412717421226 6.10553609913793  6.34147442490566 6.10553609913793  2.75951687773585 2.83615638491379  C 2.58788141193396 2.67704404655172  2.33415941900943 2.6581021012931  2.18864239386792 2.79827249482759  C 2.04312536830189 2.94223127715517  2.0729750145283 3.20741850775862  2.26326650943396 3.37789601293103  C 6.12506449018868 6.90488618017241  12.0539504716981 6.90488618017241  15.9157484524528 3.37789601293103  C 16.1060399473585 3.20363011853448  16.1358895935849 2.93844288793103  15.9903725675943 2.79827249482759  Z " fill-rule="nonzero" fill="#ffffff" stroke="none" transform="matrix(1 0 0 1 1425 554 )" />
  </g>
</svg>