<?xml version="1.0" encoding="utf-8"?>
<svg version="1.1" xmlns:xlink="http://www.w3.org/1999/xlink" width="37px" height="47px" xmlns="http://www.w3.org/2000/svg">
  <defs>
    <linearGradient gradientUnits="userSpaceOnUse" x1="9.71139673033182" y1="0.398907344458065" x2="27.8889352796682" y2="46.5454639059608" id="LinearGradient3834">
      <stop id="Stop3835" stop-color="#ffd599" offset="0" />
      <stop id="Stop3836" stop-color="#ffc066" offset="1" />
    </linearGradient>
  </defs>
  <g transform="matrix(1 0 0 1 -1120 -1671 )">
    <path d="M 13.8881269325 0.445860990250001  C 14.5292904275 0.249148341250002  23.5017971 0.323899148500001  30.1215820025 7.9557898975  L 30.2186724575 8.069825935  C 33.645283355 11.7876611575  35.999513345 17.0142898375  36.53435237 22.739613025  C 36.57483008 22.982938765  36.6134620475 23.229708085  36.65033201 23.479145245  L 36.62943596 24.173346445  C 36.64309184 24.5207662975  36.65 24.86967442  36.65 25.2198538825  C 36.65 29.473234255  35.6308218575 33.321283075  33.88000424 36.436632865  C 28.6281136625 47.1236729875  17.7521893025 46.59782884  17.446962755 46.51698577  C 8.14343513 44.052831595  0.949999999999996 33.391218745  0.949999999999996 21.4057893625  C 0.949999999999996 11.0008813  6.3713273975 2.75205833125  13.8881269325 0.445860990250001  Z M 30.2188464425 8.06866915000001  C 27.3630865775 4.9715465725  23.762751605 2.92109685475  19.85 2.50307200975  C 10.5716162 1.51180158625  3.05 10.075284355  3.05 21.6301461175  C 3.05 33.18500788  10.5716162 43.3556575825  19.85 44.346927985  C 25.71298202 44.9733086875  30.8744978375 41.78453665  33.88000424 36.436632865  C 35.45496917 33.23121544  36.524177135 29.0168815225  36.65033201 23.479145245  L 36.62943596 24.173346445  C 36.610531235 23.6923911625  36.578694815 23.2142881525  36.53435237 22.739613025  C 35.4323232425 16.0708674625  33.04657115 11.372127805  30.2188464425 8.06866915000001  Z " fill-rule="nonzero" fill="url(#LinearGradient3834)" stroke="none" transform="matrix(1 0 0 1 1120 1671 )" />
  </g>
</svg>