<?xml version="1.0" encoding="utf-8"?>
<svg version="1.1" xmlns:xlink="http://www.w3.org/1999/xlink" width="17px" height="25px" xmlns="http://www.w3.org/2000/svg">
  <defs>
    <linearGradient gradientUnits="userSpaceOnUse" x1="4.49557711665124" y1="0.349999999789957" x2="12.3595883836183" y2="24.6505006819961" id="LinearGradient3840">
      <stop id="Stop3841" stop-color="#ffd599" offset="0" />
      <stop id="Stop3842" stop-color="#ffc066" offset="1" />
    </linearGradient>
  </defs>
  <g transform="matrix(1 0 0 1 -1131 -1682 )">
    <path d="M 4.6677345 21.533758505  C 3.29833962 21.7802054225  2.918057025 22.368830855  2.918057025 22.7813903975  C 2.918057025 23.308547045  4.32577071 23.4297718025  6.047058915 23.6136682775  C 7.024452885 23.718089675  7.9284573675 23.7750814175  8.527243335 23.7161200325  C 8.7273918675 23.695830725  8.92420434 23.72310836  9.08432388 23.74646582  C 9.67976633249999 23.948641745  10.7067272325 24.4733506325  11.7375 24.5834748425  C 13.4587806975 24.76737053  14.78857194 24.5684176325  14.78857194 24.0412607225  C 14.78857194 23.6995472525  14.410791915 22.99242743  13.04977929 22.4334207125  C 14.9945646675 20.7378054275  14.9036575575 17.821435415  14.9036575575 17.821435415  C 14.9036575575 17.821435415  15.05079831 20.0404520225  15.5503619025 20.85781943  C 16.352777205 20.85781943  16.4820528375 20.6712223025  16.5440449425 20.56997054  C 16.6947753825 20.56997054  16.8801289425 19.57969244  16.68581715 18.16290602  C 16.4906717625 16.7460305075  16.1729351475 15.71194478  16.1729351475 15.71194478  C 16.1729351475 15.71194478  15.7276041075 13.9870505075  15.47241342 13.12634666  C 15.2555845875 12.3895402925  14.7568803675 10.919395865  14.7568803675 10.919395865  C 14.7568803675 10.919395865  15.215555595 4.36330952750001  11.613717495 1.496901245  C 11.39188557 1.3492258325  11.184231375 1.2061909475  10.9715739825 1.09179224  C 9.85741283999999 0.434143430000002  8.11612518 -0.0831878424999957  6.0862805625 0.884492315000003  C 2.4844424625 2.9802316775  2.9431177425 9.6353775875  2.9431177425 9.6353775875  C 2.9431177425 9.6353775875  2.4444135225 10.998962345  2.2267511475 11.6883055625  C 1.9723958925 12.49562195  1.5270648525 14.1253633325  1.5270648525 14.1253633325  C 1.5270648525 14.1253633325  1.2101617275 15.09164636  1.0141827975 16.4667354425  C 0.9301439475 17.06153162  -0.0674715525000025 18.725  0.105955004999998 19.1842629125  C 0.750735277499999 19.25  1.0141827975 19.0084465025  1.155955005 18.9040928825  C 1.61629737 18.819922415  2.79634239 16.5060644  2.79634239 16.5060644  C 2.79634239 16.5060644  2.7046075125 19.42064012  4.6677345 21.533758505  Z " fill-rule="nonzero" fill="url(#LinearGradient3840)" stroke="none" transform="matrix(1 0 0 1 1131 1682 )" />
  </g>
</svg>