<?xml version="1.0" encoding="utf-8"?>
<svg version="1.1" xmlns:xlink="http://www.w3.org/1999/xlink" width="17px" height="25px" xmlns="http://www.w3.org/2000/svg">
  <defs>
    <linearGradient gradientUnits="userSpaceOnUse" x1="5.33797269270124" y1="0.630170070794567" x2="12.2620273079602" y2="24.6700001091351" id="LinearGradient3843">
      <stop id="Stop3844" stop-color="#ffeacc" offset="0" />
      <stop id="Stop3845" stop-color="#ffd599" offset="1" />
    </linearGradient>
  </defs>
  <g transform="matrix(1 0 0 1 -1130 -1682 )">
    <path d="M 4.6177345 21.8139285875  C 3.24833962 22.060375505  2.868057025 22.6490009375  2.868057025 23.0615604275  C 2.868057025 23.5887171275  4.27577071 23.709941885  5.997058915 23.89383836  C 6.974452885 23.998259705  7.8784573675 24.0552515  8.477243335 23.9962900625  C 8.67739186750001 23.9760008075  8.87420434 24.00327839  9.03432388 24.0266359025  C 9.6297663325 24.2288118275  10.57964017 24.375091055  11.61041299 24.485215265  C 13.3316936875 24.6691109525  14.73857194 24.848587715  14.73857194 24.321430805  C 14.73857194 23.9797172825  14.360791915 23.27259746  12.99977929 22.7135907425  C 14.9445646675 21.01797551  14.8536575575 18.1016054975  14.8536575575 18.1016054975  C 14.8536575575 18.1016054975  16.0337025775 20.668631795  16.4940449425 20.85014057  C 16.727552185 20.94280538  16.8301289425 19.8598625225  16.63581715 18.44307605  C 16.4406717625 17.02620059  16.1229351475 15.9921148625  16.1229351475 15.9921148625  C 16.1229351475 15.9921148625  15.6776041075 14.2672205375  15.42241342 13.4065167425  C 15.2055845875 12.6697103225  14.7068803675 11.199565895  14.7068803675 11.199565895  C 14.7068803675 11.1995659475  15.165555595 4.6434795575  11.563717495 1.7770713275  C 11.34188557 1.629395915  11.134231375 1.4863609775  10.9215739825 1.3719623225  C 9.80741284 0.714313512500002  8.06612518 0.196982240000004  6.0362805625 1.164662345  C 2.4344424625 3.26040176  2.8931177425 9.91554767  2.8931177425 9.91554767  C 2.8931177425 9.91554767  2.3944135225 11.2791324275  2.1767511475 11.968475645  C 1.9223958925 12.77579198  1.4770648525 14.4055333625  1.4770648525 14.4055333625  C 1.4770648525 14.4055333625  1.1601617275 15.37181639  0.964182797500001 16.746905525  C 0.769871004999999 18.12217274  0.872447972499998 19.2270356075  1.105955005 19.1842629125  C 1.56629737 19.1000924975  2.74634239 16.7862344825  2.74634239 16.7862344825  C 2.74634239 16.7862344825  2.6546075125 19.7008102025  4.6177345 21.8139285875  Z " fill-rule="nonzero" fill="url(#LinearGradient3843)" stroke="none" transform="matrix(1 0 0 1 1130 1682 )" />
  </g>
</svg>