<?xml version="1.0" encoding="utf-8"?>
<svg version="1.1" xmlns:xlink="http://www.w3.org/1999/xlink" width="20px" height="11px" xmlns="http://www.w3.org/2000/svg">
  <g transform="matrix(1 0 0 1 -291 -147 )">
    <path d="M 12.3125 7.98482142857143  L 18.125 2.96116071428571  L 18.125 6.04017857142857  C 18.125 6.36428571428571  18.375 6.58035714285714  18.75 6.58035714285714  C 19.125 6.58035714285714  19.375 6.36428571428571  19.375 6.04017857142857  L 19.375 2.25892857142857  C 19.375 1.66473214285714  18.8125 1.17857142857143  18.125 1.17857142857143  L 13.75 1.17857142857143  C 13.375 1.17857142857143  13.125 1.39464285714286  13.125 1.71875  C 13.125 2.04285714285714  13.375 2.25892857142857  13.75 2.25892857142857  L 17.1875 2.25892857142857  L 11.875 6.85044642857143  L 7.875 3.39330357142857  C 7.75 3.28526785714286  7.5625 3.23125  7.4375 3.23125  C 7.25 3.23125  7.125 3.28526785714286  7 3.39330357142857  L 0.8125 8.74107142857143  C 0.5625 8.95714285714286  0.5625 9.28125  0.8125 9.49732142857143  C 1.0625 9.71339285714286  1.4375 9.71339285714286  1.6875 9.49732142857143  L 7.4375 4.52767857142857  L 11.4375 7.98482142857143  C 11.5625 8.09285714285714  11.75 8.146875  11.875 8.146875  C 12.0625 8.146875  12.1875 8.09285714285714  12.3125 7.98482142857143  Z " fill-rule="nonzero" fill="#1890ff" stroke="none" transform="matrix(1 0 0 1 291 147 )" />
  </g>
</svg>