<?xml version="1.0" encoding="utf-8"?>
<svg version="1.1" xmlns:xlink="http://www.w3.org/1999/xlink" width="17px" height="15px" xmlns="http://www.w3.org/2000/svg">
  <g transform="matrix(1 0 0 1 -23 -19 )">
    <path d="M 16.15 1.23026315789474  C 16.15 0.762763157894739  15.7675 0.380263157894731  15.3 0.380263157894731  L 1.7 0.380263157894731  C 1.2325 0.380263157894731  0.849999999999998 0.762763157894739  0.849999999999998 1.23026315789474  L 0.849999999999998 11.0052631578947  C 0.849999999999998 11.4727631578947  1.2325 11.8552631578947  1.7 11.8552631578947  L 6.8 11.8552631578947  L 6.8 13.5552631578947  L 2.125 13.5552631578947  C 1.9125 13.5552631578947  1.7 13.7677631578947  1.7 13.9802631578947  C 1.7 14.1927631578947  1.9125 14.4052631578948  2.125 14.4052631578948  L 14.875 14.4052631578948  C 15.0875 14.4052631578948  15.3 14.1927631578947  15.3 13.9802631578947  C 15.3 13.7677631578947  15.0875 13.5552631578947  14.875 13.5552631578947  L 10.2 13.5552631578947  L 10.2 11.8552631578947  L 15.3 11.8552631578947  C 15.7675 11.8552631578947  16.15 11.4727631578947  16.15 11.0052631578947  L 16.15 1.23026315789474  Z M 9.35 11.8552631578947  L 9.35 13.5552631578947  L 7.65 13.5552631578947  L 7.65 11.8552631578947  L 9.35 11.8552631578947  Z M 15.3 1.23026315789474  L 15.3 11  L 1.7 11  L 1.7 1.23026315789474  L 15.3 1.23026315789474  Z M 4.25 8.88026315789473  C 4.25 9.09276315789474  4.4625 9.30526315789474  4.675 9.30526315789474  C 4.8875 9.30526315789474  5.1 9.09276315789474  5.1 8.88026315789473  L 5.1 6.75526315789473  C 5.1 6.54276315789474  4.8875 6.33026315789475  4.675 6.33026315789475  C 4.4625 6.33026315789475  4.25 6.54276315789474  4.25 6.75526315789473  L 4.25 8.88026315789473  Z M 6.8 8.88026315789473  C 6.8 9.09276315789474  7.0125 9.30526315789474  7.225 9.30526315789474  C 7.4375 9.30526315789474  7.65 9.09276315789474  7.65 8.88026315789473  L 7.65 5.05526315789474  C 7.65 4.84276315789474  7.4375 4.63026315789473  7.225 4.63026315789473  C 7.0125 4.63026315789473  6.8 4.84276315789474  6.8 5.05526315789474  L 6.8 8.88026315789473  Z M 9.35 8.88026315789473  C 9.35 9.09276315789474  9.5625 9.30526315789474  9.775 9.30526315789474  C 9.9875 9.30526315789474  10.2 9.09276315789474  10.2 8.88026315789473  L 10.2 5.90526315789474  C 10.2 5.69276315789473  9.9875 5.48026315789474  9.775 5.48026315789474  C 9.5625 5.48026315789474  9.35 5.69276315789473  9.35 5.90526315789474  L 9.35 8.88026315789473  Z M 11.9 8.88026315789473  C 11.9 9.09276315789474  12.1125 9.30526315789474  12.325 9.30526315789474  C 12.5375 9.30526315789474  12.75 9.09276315789474  12.75 8.88026315789473  L 12.75 4.20526315789473  C 12.75 3.99276315789474  12.5375 3.78026315789474  12.325 3.78026315789474  C 12.1125 3.78026315789474  11.9 3.99276315789474  11.9 4.20526315789473  L 11.9 8.88026315789473  Z " fill-rule="nonzero" fill="#000000" stroke="none" transform="matrix(1 0 0 1 23 19 )" />
  </g>
</svg>