<?xml version="1.0" encoding="utf-8"?>
<svg version="1.1" xmlns:xlink="http://www.w3.org/1999/xlink" width="104px" height="104px" xmlns="http://www.w3.org/2000/svg">
  <g transform="matrix(1 0 0 1 -110 -177 )">
    <path d="M 111 181  A 3 3 0 0 1 114 178 L 210 178  A 3 3 0 0 1 213 181 L 213 277  A 3 3 0 0 1 210 280 L 114 280  A 3 3 0 0 1 111 277 L 111 181  Z " fill-rule="nonzero" fill="#000000" stroke="none" fill-opacity="0.0196078431372549" />
    <path d="M 110.5 181  A 3.5 3.5 0 0 1 114 177.5 L 210 177.5  A 3.5 3.5 0 0 1 213.5 181 L 213.5 277  A 3.5 3.5 0 0 1 210 280.5 L 114 280.5  A 3.5 3.5 0 0 1 110.5 277 L 110.5 181  Z " stroke-width="1" stroke-dasharray="9,4" stroke="#000000" fill="none" stroke-opacity="0.149019607843137" stroke-dashoffset="0.5" />
  </g>
</svg>