<?xml version="1.0" encoding="utf-8"?>
<svg version="1.1" xmlns:xlink="http://www.w3.org/1999/xlink" width="23px" height="19px" xmlns="http://www.w3.org/2000/svg">
  <g transform="matrix(1 0 0 1 -531 -341 )">
    <path d="M 8.78983333333333 6.47930158730159  C 8.46016666666667 7.33339682539683  7.475 7.87625396825397  6.48983333333333 7.87625396825397  C 5.17400021229186 7.8755884030251  4.10748275147414 6.8686899307003  4.10677777777778 5.6264126984127  C 4.10677777777778 4.69631746031746  4.68177777777778 3.76501587301587  5.58516666666667 3.37777777777778  C 6.48983333333333 3.06774603174603  7.63983333333333 3.22215873015873  8.29661111111111 3.92063492063492  C 8.95338888888889 4.61911111111111  9.2 5.6264126984127  8.78983333333333 6.47930158730159  Z M 6.57161111111111 4.77352380952381  C 6.325 4.77352380952381  6.07838888888889 4.85073015873016  5.99661111111111 5.00634920634921  C 5.83207451107517 5.17486533536146  5.74360695070843 5.39730261390981  5.75 5.6264126984127  C 5.84996690230761 6.02485379601853  6.21993105200697 6.31090020756185  6.65338888888889 6.32488888888889  C 7.07542189358981 6.23051019851152  7.37840526371135 5.88122727457175  7.39322222222222 5.472  C 7.39322222222222 5.08355555555556  6.98177777777778 4.77352380952381  6.57161111111111 4.77352380952381  Z M 1.64322222222222 0.12063492063492  L 21.3567777777778 0.12063492063492  C 22.2631394851387 0.123284151811758  22.9971939064508 0.81630447503817  23 1.672  L 23 17.1820317460317  C 22.9964932119564 18.0372561259435  22.2626428972115 18.7295450060764  21.3567777777778 18.7321904761905  L 1.64322222222222 18.7321904761905  C 0.737357102788549 18.7295450060764  0.00350678804358352 18.0372561259435  0 17.1820317460317  L 0 1.672  C 0.0028060935491496 0.81630447503817  0.736860514861337 0.123284151811757  1.64322222222222 0.12063492063492  Z M 21.3555 16.4063492063492  L 21 16.4063492063492  L 21 2.44768253968254  C 21.3560741744519 2.01956035443362  20.9886381918316 1.67266427146293  20.5351666666667 2  L 2.46611111111111 2  C 2.01263958594614 1.67266427146293  1.64520360332587 2.01956035443363  2 2.44768253968254  L 2 16.4063492063492  C 1.6445 16.7935873015873  1.97288888888889 17.1820317460317  2.46611111111111 17  L 20.5338888888889 17  C 20.9873604140539 17.1813674745688  21.3547963966741 16.8344713915981  21.3555 16.4063492063492  Z M 11.1716111111111 12.6847619047619  L 18.7283888888889 5.54920634920635  C 19.0567777777778 5.2391746031746  19.55 5.2391746031746  19.7966111111111 5.6264126984127  C 19.9537827793465 5.76800546811925  20.0427116467425 5.96416786471156  20.0427116467425 6.16926984126984  C 20.0427116467425 6.37437181782812  19.9537827793465 6.57053421442043  19.7966111111111 6.71212698412698  L 11.6648333333333 14.391746031746  C 11.5183096596901 14.5446812494555  11.3081684613458 14.6293294307182  11.0898333333333 14.6233650793651  C 10.8714982053208 14.6293294307182  10.6613570069765 14.5446812494555  10.5148333333333 14.391746031746  L 7.63983333333333 11.6774603174603  L 4.18983333333333 14.9346031746032  C 4.03985678120995 15.0829888489621  3.83207950587204 15.1669465374353  3.61483333333333 15.1669465374353  C 3.39758716079463 15.1669465374353  3.18980988545672 15.0829888489621  3.03983333333333 14.9346031746032  C 2.88232429428289 14.7931855719613  2.7931580310199 14.5969578083375  2.7931580310199 14.391746031746  C 2.7931580310199 14.1865342551546  2.88232429428289 13.9903064915308  3.03983333333333 13.8488888888889  L 7.14661111111111 9.97047619047619  C 7.29289945395642 9.81709451661914  7.5030733819597 9.73199220672397  7.72161111111111 9.7376507936508  C 7.96822222222222 9.7376507936508  8.13177777777778 9.81606349206349  8.29661111111111 9.97047619047619  L 11.1716111111111 12.6847619047619  Z " fill-rule="nonzero" fill="#6e6e6e" stroke="none" transform="matrix(1 0 0 1 531 341 )" />
  </g>
</svg>