<?xml version="1.0" encoding="utf-8"?>
<svg version="1.1" xmlns:xlink="http://www.w3.org/1999/xlink" width="13px" height="13px" xmlns="http://www.w3.org/2000/svg">
  <g transform="matrix(1 0 0 1 -340 -19 )">
    <path d="M 12.5050430961276 11.7500066793043  C 12.5050430961276 11.9986114045927  12.3042260505849 12.2005233033754  12.055625 12.201875  C 11.9360514660549 12.2018161478024  11.8213968284807 12.1542681951614  11.736875 12.0696875  L 0.87875 1.2115625  C 0.794212243863645 1.12702474386364  0.746719426993576 1.01236694126062  0.746719426993576 0.8928125  C 0.746719426993576 0.643853264008565  0.948540764008566 0.442031926993575  1.1975 0.442031926993575  C 1.31705444126062 0.442031926993575  1.43171224386365 0.489524743863645  1.51625 0.5740625  L 12.3753125 11.433125  C 12.4584508203656 11.5176440694266  12.5050430961276 11.6314509818033  12.5050430961276 11.7500066793043  Z M 1.51625 12.0696875  C 1.43178667946662 12.1543556448857  1.31709408558966 12.2019193382288  1.1975 12.201875  C 1.19681562788485 12.2018781224874  1.1961312495376 12.2018796837372  1.19544687029922 12.2018796837372  C 0.946918732875366 12.2018796837372  0.745446870299223 12.0004078211611  0.745446870299223 11.7518796837372  C 0.745446870299223 11.6317981525178  0.793440829017658 11.5166973780399  0.87875 11.4321875  L 11.7378125 0.5740625  C 11.8208296349855 0.498545706193062  11.9290227457269 0.456698370143301  12.0412485486783 0.456698370143301  C 12.2902944530551 0.456698370143301  12.4921860486783 0.658589965766478  12.4921860486783 0.907635870143301  C 12.4921860486783 1.02009060615504  12.4501681840388 1.12848746822306  12.374375 1.2115625  L 1.51625 12.0696875  Z " fill-rule="nonzero" fill="#dddddd" stroke="none" transform="matrix(1 0 0 1 340 19 )" />
  </g>
</svg>