<?xml version="1.0" encoding="utf-8"?>
<svg version="1.1" xmlns:xlink="http://www.w3.org/1999/xlink" width="43px" height="30px" xmlns="http://www.w3.org/2000/svg">
  <g transform="matrix(1 0 0 1 -6743 -234 )">
    <path d="M 7.05628570507812 23.6082857050781  L 1.51228570507813 17.9558571152344  C 1.0223887744366 17.4457416675467  0.748805486215767 16.7658974600774  0.748805486215767 16.0586374141102  C 0.748805486215767 14.5459294843236  1.97509755642922 13.3196374141102  3.48780548621577 13.3196374141102  C 4.1962186827693 13.3196374141102  4.87707912994372 13.594111293353  5.38742858984375 14.0854285898438  L 10.9267142949219 19.7331428847656  C 11.4180315713813 20.2434923413854  11.6925054380596 20.9243527742373  11.6925054380596 21.6327659545351  C 11.6925054380596 23.1454738843216  10.4662133678461 24.3717659545351  8.95350543805961 24.3717659545351  C 8.24624537681708 24.3717659545351  7.56640115588312 24.0981826545265  7.05628570507812 23.6082857050781  Z M 37.6614285898438 1.82357141015625  L 37.6708571152344 1.83300000000001  C 38.1911384527972 1.20038030823163  38.9672364972633 0.833807797135211  39.7863215628268 0.833807797135211  C 41.2990294926134 0.833807797135211  42.5253215628268 2.06009986734867  42.5253215628268 3.57280779713522  C 42.5253215628268 4.22629641258677  42.2916762792819 4.85825173417063  41.8665714101562 5.35457141015625  L 15.4241428847656 28.7657142949219  C 14.9037761258655 29.3732544101461  14.1438221314034 29.7229506819006  13.3438930374364 29.7229506819006  C 11.8311851076499 29.7229506819006  10.6048930374364 28.4966586116871  10.6048930374364 26.9839506819006  C 10.6048930374364 26.3492888320428  10.8252925420429 25.7343234541769  11.2284285898437 25.2441428847656  L 37.6614285898438 1.82357141015625  Z " fill-rule="nonzero" fill="#ffffff" stroke="none" transform="matrix(1 0 0 1 6743 234 )" />
  </g>
</svg>