<?xml version="1.0" encoding="utf-8"?>
<svg version="1.1" xmlns:xlink="http://www.w3.org/1999/xlink" width="7px" height="13px" xmlns="http://www.w3.org/2000/svg">
  <g transform="matrix(1 0 0 1 -7766 -522 )">
    <path d="M 6.76909722222222 5.9287109375  C 6.92303240740741 6.08951822916667  7 6.27994791666667  7 6.5  C 7 6.72005208333333  6.92303240740741 6.91048177083333  6.76909722222222 7.0712890625  L 1.32465277777778 12.7587890625  C 1.17071759259259 12.9195963541667  0.988425925925926 13  0.777777777777778 13  C 0.56712962962963 13  0.384837962962963 12.9195963541667  0.230902777777778 12.7587890625  C 0.0769675925925926 12.5979817708333  0 12.4075520833333  0 12.1875  L 0 0.8125  C 0 0.592447916666665  0.0769675925925926 0.402018229166665  0.230902777777778 0.2412109375  C 0.384837962962963 0.0804036458333324  0.56712962962963 0  0.777777777777778 0  C 0.988425925925926 0  1.17071759259259 0.0804036458333324  1.32465277777778 0.2412109375  L 6.76909722222222 5.9287109375  Z " fill-rule="nonzero" fill="#95ec69" stroke="none" transform="matrix(1 0 0 1 7766 522 )" />
  </g>
</svg>