<?xml version="1.0" encoding="utf-8"?>
<svg version="1.1" xmlns:xlink="http://www.w3.org/1999/xlink" width="10px" height="18px" xmlns="http://www.w3.org/2000/svg">
  <g transform="matrix(1 0 0 1 -1778 -314 )">
    <path d="M 9.67013888888889 0.333984375  C 9.8900462962963 0.556640624999997  10 0.820312499999997  10 1.125  L 10 16.875  C 10 17.1796875  9.8900462962963 17.443359375  9.67013888888889 17.666015625  C 9.45023148148148 17.888671875  9.18981481481481 18  8.88888888888889 18  C 8.58796296296296 18  8.3275462962963 17.888671875  8.10763888888889 17.666015625  L 0.329861111111111 9.791015625  C 0.109953703703704 9.568359375  0 9.3046875  0 9  C 0 8.6953125  0.109953703703704 8.431640625  0.329861111111111 8.208984375  L 8.10763888888889 0.333984375  C 8.3275462962963 0.111328124999999  8.58796296296296 0  8.88888888888889 0  C 9.18981481481481 0  9.45023148148148 0.111328124999999  9.67013888888889 0.333984375  Z " fill-rule="nonzero" fill="#1890ff" stroke="none" transform="matrix(1 0 0 1 1778 314 )" />
  </g>
</svg>