<?xml version="1.0" encoding="utf-8"?>
<svg version="1.1" xmlns:xlink="http://www.w3.org/1999/xlink" width="123px" height="80px" xmlns="http://www.w3.org/2000/svg">
  <g transform="matrix(1 0 0 1 -4907 -324 )">
    <path d="M 114.261204946289 54.2431109997234  C 103.830779321992 61.11635233557  91.6338211232644 64.7699799563552  79.1696391466239 64.7548723727876  C 43.8061425714262 64.7554031906383  15.0841045774537 35.9825919017698  14.8910449344308 1  L 1.52892020089286E-05 1  C 1.52892020089286E-05 0.362649872096209  1.52892020154587E-05 0.362649872096229  1.52892020154587E-05 0.362649872096229  C 1.52892020154587E-05 44.3366562954387  35.3908162090743 79.9846318964325  79.047581586077 79.9846318964325  C 80.2681578092913 79.9846318964325  81.4887340325056 79.9846318964325  82.6940530220424 79.8924234305863  L 83.7467999836774 79.8924234305863  C 84.6520606619699 79.8411965224004  85.5573213402623 79.7694788613108  86.4625820185547 79.6772704473175  L 87.5000717465123 79.5082216191925  C 88.6748762686942 79.3852771017699  89.834423711635 79.2315963772124  90.9939711545759 79.0625475490874  L 91.6195164998605 78.9549711352323  C 92.5756345207868 78.8012904106748  93.526666797154 78.6322415825498  94.472613328962 78.4478246508573  L 95.6169035382254 78.2019356160121  L 98.10382753125 77.6179487693584  L 99.0955457126116 77.3720595789546  C 100.173721397042 77.0851889345962  101.246811285435 76.777827537334  102.31481537779 76.4499753871681  L 103.337048026507 76.1118777309181  L 105.595113977679 75.3434741081305  L 106.846204513811 74.8824319344579  L 109.027984605469 74.0218198458241  L 110.050217099749 73.6068819828539  C 111.067363952427 73.1868213149889  112.028567717913 72.7462698942201  112.933828396205 72.2852277205475  L 114.15440461942 71.6705048223174  L 115.970011720564 70.7330525269634  L 117.251616724051 70.0414892664546  L 119.219795853097 68.9042519358407  L 120.745516132115 68.0129036400719  L 122.500094298549 66.8756663094579  L 114.261204946289 54.2431109997234  Z " fill-rule="nonzero" fill="#1890ff" stroke="none" transform="matrix(1 0 0 1 4907 324 )" />
  </g>
</svg>