<?xml version="1.0" encoding="utf-8"?>
<svg version="1.1" xmlns:xlink="http://www.w3.org/1999/xlink" width="122px" height="80px" xmlns="http://www.w3.org/2000/svg">
  <g transform="matrix(1 0 0 1 -4907 -246 )">
    <path d="M 14.8548644682783 79  C 14.8548644682783 79.5317407529037  14.8396443047883 79.4241641834901  14.8396443047883 79.3012196660675  C 14.8396360479315 79.2878074344465  14.8396319195028 79.2743952004712  14.8396319195028 79.2609829662591  C 14.8396319195028 43.5114143778282  43.5414019610939 14.5306629648763  78.9468295875387 14.5306629648763  C 91.3031458057566 14.5306629648763  103.396181226243 18.1362953813744  113.770505015827 24.9136122096239  L 121.578433017915 12.711362866427  C 108.839035876582 4.41341354451738  94.0003959055136 6.36666771572738E-05  78.8402868000736 6.36666771572738E-05  C 35.297999233785 6.36666771572738E-05  0 35.6411587333376  0 79.6066775874459  C 0 79.6226801495301  0 79.6386827111521  1.52520540660621E-05 79  L 14.8548644682783 79  Z " fill-rule="nonzero" fill="#1890ff" stroke="none" transform="matrix(1 0 0 1 4907 246 )" />
  </g>
</svg>