<?xml version="1.0" encoding="utf-8"?>
<svg version="1.1" xmlns:xlink="http://www.w3.org/1999/xlink" width="24px" height="11px" xmlns="http://www.w3.org/2000/svg">
  <g transform="matrix(1 0 0 1 -5005 -390 )">
    <path d="M 0.663696077008919 10.4955997634888  C 1.72549809709822 10.2468691116333  2.77241511160715 9.94839232940672  3.80444712053572 9.60016941680907  C 2.81210872767856 9.9185446914673  1.76519171316963 10.2170214736939  0.663696077008919 10.4955997634888  Z M 15.3850359542411 5.00362703094483  L 17.1563599553571 4.0932728149414  L 15.3850359542411 5.00362703094483  Z M 4.80174711495535 9.31661650390626  L 7.00473828683036 8.57042454833984  L 4.80174711495535 9.31661650390626  Z M 21.7707333314732 1.45175338287353  L 23.4825170591518 0.347389318847645  L 21.7707333314732 1.45175338287353  Z M 11.3660654631697 6.88403063812256  C 12.3087869363839 6.476112348938  13.2465467075893 6.04829566802979  14.1793447767857 5.60058059539795  C 13.2465467075893 6.0482957687378  12.3087869363839 6.47611244964601  11.3660654631697 6.88403063812256  Z M 8.22531457031248 8.122709375  L 10.3538803627232 7.28697435455323  L 8.22531457031248 8.122709375  Z M 18.4067063002232 3.42170005493163  L 20.3268810602679 2.31733599090577  L 18.4067063002232 3.42170005493163  Z " fill-rule="nonzero" fill="#9cc939" stroke="none" transform="matrix(1 0 0 1 5005 390 )" />
  </g>
</svg>