<?xml version="1.0" encoding="utf-8"?>
<svg version="1.1" xmlns:xlink="http://www.w3.org/1999/xlink" width="13px" height="13px" xmlns="http://www.w3.org/2000/svg">
  <g transform="matrix(1 0 0 1 -5015 -279 )">
    <path d="M 12.4391447617187 6.49141780761719  C 12.4391447617187 3.20656892675781  9.77623820703125 0.543662390625  6.49138934472656 0.543662390625  C 3.20652148242187 0.543662390625  0.543633927734375 3.2065689453125  0.543633927734375 6.49141780761719  C 0.543633927734375 9.77626666992188  3.20652148242188 12.4391542431641  6.49138934472656 12.4391542431641  C 9.77623822558594 12.4391542431641  12.4391447617187 9.77626668847656  12.4391447617187 6.49141780761719  Z M 6.96405486816406 9.510332984375  L 6.96405486816406 10.7216167353516  L 5.81214387207031 10.7216167353516  L 5.81214387207031 9.510332984375  L 6.96405486816406 9.510332984375  Z M 9.03032893359375 4.41587805078125  C 9.03030995214844 4.73260229882812  8.96890558886719 5.01964967871094  8.84626773242188 5.27683030175781  C 8.72342102441406 5.53420081347656  8.46217714746094 5.85483640820312  8.06251712011719 6.23873712304687  C 7.66264822265625 6.62282770800781  7.39749299902344 6.89595753222656  7.26686157910156 7.05812657714844  C 7.136230140625 7.2205044921875  7.03717430859375 7.41440103222656  6.96997886035156 7.64000606738281  C 6.9026315234375 7.86564908398438  6.87295463671875 8.16845577636719  6.88094821875 8.54848312597656  L 5.83591574804688 8.54848312597656  C 5.83591574804688 8.10520965625  5.87153558984375 7.750985828125  5.94279429199219 7.48562175292969  C 6.01403399414063 7.22050451074219  6.12091251953125 6.9888995390625  6.26342990527344 6.7909587265625  C 6.40594727246094 6.59315083984375  6.66308993261719 6.30223007617188  7.03529458886719 5.91812050976563  C 7.40734733789063 5.53421979492188  7.64686994726562 5.25514699707031  7.75374847265625 5.08090213476563  C 7.86064599804687 4.90686612402344  7.91405677929688 4.64746400390625  7.91405677929688 4.30307549609375  C 7.91405677929688 3.95870596972656  7.79121007128906 3.6540385390625  7.54591537695312 3.3886934453125  C 7.30044979394531 3.12353822167969  6.94419433886719 2.99087517480469  6.47718697460937 2.99087517480469  C 5.424160921875 2.99087517480469  4.89776182128906 3.61634910742187  4.89776182128906 4.86714506542969  L 3.85272935058594 4.86714506542969  C 3.86850764453125 4.29713254101562  3.935836 3.86367541015625  4.05461947265625 3.56681169140625  C 4.17334598242187 3.26992897265625  4.36336913867187 3.00477374902344  4.62463199707031 2.77115615039062  C 4.88585689257812 2.537728421875  5.17683460058594 2.36555314941406  5.49747021386719 2.25459238867188  C 5.81808682714844 2.14382149804688  6.15653236132812 2.08834110839844  6.51278783496094 2.08834110839844  C 7.23312145703125 2.08834110839844  7.83279186816406 2.30023743945313  8.31187504980469 2.72366936132813  C 8.79080634277343 3.14729115332031  9.03032893359375 3.71136070410156  9.03032893359375 4.41587805078125  Z " fill-rule="nonzero" fill="#1890ff" stroke="none" transform="matrix(1 0 0 1 5015 279 )" />
  </g>
</svg>