<?xml version="1.0" encoding="utf-8"?>
<svg version="1.1" xmlns:xlink="http://www.w3.org/1999/xlink" width="50px" height="50px" xmlns="http://www.w3.org/2000/svg">
  <g transform="matrix(1 0 0 1 -3968 -2426 )">
    <path d="M 50 25  C 50 11.1928812542302  38.8071187457702 0  25 0  C 11.1928812542302 0  0 11.1928812542302  0 25  C 0 38.8071187457698  11.1928812542302 50  25 50  C 38.8071187457702 50  50 38.8071187457698  50 25  Z M 45.0000000000003 25  C 45.0000000000003 31.1971764122143  42.1813996089979 36.7360334294079  37.7562223742812 40.4045475042936  C 34.2940724152278 43.2747027953652  29.8485185844011 44.9999999999999  25 44.9999999999999  C 19.215928487549 44.9999999999999  14.0053342850929 42.5446517565648  10.3536579701203 38.6193958471827  C 7.03182043507821 35.0486898782639  5.00000000000008 30.2616234841648  5.00000000000008 25  C 5.00000000000008 13.9543050033842  13.9543050033842 5.00000000000008  25 5.00000000000008  C 36.0456949966158 5.00000000000008  45.0000000000003 13.9543050033842  45.0000000000003 25  Z M 34.375 25.4374999999999  C 34.375 27.4050144212723  35.9699855787278 29.0000000000002  37.9374999999999 29.0000000000002  C 39.9050144212719 29.0000000000002  41.4999999999997 27.4050144212723  41.4999999999997 25.4374999999999  C 41.4999999999997 23.4699855787278  39.9050144212719 21.875  37.9374999999999 21.875  C 35.9699855787278 21.875  34.375 23.4699855787278  34.375 25.4374999999999  Z M 29.0000000000002 25.4687499999999  C 29.0143269591732 24.1818008765298  28.3333957324279 22.9871846892576  27.2187499999998 22.3437499999999  C 26.677234050963 22.03115727546  26.0629836665796 21.8665929314553  25.437720734289 21.8665929314553  C 23.470206313017 21.8665929314553  21.8752207342892 23.4615785101832  21.8752207342892 25.4290929314552  C 21.8752207342892 27.3966073527276  23.470206313017 28.9915929314551  25.437720734289 28.9915929314551  C 27.3897655798607 28.9915929314551  28.9782702101775 27.4206738958928  29.0000000000002 25.4687499999999  Z M 16.5000000000001 25.4687499999999  C 16.5143269591732 24.1818008765298  15.8333957324279 22.9871846892576  14.7187499999998 22.3437499999999  C 14.177234050963 22.03115727546  13.5629836665796 21.8665929314553  12.937720734289 21.8665929314553  C 10.970206313017 21.8665929314553  9.37522073428917 23.4615785101832  9.37522073428917 25.4290929314552  C 9.37522073428917 27.3966073527276  10.970206313017 28.9915929314551  12.937720734289 28.9915929314551  C 14.8897655798603 28.9915929314551  16.4782702101775 27.4206738958928  16.5000000000001 25.4687499999999  Z " fill-rule="nonzero" fill="#f4f4f4" stroke="none" transform="matrix(1 0 0 1 3968 2426 )" />
  </g>
</svg>