<?xml version="1.0" encoding="utf-8"?>
<svg version="1.1" xmlns:xlink="http://www.w3.org/1999/xlink" width="24px" height="28px" xmlns="http://www.w3.org/2000/svg">
  <g transform="matrix(1 0 0 1 -3981 -2568 )">
    <path d="M 21.8209104733456 12.3042347763672  L 16.7254833860294 12.3042347763672  C 16.2627506892204 12.3042347763672  15.8876317217371 11.9322418002796  15.8876317217371 11.4733652092773  C 15.8876317217371 11.0144886182751  16.2627506892204 10.6424956421875  16.7254833860294 10.6424956421875  L 21.8209104733456 10.6424956421875  C 22.9616777329963 10.6424956421875  23.8858925680147 11.5602869552734  23.8858925969669 12.6915478210937  L 23.8858925969669 24.8657043578125  C 23.8858925969669 25.9969652236328  22.9616777619485 26.9134782683594  21.8209104733456 27  L 2.17908952665441 27  C 2.17908970107184 26.9134782683594  2.17908932328477 26.9134782683594  2.17908949770221 26.9134782683594  C 1.0386313781428 26.9134782683594  0.114107403033089 25.9966586597089  0.114107403033089 24.8657043578125  L 0.114107403033088 12.6915478210937  C 0.114107403033088 11.5602869552734  1.03832223805147 10.6424956421875  2.17908952665441 10.6424956421875  L 7.39310484926471 10.6424956421875  C 7.85583754607368 10.6424956421875  8.23095651355699 11.0144886182751  8.23095651355699 11.4733652092773  C 8.23095651355699 11.9322418002796  7.85583754607368 12.3042347763672  7.39310484926471 12.3042347763672  L 2.17908952665441 12.3042347763672  C 1.96409463761965 12.3042347763612  1.78980859747654 12.4770684328365  1.78980859747654 12.6902695527284  C 1.78980859747654 12.6906956430595  1.78980930885788 12.6911217330986  2 12.6915478210938  L 2 24.8657043578125  C 1.78981073161765 25.0791739105469  1.96382608318015 25.2517391341797  2.17908952665441 25  L 21.8209104733456 25  C 21.8209104919408 25.2517391341797  21.8209104837026 25.2517391341797  21.8209105022978 25.2517391341797  C 22.0359032282392 25.2517391341797  22.2101892683824 25.0789054777044  22.2101892683824 24.8657043578125  C 22.2101892683824 24.8657043578125  22.2101892683824 24.8657043578125  22 24.8657043578125  L 22 12.6915478210937  C 22.2101906911421 12.6911217330986  22.2101914025235 12.6906956430595  22.2101914025235 12.6902695527284  C 22.2101914025235 12.4770684328365  22.0359053623804 12.3042347763612  21.8209126364389 12.3042347763612  Z M 11.1453913056066 20.2639652236328  L 11.1453913056066 2.95247826835938  C 11.1453913056066 2.49360167735714  11.5205102730899 2.12160870126953  11.9832429698989 2.12160870126953  C 12.4459756667079 2.12160870126953  12.8210946341912 2.49360167735714  12.8210946341912 2.95247826835938  L 12.8210946341912 20.2639652236328  C 12.8210946341912 20.722841814635  12.4459756667079 21.0948347907227  11.9832429698989 21.0948347907227  C 11.5205102730899 21.0948347907227  11.1453913056066 20.722841814635  11.1453913056066 20.2639652236328  Z M 12 2.31718259746094  L 12 2.31973913417969  L 7.38408183639706 6.89591304472656  C 7.22688338237084 7.05197114099532  7.01357383250095 7.1396579403453  6.79114065992647 7.1396579403453  C 6.32827642039105 7.1396579403453  5.95305081645852 6.76755921644555  5.95305081645852 6.30855217890625  C 5.95305081645852 6.08828582777114  6.04122424317329 5.87702781486062  6.19819948345588 5.72119131308594  L 11.4070588235294 0.557017402539061  C 11.564226204255 0.40090130532127  11.7775473986109 0.313174436648095  12 0.313174436648095  C 12.2224526013891 0.313174436648095  12.435773795745 0.40090130532127  12.5929411764706 0.557017402539061  L 17.8005115064338 5.72119131308594  C 17.9578810152763 5.87707977999527  18.0463046784863 6.08861175028292  18.0463046784863 6.30919131308594  C 18.0463046784863 6.76819835062523  17.6710790745538 7.14029707452499  17.2082148350184 7.14029707452499  C 16.9860975061426 7.14029707452499  16.7730642158127 7.05285842636618  16.6159181636029 6.89719131308594  L 12 2.31718259746094  Z " fill-rule="nonzero" fill="#ffffff" stroke="none" transform="matrix(1 0 0 1 3981 2568 )" />
  </g>
</svg>