<?xml version="1.0" encoding="utf-8"?>
<svg version="1.1" xmlns:xlink="http://www.w3.org/1999/xlink" width="7px" height="12px" xmlns="http://www.w3.org/2000/svg">
  <g transform="matrix(1 0 0 1 -116 -504 )">
    <path d="M 6.76909722222222 0.22265625  C 6.92303240740741 0.371093749999998  7 0.546874999999998  7 0.75  L 7 11.25  C 7 11.453125  6.92303240740741 11.62890625  6.76909722222222 11.77734375  C 6.61516203703704 11.92578125  6.43287037037037 12  6.22222222222222 12  C 6.01157407407407 12  5.82928240740741 11.92578125  5.67534722222222 11.77734375  L 0.230902777777778 6.52734375  C 0.0769675925925927 6.37890625  0 6.203125  0 6  C 0 5.796875  0.0769675925925927 5.62109375  0.230902777777778 5.47265625  L 5.67534722222222 0.22265625  C 5.82928240740741 0.0742187499999991  6.01157407407407 0  6.22222222222222 0  C 6.43287037037037 0  6.61516203703704 0.0742187499999991  6.76909722222222 0.22265625  Z " fill-rule="nonzero" fill="#ff9047" stroke="none" transform="matrix(1 0 0 1 116 504 )" />
  </g>
</svg>