<?xml version="1.0" encoding="utf-8"?>
<svg version="1.1" xmlns:xlink="http://www.w3.org/1999/xlink" width="6px" height="6px" xmlns="http://www.w3.org/2000/svg">
  <g transform="matrix(1 0 0 1 -127 -513 )">
    <path d="M 1.92083994755778 1.97673354930668  C 2.34749955317927 1.49122429636477  2.1635945742411 0.17446442603373  2.58289799762648 0.174464474453465  C 2.58289799762648 0.174464474453465  2.7226657892817 0.159752062835729  2.79622780064959 0.248026437401624  C 2.86978981159275 0.343657042198625  2.96542041638976 1.63834831867583  3.30380564702061 1.99144596134916  C 3.6421908780762 2.34454360444722  5.01780034730793 2.14592616504684  5.01780034730793 2.60936682413492  C 5.01780034730793 2.97717683043098  3.74517766425984 3.02131406613366  3.31116182840725 3.37441166038726  C 2.87714599297939 3.72750930348532  3.12725680104935 5.22817420074953  2.59761040924423 5.16932460184884  C 2.18566316724548 5.1251874145659  2.47255498121175 3.93348292427233  1.96497713484073 3.45532985356652  C 1.45739928846971 2.97717683085572  0.221557610893194 3.07280743522798  0.221557658888198 2.63879159937539  C 0.221557658888198 2.20477576394753  1.48682416012493 2.46959898363523  1.92083994755778 1.97673354930668  Z " fill-rule="nonzero" fill="#ffbb5a" stroke="none" transform="matrix(1 0 0 1 127 513 )" />
  </g>
</svg>