<?xml version="1.0" encoding="utf-8"?>
<svg version="1.1" xmlns:xlink="http://www.w3.org/1999/xlink" width="4px" height="5px" xmlns="http://www.w3.org/2000/svg">
  <g transform="matrix(1 0 0 1 -174 -502 )">
    <path d="M 1.47823282683323 1.93507664429731  C 1.77248082218614 1.60404759505309  1.64742544257339 0.713947378763272  1.92696107387883 0.713947378763272  C 1.92696107387883 0.713947378763272  2.02259167867583 0.706591196951905  2.07408504777015 0.765440747857589  C 2.12557846485947 0.824290347183011  2.19178424599625 1.69967819985009  2.41982650905685 1.94243282610868  C 2.64786872369769 2.185187452792  3.57474999387883 2.04541961229232  3.57474994503436 2.3617362499188  C 3.57474994503436 2.61184705798876  2.71407450398502 2.6412718820737  2.41982650905685 2.87667032652092  C 2.12557851370394 3.11942495320425  2.29477108102436 4.12722441613991  1.93431725611493 4.0904434102436  C 1.65478162396003 4.06101858658339  1.85339906336041 3.25919274443473  1.50765765049344 2.93551992542161  C 1.16191623762649 2.61184710640849  0.330665571817619 2.67805288712055  0.330665572242346 2.38380489176764  C 0.33066557266708 2.08955689641474  1.18398483148032 2.26610569354154  1.47823282683323 1.93507664429731  Z " fill-rule="nonzero" fill="#e94151" stroke="none" transform="matrix(1 0 0 1 174 502 )" />
  </g>
</svg>