<?xml version="1.0" encoding="utf-8"?>
<svg version="1.1" xmlns:xlink="http://www.w3.org/1999/xlink" width="43px" height="17px" xmlns="http://www.w3.org/2000/svg">
  <g transform="matrix(1 0 0 1 -135 -501 )">
    <path d="M 1.76254966620862 0.257419668357276  C 0.953367594253592 0.257419668357276  0.306021955802624 0.912121488194877  0.306021956227358 1.71394737876327  C 0.306021956227358 2.5157732204872  0.96072377606496 3.17047508916927  1.76254966620862 3.17047504074953  C 2.56437555635228 3.17047499232979  3.21907737661462 2.51577322091193  3.21907737703935 1.71394737876327  C 3.21907737746409 0.912121536614615  2.56437550878201 0.257419668357276  1.76254966620862 0.257419668357276  Z M 40.9490296677327 13.2337573064834  C 40.1545600073954 13.2411134882948  39.5145705507558 13.8811029449344  39.5145705507558 14.675572604847  C 39.5145705507558 15.4700422651843  40.1619161892067 16.1100317218239  40.9490296677327 16.1100317218239  C 41.74349932807 16.1100317218239  42.3908449660962 15.4626860833729  42.3908449665209 14.675572604847  C 42.3908449665209 13.8811029445097  41.74349932807 13.2337573064834  40.9490296677327 13.2337573064834  Z " fill-rule="nonzero" fill="#ffeb00" stroke="none" transform="matrix(1 0 0 1 135 501 )" />
  </g>
</svg>