<?xml version="1.0" encoding="utf-8"?>
<svg version="1.1" xmlns:xlink="http://www.w3.org/1999/xlink" width="31px" height="15px" xmlns="http://www.w3.org/2000/svg">
  <g transform="matrix(1 0 0 1 -137 -509 )">
    <path d="M 30.2907816953154 8.52933514520925  C 30.1951510905184 8.37485494151155  30.0186022933916 8.26451192509681  29.8199848539913 8.26451192552155  L 28.1501273405621 8.26451192552155  L 28.1501273405621 7.10223225888819  L 29.8199848539913 7.10223225888819  C 30.1289452613866 7.10223225888819  30.3716998876452 6.85212145081824  30.3716998876452 6.5505172248095  C 30.3716998876452 6.24155681741412  30.1215890795753 5.99880219115553  29.8199848539913 5.99880219115553  L 28.8636788085696 5.99880219115553  L 29.4742434411243 4.94686549294191  C 29.6213674630106 4.68204227282948  29.5257368582136 4.351013272005  29.2682698199125 4.20388924969394  C 29.0108027816115 4.05676522738289  28.6724175989756 4.13768346898189  28.5179373472829 4.39515045928795  L 27.5910561255215 5.97673354930668  L 26.6788872669581 4.38779427705184  C 26.5244070632605 4.13032723875078  26.1860218322049 4.04205286418488  25.9285547943285 4.19653306830731  C 25.6710877560275 4.34365709019363  25.5754571512305 4.67468609101811  25.7225811731168 4.93950931113054  L 26.3257896242848 5.99144596134916  L 25.3694835784385 5.99144596134916  C 25.0605231710431 5.99144596134916  24.8177685447845 6.24155676941911  24.8177685447845 6.54316099500312  C 24.8177685447845 6.8521214023985  25.0678793528545 7.09487602865709  25.3694835784385 7.09487602865709  L 27.0393410914428 7.09487602865709  L 27.0393410914428 8.25715574371018  L 25.3694835784385 8.25715574371018  C 25.0605231710431 8.25715574371018  24.8177685447845 8.50726655178014  24.8177685447845 8.80887077736415  C 24.8177685447845 9.11783118475952  25.0678793528545 9.36058581101811  25.3694835784385 9.36058581101811  L 27.0393410914428 9.36058581101811  L 27.0393410914428 10.3757414557651  C 27.0393410914428 10.6847018631605  27.2894518995128 10.9274564894191  27.5910561255215 10.9274564894191  C 27.9000165329169 10.9274564894191  28.1427711591755 10.6773456813492  28.1427711591755 10.3757414557651  L 28.1427711591755 9.36058581101811  L 29.8126286721799 9.36058581101811  C 30.0112460631605 9.36058581101811  30.1951510905184 9.25759902483448  30.2907816953154 9.08105017928795  C 30.3864123001124 8.91185756354778  30.3864123001124 8.69852776094941  30.2907816953154 8.52933514520925  Z M 7.41299817653966 0.834749448444718  C 3.72018550743286 0.834749496864458  0.718855712054967 3.82872306201124  0.718855712054967 7.52889186450968  C 0.718855712054967 11.2290607154279  3.72018550700812 14.2230343289944  7.41299817653966 14.2230343285696  C 11.1131670274578 14.2230343285696  14.1071406410244 11.2217045336165  14.1071406405996 7.52889186450968  C 14.1071406401749 3.83607919540287  11.1058108456465 0.834749400024982  7.41299817653966 0.834749448444718  Z " fill-rule="nonzero" fill="#f4ad51" stroke="none" transform="matrix(1 0 0 1 137 509 )" />
  </g>
</svg>