<?xml version="1.0" encoding="utf-8"?>
<svg version="1.1" xmlns:xlink="http://www.w3.org/1999/xlink" width="9px" height="11px" xmlns="http://www.w3.org/2000/svg">
  <g transform="matrix(1 0 0 1 -150 -508 )">
    <path d="M 8.34564190850719 7.14592616462211  C 8.21323029823861 6.90317153793879  7.94840707855091 6.75604751605247  7.66887144682074 6.75604756489694  L 5.29281869603997 6.75604756489694  L 5.29281869603997 5.10090246351031  L 7.66887144682074 5.10090246351031  C 8.1028872822486 5.10090246351031  8.45598487692692 4.74780482041224  8.45598492492192 4.31378898540912  C 8.45598492492192 3.87977314998126  8.10288728182386 3.52667555530294  7.66887144682074 3.52667555530294  L 6.30797434078701 3.52667555530294  L 7.16864983025609 2.03336683900062  C 7.36726722123673 1.65820060247345  7.23485561096815 1.19475999180512  6.86704560424735 0.981430189206748  C 6.49923559795128 0.768100386608371  6.02843875705184 0.885799584409742  5.80775272422237 1.24625340889444  L 4.50570526593379 3.50460696144909  L 3.20365775922549 1.24625340889444  C 3.06388996757027 1.00349878221112  2.80642292926921 0.849018578938164  2.51953111572767 0.849018578938164  C 2.23999548357278 0.849018578938164  1.97517226388508 0.996142600824484  1.83540447180513 1.24625340889444  C 1.69563668014991 1.48900803557776  1.69563668014991 1.79061226073704  1.83540447180513 2.03336683900062  L 2.69607991285447 3.52667555530293  L 1.33518285524048 3.52667555530293  C 0.901167019812625 3.52667555530293  0.548069425134301 3.879773198401  0.548069376714565 4.31378898540912  C 0.548069376714565 4.74780482083698  0.901167019812625 5.1009024155153  1.33518285524048 5.1009024635103  L 3.71123560602125 5.1009024635103  L 3.71123560602125 6.75604756489694  L 1.33518285524048 6.75604756489694  C 0.901167019812625 6.75604756489694  0.548069425134301 7.109145207995  0.548069376714565 7.54316099500312  C 0.548069376714565 7.97717683043098  0.901167019812625 8.33027442510931  1.33518285524048 8.33027447352904  L 3.71123560602125 8.33027447352904  L 3.71123560602125 9.77208977189257  C 3.71123560602125 10.2061056073204  4.06433324911931 10.5592032019987  4.49834903612743 10.5592032019987  C 4.93236487155529 10.5592032019987  5.28546246623362 10.2061055589007  5.28546251422862 9.77208977189257  L 5.28546251422862 8.33027447352904  L 7.66151526458464 8.33027447352904  C 7.94105089673955 8.33027447352904  8.20587411642725 8.18315045164272  8.34564190850719 7.93303964314804  C 8.48540970016241 7.69028501646471  8.48540970016241 7.38868079130543  8.34564190850719 7.14592616462211  Z " fill-rule="nonzero" fill="#ffbb5a" stroke="none" transform="matrix(1 0 0 1 150 508 )" />
  </g>
</svg>