<?xml version="1.0" encoding="utf-8"?>
<svg version="1.1" xmlns:xlink="http://www.w3.org/1999/xlink" width="19px" height="20px" xmlns="http://www.w3.org/2000/svg">
  <g transform="matrix(1 0 0 1 -145 -524 )">
    <path d="M 7.43125669231731 15.5390869927046  L 7.42390051093066 15.5390869927046  L 2.76006938435977 15.5390869927046  L 2.76006938435977 13.4572822381262  L 7.42390051093066 13.4572822381262  L 7.42390051093066 12.0081107575266  L 2.76006938435977 12.0081107575266  L 2.76006938435977 9.92630600252343  L 6.53380024579638 9.92630600252343  L 0.928375485846345 0.981166216139911  L 6.00415380599625 0.981166216139911  L 7.84320393474079 5.04178889154279  C 8.76272897511555 7.05003163560275  8.97605882570893 7.57967807582762  9.55719863460337 8.85965694068707  L 9.70432265648969 8.85965694068707  C 10.3075311076577 7.57967807582762  10.5723543277701 6.94704480099938  11.4183173572017 5.04178889154279  L 13.2058740684322 0.981166216139911  L 18.1860218326296 0.981166216139911  L 12.5805970234104 9.92630600252343  L 16.3543278856964 9.92630600252343  L 16.3543278856964 12.0081107575266  L 11.7346339948282 12.0081107575266  L 11.7346339948282 13.4572822381262  L 16.3543278856964 13.4572822381262  L 16.3543278856964 15.5390869927046  L 11.7346339948282 15.5390869927046  L 11.7346339948282 19.0700632283073  L 7.43125669231731 19.0700632283073  L 7.43125669231731 15.5390869927046  Z " fill-rule="nonzero" fill="#ffffff" stroke="none" transform="matrix(1 0 0 1 145 524 )" />
  </g>
</svg>