<?xml version="1.0" encoding="utf-8"?>
<svg version="1.1" xmlns:xlink="http://www.w3.org/1999/xlink" width="24px" height="26px" xmlns="http://www.w3.org/2000/svg">
  <g transform="matrix(1 0 0 1 -597 -357 )">
    <path d="M 5.149609375 6.5583984375  C 5.149609375 3.001171875  8.0822265625 0.116796875  11.700390625 0.116796875  C 15.3185546875 0.116796875  18.251171875 3.001171875  18.251171875 6.5583984375  C 18.251171875 10.115625  15.316015625 13  11.700390625 13  C 8.084765625 13  5.149609375 10.115625  5.149609375 6.5583984375  Z M 5.149609375 6.5583984375  C 5.149609375 3.001171875  8.0822265625 0.116796875  11.700390625 0.116796875  C 15.3185546875 0.116796875  18.251171875 3.001171875  18.251171875 6.5583984375  C 18.251171875 10.115625  15.316015625 13  11.700390625 13  C 8.084765625 13  5.149609375 10.115625  5.149609375 6.5583984375  Z M 0.782421874999997 23.4685546875  C 0.782421874999997 18.8728515625  4.570703125 15.148046875  9.242578125 15.148046875  L 14.7015625 15.148046875  C 19.3734375 15.148046875  23.16171875 18.8728515625  23.16171875 23.4685546875  L 23.16171875 24.004296875  C 23.16171875 25.8146484375  19.3734375 25.883203125  14.7015625 25.883203125  L 9.242578125 25.883203125  C 4.570703125 25.883203125  0.782421874999997 25.8806640625  0.782421874999997 24.004296875  L 0.782421874999997 23.4685546875  Z " fill-rule="nonzero" fill="#6e6e6e" stroke="none" transform="matrix(1 0 0 1 597 357 )" />
  </g>
</svg>