<?xml version="1.0" encoding="utf-8"?>
<svg version="1.1" xmlns:xlink="http://www.w3.org/1999/xlink" width="27px" height="27px" xmlns="http://www.w3.org/2000/svg">
  <g transform="matrix(1 0 0 1 -3054 -357 )">
    <path d="M 0.84375 13.5  C 0.84375 6.510375  6.510375 0.84375  13.5 0.84375  C 20.489625 0.84375  26.15625 6.510375  26.15625 13.5  C 26.15625 20.489625  20.489625 26.15625  13.5 26.15625  C 6.510375 26.15625  0.84375 20.489625  0.84375 13.5  Z M 16.8665625 13.51603125  C 16.8652026616499 13.3939672587716  16.8052371512242 13.2800013934076  16.70540625 13.20975  L 10.83965625 7.7439375  C 10.7588702499028 7.66992172126648  10.6530630682957 7.6292266514176  10.5435 7.63003125  C 10.3123125 7.63003125  10.125 7.8046875  10.125 8.01984375  C 10.125 8.127  10.17140625 8.224875  10.2481875 8.29575  L 15.85321875 13.5185625  L 10.2481875 18.741375  C 10.1706834391306 18.8119586773252  10.1260522321186 18.9116146601055  10.125 19.0164375  C 10.125 19.2324375  10.3123125 19.40625  10.5435 19.40625  C 10.65825 19.40625  10.762875 19.362375  10.8388125 19.2915  L 16.756875 13.77675  C 16.824375 13.70925  16.8665625 13.6164375  16.8665625 13.5151875  Z " fill-rule="nonzero" fill="#ffffff" stroke="none" transform="matrix(1 0 0 1 3054 357 )" />
  </g>
</svg>