<?xml version="1.0" encoding="utf-8"?>
<svg version="1.1" xmlns:xlink="http://www.w3.org/1999/xlink" width="42px" height="18px" xmlns="http://www.w3.org/2000/svg">
  <g transform="matrix(1 0 0 1 -2999 -459 )">
    <path d="M 40.7786505505762 2.41810084507042  L 40.7675329748186 2.42032437046521  C 41.1870034589807 1.81670144281789  41.0610081531403 0.990406617076864  40.4806997865984 0.539232232180964  C 39.8484731560224 0.0798061435191695  38.9666410171506 0.199343383727856  38.4795379257362 0.810500827998291  C 38.4061619974392 0.877206231327357  30.4748905335041 9.68231836107554  21.0138420145113 9.68231836107554  C 11.8507442594964 9.68231836107554  3.54592257789159 0.810500827998291  3.47699366623986 0.746018950064018  C 2.93791152302161 0.205716378156252  2.08186490757428 0.148646603793095  1.47583182244985 0.612608160478016  C 1.17391163387557 0.860526408727146  0.998918092136464 1.23065061533548  0.998918092136464 1.62131576361933  C 0.998918092136464 1.94237819968543  1.11725538758965 2.25217674491328  1.33130345710627 2.49147679043961  C 2.72233507761535 3.98339087491437  4.25650903325148 5.33510239165039  5.91174058898848 6.52715318822023  L 2.26517898420828 10.0847742552283  C 2.01530473327733 10.3204506560234  1.8736693923432 10.6487334849321  1.8736693923432 10.9922163915956  C 1.8736693923432 11.3696849997668  2.04459494887781 11.7268516522719  2.33855492957746 11.9636428681178  C 2.53033672836472 12.2429221519889  2.85694765344801 12.3981683851466  3.19460749466496 12.3705457789159  C 3.56829317817469 12.3708640264652  3.92762353407509 12.2266538415509  4.19741193341869 11.9680899018353  L 8.13303023474178 8.13920022193768  C 10.1623314998776 9.46305836518171  12.3514550973539 10.5239988132478  14.6479238070849 11.2965889201878  L 13.1448289201878 16.0571306188647  C 13.1085545181453 16.1798816120776  13.0901341146394 16.3072140616365  13.0901341146394 16.4352126498252  C 13.0901341146394 17.0654170215542  13.5311234658989 17.6096660091515  14.1476333589415 17.7403300896287  L 14.5745478787879 17.7403300896287  C 15.2067490742954 17.7589062346253  15.7697212725666 17.3428762058896  15.937561451131 16.7330786171575  L 17.4406563551003 11.9614193597951  C 19.8065626889303 12.4055688850181  22.2344624071005 12.4055688850181  24.6003687409304 11.9614193597951  L 26.1034636448997 16.6641497055058  C 26.2862885428709 17.2625552412694  26.8385428142396 17.6713316886599  27.4642537089202 17.6714011779769  C 27.586958572559 17.6893068249308  27.7121321923158 17.6658367678476  27.8200158087921 17.6046957746479  C 28.4349451622133 17.4727296516295  28.874192715185 16.9292170742695  28.874192715185 16.3002868974426  C 28.874192715185 16.1735938377323  28.8561461360346 16.0475466754055  28.8205967392232 15.9259433376014  L 27.317501835254 11.2232129918907  C 29.6150521611487 10.4532721653297  31.8045034598231 9.3921728996179  33.8323954075971 8.06582429364063  L 37.6924142723005 11.821338028169  C 38.2520582922919 12.3566817176931  39.1339320960991 12.3566817176931  39.6935761160905 11.821338028169  C 39.9733828252419 11.5728007803812  40.1334933528424 11.2164308876907  40.1334933528424 10.8421815616737  C 40.1334933528424 10.5043753494331  40.0029646565146 10.1796342684414  39.7691755697823 9.93579887323943  L 36.1226139820743 6.37817780623133  C 37.8173837238192 5.23582942054255  39.3790993997764 3.90755070596371  40.7786505505762 2.41810084507042  Z " fill-rule="nonzero" fill="#ffffff" stroke="none" transform="matrix(1 0 0 1 2999 459 )" />
  </g>
</svg>