<?xml version="1.0" encoding="utf-8"?>
<svg version="1.1" xmlns:xlink="http://www.w3.org/1999/xlink" width="10px" height="12px" xmlns="http://www.w3.org/2000/svg">
  <g transform="matrix(1 0 0 1 -3286 -2295 )">
    <path d="M 5.93576388888889 8.73196022727273  L 9.51171875 8.73196022727273  L 9.51171875 6.80539772727273  L 5.93576388888889 6.80539772727273  L 5.93576388888889 4.49914772727273  L 9.51171875 4.49914772727273  L 9.51171875 2.57727272727273  L 8.53298611111111 2.57727272727273  L 9.07725694444444 0.42571022727273  L 7.05772569444445 0.42571022727273  L 6.51822916666667 2.57727272727273  L 3.68706597222223 2.57727272727273  L 3.07595486111111 0.42571022727273  L 1.046875 0.42571022727273  L 1.65321180555556 2.57727272727273  L 0.473958333333336 2.57727272727273  L 0.473958333333336 4.49914772727273  L 3.97829861111111 4.49914772727273  L 3.97829861111111 6.80539772727273  L 0.473958333333336 6.80539772727273  L 0.473958333333336 8.73196022727273  L 3.97829861111111 8.73196022727273  L 3.97829861111111 11.6335227272727  L 5.93576388888889 11.6335227272727  L 5.93576388888889 8.73196022727273  Z " fill-rule="nonzero" fill="#6e6e6e" stroke="none" transform="matrix(1 0 0 1 3286 2295 )" />
  </g>
</svg>