<?xml version="1.0" encoding="utf-8"?>
<svg version="1.1" xmlns:xlink="http://www.w3.org/1999/xlink" width="12px" height="14px" xmlns="http://www.w3.org/2000/svg">
  <g transform="matrix(1 0 0 1 -3271 -2391 )">
    <path d="M 7.12291666666667 10.1872869318182  L 11.4140625 10.1872869318182  L 11.4140625 7.93963068181818  L 7.12291666666667 7.93963068181818  L 7.12291666666667 5.24900568181818  L 11.4140625 5.24900568181818  L 11.4140625 3.00681818181818  L 10.2395833333333 3.00681818181818  L 10.8927083333333 0.496661931818185  L 8.46927083333333 0.496661931818185  L 7.82187500000001 3.00681818181818  L 4.42447916666667 3.00681818181818  L 3.69114583333334 0.496661931818185  L 1.25625 0.496661931818185  L 1.98385416666667 3.00681818181818  L 0.568750000000004 3.00681818181818  L 0.568750000000004 5.24900568181818  L 4.77395833333334 5.24900568181818  L 4.77395833333334 7.93963068181818  L 0.568750000000004 7.93963068181818  L 0.568750000000004 10.1872869318182  L 4.77395833333334 10.1872869318182  L 4.77395833333334 13.5724431818182  L 7.12291666666667 13.5724431818182  L 7.12291666666667 10.1872869318182  Z " fill-rule="nonzero" fill="#6e6e6e" stroke="none" transform="matrix(1 0 0 1 3271 2391 )" />
  </g>
</svg>