<?xml version="1.0" encoding="utf-8"?>
<svg version="1.1" xmlns:xlink="http://www.w3.org/1999/xlink" width="13px" height="15px" xmlns="http://www.w3.org/2000/svg">
  <g transform="matrix(1 0 0 1 -3585 -2531 )">
    <path d="M 7.71649305555556 10.9149502840909  L 12.365234375 10.9149502840909  L 12.365234375 8.50674715909091  L 7.71649305555556 8.50674715909091  L 7.71649305555556 5.62393465909091  L 12.365234375 5.62393465909091  L 12.365234375 3.22159090909091  L 11.0928819444444 3.22159090909091  L 11.8004340277778 0.532137784090912  L 9.17504340277778 0.532137784090912  L 8.47369791666667 3.22159090909091  L 4.79318576388889 3.22159090909091  L 3.99874131944445 0.532137784090912  L 1.3609375 0.532137784090912  L 2.14917534722223 3.22159090909091  L 0.616145833333338 3.22159090909091  L 0.616145833333338 5.62393465909091  L 5.17178819444445 5.62393465909091  L 5.17178819444445 8.50674715909091  L 0.616145833333338 8.50674715909091  L 0.616145833333338 10.9149502840909  L 5.17178819444445 10.9149502840909  L 5.17178819444445 14.5419034090909  L 7.71649305555556 14.5419034090909  L 7.71649305555556 10.9149502840909  Z " fill-rule="nonzero" fill="#6e6e6e" stroke="none" transform="matrix(1 0 0 1 3585 2531 )" />
  </g>
</svg>