<?xml version="1.0" encoding="utf-8"?>
<svg version="1.1" xmlns:xlink="http://www.w3.org/1999/xlink" width="95px" height="66px" xmlns="http://www.w3.org/2000/svg">
  <g transform="matrix(1 0 0 1 -3227 -2570 )">
    <path d="M 31.3941606884799 27.3068448261759  C 22.4050287293797 32.326323657805  14.1343711288344 39.2770441513292  6.2388075528289 49.3061596237219  C 10.9105316223586 23.2890745916837  22.9233800995228 13.6295852528971  37.1375817695978 9.75725967416496  C 54.9288455351057 4.8952546789366  70.4542356482618 8.38155064349012  85.4612743271984 1.44942074846625  C 94.5269561186094 -2.73785250306749  94.1540492760736 4.77824287661895  93.9922012038173 5.98772947102931  C 91.6989883531016 23.3885893224267  82.3183588888889 39.9627114846626  62.2645021158828 47.8298423353783  C 40.3931347743695 56.406699072938  18.806095198364 40.5269927798228  3.14728973824131 65.5084685985003  C 3.03051239848325 65.6936883140484  2.82711904785098 65.8063178954087  2.60816058759373 65.807012726653  L 0.632082527607362 65.807012726653  C 0.628758677466507 65.8070661912626  0.625434451108996 65.807092924864  0.622110171002968 65.807092924864  C 0.279664198780162 65.807092924864  0.00205688811271533 65.5294856141966  0.00205688811271533 65.1870396419738  C 0.00205688811271533 65.0897439770248  0.0249533392605521 64.9938137680743  0.0688948234492161 64.9070059781868  C 5.9446376605317 53.4540644962509  14.4165117764145 43.5889842140423  25.2297157859577 35.7306019631902  C 34.9723163749148 28.6541210034083  46.6297552092706 23.1578464267212  60.0030027634629 18.778105131561  C 61.0856354287662 18.4226954246762  60.6307109911384 16.8293662699386  59.5163648275392 17.0830741281527  C 49.2619742222222 19.427684730743  39.9939823244717 22.494050400818  31.3941606884799 27.3068448261759  Z " fill-rule="nonzero" fill="#cacaca" stroke="none" transform="matrix(1 0 0 1 3227 2570 )" />
  </g>
</svg>