<?xml version="1.0" encoding="utf-8"?>
<svg version="1.1" xmlns:xlink="http://www.w3.org/1999/xlink" width="83px" height="59px" xmlns="http://www.w3.org/2000/svg">
  <g transform="matrix(1 0 0 1 -3263 -2584 )">
    <path d="M 27.3863954942059 24.533630593047  C 19.5448122958419 28.9123248929789  12.3299833251534 34.9757193660532  5.44236403544649 43.7245222249489  C 9.51769779822768 21.0287671970007  19.9969911506476 12.6024041567825  32.3966138841172 9.22441801363327  C 47.9166524880709 4.98309450715746  61.4600779059305 8.02433141240627  74.5513244130879 1.97715426993865  C 82.4596851247444 -1.6755734601227  82.1343834110429 4.88102038173142  81.9931967948194 5.93610443217451  C 79.9927345207907 21.1155779195637  71.8096322222222 35.5738546993865  54.315842271302 42.4366709734151  C 35.2365643776414 49.9186098295842  16.4053170879346 36.0661000845262  2.74550806952965 57.8584513306067  C 2.64363847527262 58.0200259760848  2.46621023323171 58.1182773130161  2.27520391683708 58.1188834423995  L 0.551391141104294 58.1188834423995  C 0.548491612258016 58.1189300817397  0.545591755222742 58.1189534025409  0.542691851300461 58.1189534025409  C 0.243962386169929 58.1189534025409  0.00179430665151763 57.8767853230225  0.00179430665151763 57.578055857892  C 0.00179430665151763 57.493180916128  0.0217678065889923 57.4094971168308  0.0600997396046353 57.3337711724608  C 5.18574774642127 47.3429073265167  12.5761060177232 38.7371989952284  22.0089010047716 31.8820144785276  C 30.5077653483299 25.708914066803  40.6770205017042 20.9142915637355  52.3430449638718 17.0936661785958  C 53.2874692038173 16.7836279236537  52.8906202263122 15.3937024907975  51.9185310197682 15.6150221117928  C 42.9732115555556 17.6603207225631  34.8883675596455 20.3352354560327  27.3863954942059 24.533630593047  Z " fill-rule="nonzero" fill="#b7b7b7" stroke="none" transform="matrix(1 0 0 1 3263 2584 )" />
  </g>
</svg>