<?xml version="1.0" encoding="utf-8"?>
<svg version="1.1" xmlns:xlink="http://www.w3.org/1999/xlink" width="77px" height="55px" xmlns="http://www.w3.org/2000/svg">
  <g transform="matrix(1 0 0 1 -3518 -2593 )">
    <path d="M 71.9189700787402 41.0074107142857  C 68.1170344488189 19.5067925824176  58.3437033464567 11.5276373626374  46.777257480315 8.32554945054945  C 32.3017122047244 4.30656043956044  19.6662850393701 7.18831868131868  7.45723779527559 1.46077884615385  C 0.0807590551181152 -1.99965041208791  0.384977263779529 4.21179120879121  0.514581299212602 5.20976923076923  C 2.38256643700787 19.5868296703297  10.0158962598425 33.2819807692308  26.3329996062992 39.7831620879121  C 44.1300793307087 46.8699649725275  61.6943401574803 33.7484910714286  74.4360970472441 54.3899684065934  C 74.5296338997479 54.5421060569687  74.6955733289078 54.6350624292378  74.8745726377953 54.6355947802198  L 76.482994261811 54.6355947802198  C 76.7671298854565 54.6352490620782  76.9972835650672 54.4055377927361  76.9972835650672 54.1222940636731  C 76.9972835650672 54.0419412784709  76.978359852363 53.9627107383045  76.9420355216535 53.8909793956044  C 72.1611009744095 44.4260686813187  65.2688809940945 36.2767005494506  56.4698878838583 29.77975  C 48.5412372933071 23.9319052197802  39.0550040255906 19.3914739010989  28.1726910334646 15.7728818681319  C 27.2918595374016 15.4800642857143  27.6635937106299 14.163739010989  28.5680951279528 14.3737815934066  C 36.912742765748 16.3117156593407  44.4529071358268 18.843407967033  51.4522526082677 22.8205879120879  C 58.7666463090551 26.976125  65.4951276082677 32.719907967033  71.9189435531496 41.0073804945055  Z " fill-rule="nonzero" fill="#b7b7b7" stroke="none" transform="matrix(1 0 0 1 3518 2593 )" />
  </g>
</svg>