<?xml version="1.0" encoding="utf-8"?>
<svg version="1.1" xmlns:xlink="http://www.w3.org/1999/xlink" width="50px" height="82px" xmlns="http://www.w3.org/2000/svg">
  <g transform="matrix(1 0 0 1 -3564 -2545 )">
    <path d="M 48.23359375 81.205078125  C 35.017578125 69.974609375  17.8484375 52.80546875  14.99140625 27.05625  C 17.8484375 49.9484375  43.59765625 72.831640625  49.9765625 78.95  C 47.433984375 75.6078125  43.59765625 68.860546875  43.59765625 58.528515625  C 43.59765625 49.9484375  43.81328125 35.19609375  35.017578125 24.19921875  C 20.211328125 5.69140625  1.065625 0.767968750000001  1.065625 0.767968750000001  C 1.065625 0.767968750000001  3.09609375 8.96171875  1.065625 20.13828125  C -0.542578125000002 28.996875  -0.713281250000001 46.08515625  3.536328125 55.6625  C 12.700390625 76.281640625  38.36875 80.3875  48.23359375 81.205078125  Z " fill-rule="nonzero" fill="#d5d5d5" stroke="none" transform="matrix(1 0 0 1 3564 2545 )" />
  </g>
</svg>