<?xml version="1.0" encoding="utf-8"?>
<svg version="1.1" xmlns:xlink="http://www.w3.org/1999/xlink" width="12px" height="14px" xmlns="http://www.w3.org/2000/svg">
  <g transform="matrix(1 0 0 1 -3356 -2926 )">
    <path d="M 11.814434699434 0.730973868534483  C 11.814434699434 0.444571659482759  11.5930498231132 0.211206896551724  11.3244030070755 0.211206896551724  L 0.551168189716981 0.211206896551724  C 0.280033903018868 0.211206896551724  0.0611364973584903 0.444571659482759  0 0.733625740991379  L 0 13.2637223868534  C 0.0611364976415094 13.5527764683621  0.280033903301887 13.7861412312931  0.55116819 13.7861412312931  L 11.3244030070755 13.7861412312931  C 11.5955372937736 13.7861412312931  11.814434699434 13.5527764683621  11.814434699434 13.2637223868534  L 11.814434699434 0.730973868534483  Z M 11.3244030070755 1.25339271297414  L 11.3244030070755 12.7386516702586  C 11.3244030070755 13.0277057517672  11.1055056014151 13.2610705146983  10.834371314717 13.2610705146983  L 1.04119988207547 13.2610705146983  C 0.770065595377358 13.2610705146983  0.551168189716981 13.0277057517672  0.551168189716981 12.7386516702586  L 0.551168189716981 1.25339271267241  C 0.551168189716981 0.964338631163793  0.770065595377358 0.730973868232758  1.04119988207547 0.730973868534483  L 10.834371315 0.730973868534483  C 11.1055056016981 0.730973868534483  11.3244030073585 0.964338631465517  11.3244030070755 1.25339271297414  Z M 10.6602483783962 1.95879074637931  C 10.5632370280189 1.85801959875  10.3940890327358 1.87393083258621  10.2796653891509 1.98530946913793  C 7.8941811614151 4.27387526939655  4.22764961660377 4.27387526939655  1.83967791849057 1.98530946943966  C 1.72525427462264 1.87393083258621  1.55610627933962 1.86067147090517  1.45909492924528 1.95879074637931  C 1.36208357886792 2.05956189400862  1.38198334301887 2.24519295543103  1.50884433962264 2.36452720905172  C 4.08337632679245 4.83342032612069  8.03596698113208 4.83342032612069  10.6104989683019 2.36452720905172  C 10.7373599649057 2.24254108297414  10.7572597290566 2.05691002155172  10.6602483783962 1.95879074637931  Z " fill-rule="nonzero" fill="#ffffff" stroke="none" transform="matrix(1 0 0 1 3356 2926 )" />
  </g>
</svg>