<?xml version="1.0" encoding="utf-8"?>
<svg version="1.1" xmlns:xlink="http://www.w3.org/1999/xlink" width="27px" height="27px" xmlns="http://www.w3.org/2000/svg">
  <g transform="matrix(1 0 0 1 -3474 -3014 )">
    <path d="M 27 13.5  C 27 6.04415587728431  20.9558441227159 0  13.5 0  C 6.04415587728431 0  0 6.04415587728431  0 13.5  C 0 20.9558441227157  6.04415587728431 27  13.5 27  C 20.9558441227159 27  27 20.9558441227157  27 13.5  Z M 24.3000000000002 13.5  C 24.3000000000002 16.8464752625957  22.7779557888589 19.8374580518803  20.3883600821118 21.8184556523186  C 18.518799104223 23.3683395094972  16.1182000355766 24.3  13.5 24.3  C 10.3766013832765 24.3  7.56288051395018 22.974111948545  5.59097530386498 20.8544737574787  C 3.79718303494224 18.9262925342625  2.70000000000005 16.341276681449  2.70000000000005 13.5  C 2.70000000000005 7.53532470182745  7.53532470182745 2.70000000000005  13.5 2.70000000000005  C 19.4646752981726 2.70000000000005  24.3000000000002 7.53532470182745  24.3000000000002 13.5  Z M 18.5625 13.7362499999999  C 18.5625 14.798707787487  19.423792212513 15.6600000000001  20.4862499999999 15.6600000000001  C 21.5487077874868 15.6600000000001  22.4099999999999 14.798707787487  22.4099999999999 13.7362499999999  C 22.4099999999999 12.673792212513  21.5487077874868 11.8125  20.4862499999999 11.8125  C 19.423792212513 11.8125  18.5625 12.673792212513  18.5625 13.7362499999999  Z M 15.6600000000001 13.753125  C 15.6677365579535 13.0581724733261  15.300033695511 12.4130797321991  14.6981249999999 12.065625  C 14.40570638752 11.8968249287484  14.074011179953 11.8079601829859  13.7363691965161 11.8079601829859  C 12.6739114090292 11.8079601829859  11.8126191965162 12.6692523954989  11.8126191965162 13.7317101829858  C 11.8126191965162 14.7941679704729  12.6739114090292 15.6554601829857  13.7363691965161 15.6554601829857  C 14.7904734131248 15.6554601829857  15.6482659134958 14.8071639037821  15.6600000000001 13.753125  Z M 8.91000000000008 13.753125  C 8.9177365579535 13.0581724733261  8.55003369551105 12.4130797321991  7.94812499999989 12.065625  C 7.65570638752001 11.8968249287484  7.324011179953 11.8079601829859  6.98636919651608 11.8079601829859  C 5.92391140902919 11.8079601829859  5.06261919651615 12.6692523954989  5.06261919651615 13.7317101829858  C 5.06261919651615 14.7941679704729  5.92391140902919 15.6554601829857  6.98636919651608 15.6554601829857  C 8.04047341312457 15.6554601829857  8.89826591349583 14.8071639037821  8.91000000000008 13.753125  Z " fill-rule="nonzero" fill="#646464" stroke="none" transform="matrix(1 0 0 1 3474 3014 )" />
  </g>
</svg>