<?xml version="1.0" encoding="utf-8"?>
<svg version="1.1" xmlns:xlink="http://www.w3.org/1999/xlink" width="17px" height="20px" xmlns="http://www.w3.org/2000/svg">
  <g transform="matrix(1 0 0 1 -3455 -3102 )">
    <path d="M 15.4564782519531 8.78873912597656  L 11.8472173984375 8.78873912597656  C 11.5194484048645 8.78873912597656  11.2537391362305 8.52302985734256  11.2537391362305 8.19526086376953  C 11.2537391362305 7.86749187019651  11.5194484048645 7.6017826015625  11.8472173984375 7.6017826015625  L 15.4564782519531 7.6017826015625  C 16.2645217275391 7.6017826015625  16.9191739023438 8.25734782519531  16.9191739228516 9.06539130078125  L 16.9191739228516 17.7612173984375  C 16.9191739228516 18.5692608740234  16.2645217480469 19.2239130488281  15.4564782519531 19  L 1.54352174804688 19  C 1.54352187159256 19.2239130488281  1.54352160399338 19.2239130488281  1.54352172753906 19.2239130488281  C 0.735697226184487 19.2239130488281  0.0808260771484379 18.5690418997921  0.0808260771484379 17.7612173984375  L 0.0808260771484375 9.06539130078125  C 0.0808260771484375 8.25734782519531  0.735478251953125 7.6017826015625  1.54352174804688 7.6017826015625  L 5.2367826015625 7.6017826015625  C 5.56455159513553 7.6017826015625  5.83026086376953 7.86749187019651  5.83026086376953 8.19526086376953  C 5.83026086376953 8.52302985734256  5.56455159513552 8.78873912597656  5.2367826015625 8.78873912597656  L 1.54352174804688 8.78873912597656  C 1.39123370164725 8.78873912597231  1.26778108987922 8.91219173774034  1.26778108987922 9.06447825194887  L 1.2677826015625 17.7612173984375  C 1.2677826015625 17.9136956503906  1.39104347558594 18.0369565244141  1.54352174804687 18  L 15.4564782519531 18  C 15.4564782651247 18.0369565244141  15.4564782592894 18.0369565244141  15.4564782724609 18.0369565244141  C 15.6087647866695 18.0369565244141  15.7322173984375 17.913503912646  15.7322173984375 17.7612173984375  L 15.7322173984375 9.06539130078125  C 15.7322189101208 8.91219173774034  15.6087662983528 8.7887391259723  15.4564797841442 8.7887391259723  Z M 8 14.4742608740234  L 8 2.10891304882813  L 7.89465217480469 2.10891304882813  C 7.89465217480469 1.7811440552551  8.1603614434387 1.51543478662109  8.48813043701172 1.51543478662109  C 8.81589943058474 1.51543478662109  9.08160869921875 1.7811440552551  9.08160869921875 2.10891304882813  C 9.08160869921875 2.10891304882813  9.08160869921875 2.10891304882813  9 2.10891304882812  L 9 14.4742608740234  C 9.08160869921875 14.4742608740234  9.08160869921875 14.4742608740234  9.08160869921875 14.4742608740234  C 9.08160869921875 14.8020298675965  8.81589943058474 15.0677391362305  8.48813043701172 15.0677391362305  C 8.16036144343869 15.0677391362305  7.89465217480469 14.8020298675965  8 14.4742608740234  Z M 8.5 1.65513042675781  L 8.5 1.65695652441406  L 5.23039130078125 4.92565217480469  C 5.11904239584601 5.03712224356809  4.96794813135484 5.09975567167522  4.81039130078125 5.09975567167522  C 4.48252913111032 5.09975567167522  4.21674432832479 4.83397086888968  4.21674432832479 4.50610869921875  C 4.21674432832479 4.3487755912651  4.27920050558108 4.19787701061473  4.39039130078125 4.08656522363281  L 8.08 0.397869573242187  C 8.19132689468061 0.286358075229479  8.34242940734939 0.223696026177211  8.5 0.223696026177211  C 8.65757059265061 0.223696026177211  8.80867310531939 0.286358075229479  8.92 0.397869573242187  L 12.6086956503906 4.08656522363281  C 12.720165719154 4.19791412856805  12.7827991472612 4.34900839305923  12.7827991472612 4.50656522363281  C 12.7827991472612 4.83442739330374  12.5170143444756 5.10021219608928  12.1891521748047 5.10021219608928  C 12.031819066851 5.10021219608928  11.8809204862007 5.03775601883299  11.7696086992188 4.92656522363281  L 8.5 1.65513042675781  Z " fill-rule="nonzero" fill="#000000" stroke="none" transform="matrix(1 0 0 1 3455 3102 )" />
  </g>
</svg>