<?xml version="1.0" encoding="utf-8"?>
<svg version="1.1" xmlns:xlink="http://www.w3.org/1999/xlink" width="43px" height="43px" xmlns="http://www.w3.org/2000/svg">
  <g transform="matrix(1 0 0 1 -3321 -3579 )">
    <path d="M 3342.5 3580  C 3353.98 3580  3363 3589.02  3363 3600.5  C 3363 3611.98  3353.98 3621  3342.5 3621  C 3331.02 3621  3322 3611.98  3322 3600.5  C 3322 3589.02  3331.02 3580  3342.5 3580  Z " fill-rule="nonzero" fill="#44474d" stroke="none" />
    <path d="M 3342.5 3580  C 3353.98 3580  3363 3589.02  3363 3600.5  C 3363 3611.98  3353.98 3621  3342.5 3621  C 3331.02 3621  3322 3611.98  3322 3600.5  C 3322 3589.02  3331.02 3580  3342.5 3580  Z " stroke-width="2" stroke="#ffffff" fill="none" />
  </g>
</svg>