<?xml version="1.0" encoding="utf-8"?>
<svg version="1.1" xmlns:xlink="http://www.w3.org/1999/xlink" width="9px" height="5px" xmlns="http://www.w3.org/2000/svg">
  <g transform="matrix(1 0 0 1 -3337 -3608 )">
    <path d="M 4.6369484623326 3.83765101196289  L 6.17367924944196 2.82953957397461  L 8.60052552162388 1.21542853149414  C 8.63996101275073 1.18679118223161  8.68669113798375 1.16916667706356  8.73567396512277 1.16445660644531  C 8.69722656780134 1.1474659765625  8.67742031626674 1.1474659765625  8.63897291894531 1.1304753112793  C 8.52246565764509 1.09649401611328  8.4269297172154 1.06251275634766  8.31158752525112 1.02853146118164  C 8.26254523883569 1.00921353835859  8.21061086174979 0.997738136120927  8.15779793596541 0.994550166015622  C 8.00400834667969 0.960568870849605  7.85021875739398 0.909596945800781  7.67662291657367 0.881279217529296  L 7.65798177078684 0.881279217529296  C 7.50419218150112 0.847297922363279  7.33059637709264 0.813316662597656  7.17680678780692 0.779335367431639  C 7.1185531389509 0.762344737548828  7.0801057780413 0.762344737548828  7.02301719852121 0.745354107666012  C 6.73407920214844 0.694382182617184  6.42650002357701 0.64341025756836  6.13756199079242 0.609428962402343  C 6.07930834193639 0.609428962402343  6.0210547294922 0.592438332519527  5.9837724015067 0.592438297119138  L 5.46415002120536 0.541466372070309  L 3.53595484486608 0.541466372070309  L 3.01633242815291 0.592438297119138  C 2.95807877929688 0.592438297119138  2.91963141838728 0.609428927001949  2.86254287527902 0.609428962402343  C 2.5549636967076 0.64341025756836  2.26602570033482 0.694382182617184  1.95728141601563 0.745354107666012  C 1.8990277671596 0.762344737548828  1.86058040625001 0.762344737548828  1.80349182672992 0.779335367431639  C 1.47610643303572 0.847297922363279  1.14872100292969 0.915260512695313  0.821335609235497 1.00021373291016  C 0.77877868030638 1.01941571230459  0.732983595078498 1.03093028611143  0.686187202148443 1.03419502807617  C 0.56967994084822 1.06817632324219  0.453172679547996 1.10215758300781  0.358801808454248 1.13613887817383  C 0.320354411132818 1.15312950805664  0.300548159598221 1.15312950805664  0.262100762276793 1.17012013793945  L 0.262100762276793 1.18711080322266  L 0.378608023577014 1.23808272827148  L 2.82526054729353 2.85219377075196  L 4.40393393973215 3.83765101196289  L 4.6369484623326 3.83765101196289  Z " fill-rule="nonzero" fill="#ebf1ff" stroke="none" transform="matrix(1 0 0 1 3337 3608 )" />
  </g>
</svg>