<?xml version="1.0" encoding="utf-8"?>
<svg version="1.1" xmlns:xlink="http://www.w3.org/1999/xlink" width="21px" height="12px" xmlns="http://www.w3.org/2000/svg">
  <g transform="matrix(1 0 0 1 -3332 -3588 )">
    <path d="M 10.4600951164063 4.93644857421875  C 10.5565113541016 6.7814058046875  11.5701504214844 11.0355606158854  19.1197951191406 11.0355606158854  C 19.3486126760473 11.0727855947185  19.5598744726485 11.1761281915036  19.7249338371094 11.331575359375  L 19.7249338371094 9.72826281901042  C 19.7262024486768 9.66877931235405  19.7268368035156 9.60928507048521  19.7268368035156 9.549789294879  C 19.7268368035156 4.69596989551099  15.5952988320317 0.761171827431088  10.4987884626953 0.761171827431088  C 5.4022780933589 0.761171827431088  1.270740121875 4.69596989551099  1.270740121875 9.549789294879  C 1.270740121875 9.60928507048521  1.27137447671386 9.66877931235405  1.27264308828125 9.72826281901042  L 1.27264308828125 11.3376164973958  C 1.40673294200956 11.2238995906702  1.55815289707184 11.1302041624927  1.72173975039063 11.0597250924479  C 9.05571657402344 11.0597250924479  10.2850235154297 6.78623872265625  10.4600951164063 4.93644857421875  Z " fill-rule="nonzero" fill="#c9d4f8" stroke="none" transform="matrix(1 0 0 1 3332 3588 )" />
  </g>
</svg>