<?xml version="1.0" encoding="utf-8"?>
<svg version="1.1" xmlns:xlink="http://www.w3.org/1999/xlink" width="8px" height="9px" xmlns="http://www.w3.org/2000/svg">
  <g transform="matrix(1 0 0 1 -3580 -3595 )">
    <path d="M 4.74861111111111 6.54897017045455  L 7.609375 6.54897017045455  L 7.609375 5.10404829545455  L 4.74861111111111 5.10404829545455  L 4.74861111111111 3.37436079545455  L 7.609375 3.37436079545455  L 7.609375 1.93295454545455  L 6.82638888888889 1.93295454545455  L 7.26180555555555 0.319282670454547  L 5.64618055555556 0.319282670454547  L 5.21458333333334 1.93295454545455  L 2.94965277777778 1.93295454545455  L 2.46076388888889 0.319282670454547  L 0.837500000000003 0.319282670454547  L 1.32256944444445 1.93295454545455  L 0.379166666666669 1.93295454545455  L 0.379166666666669 3.37436079545455  L 3.18263888888889 3.37436079545455  L 3.18263888888889 5.10404829545455  L 0.379166666666669 5.10404829545455  L 0.379166666666669 6.54897017045455  L 3.18263888888889 6.54897017045455  L 3.18263888888889 8.72514204545454  L 4.74861111111111 8.72514204545454  L 4.74861111111111 6.54897017045455  Z " fill-rule="nonzero" fill="#6e6e6e" stroke="none" transform="matrix(1 0 0 1 3580 3595 )" />
  </g>
</svg>