<?xml version="1.0" encoding="utf-8"?>
<svg version="1.1" xmlns:xlink="http://www.w3.org/1999/xlink" width="25px" height="25px" xmlns="http://www.w3.org/2000/svg">
  <g transform="matrix(1 0 0 1 -1967 -746 )">
    <path d="M 25 12.5  C 25 19.4050048828125  19.4050048828125 25  12.5 25  C 5.5949951171875 25  0 19.4050048828125  0 12.5  C 0 5.5949951171875  5.5949951171875 0  12.5 0  C 19.4050048828125 0  25 5.5949951171875  25 12.5  Z M 23.80927734375 12.5  C 23.80927734375 6.2699951171875  18.7300048828125 1.19072265625  12.5 1.19072265625  C 6.27001953125 1.19072265625  1.19072265625 6.2699951171875  1.19072265625 12.5  C 1.19072265625 18.7300048828125  6.2699951171875 23.80927734375  12.5 23.80927734375  C 18.72998046875 23.80927734375  23.80927734375 18.7300048828125  23.80927734375 12.5  Z " fill-rule="nonzero" fill="#404040" stroke="none" transform="matrix(1 0 0 1 1967 746 )" />
  </g>
</svg>