<?xml version="1.0" encoding="utf-8"?>
<svg version="1.1" xmlns:xlink="http://www.w3.org/1999/xlink" width="11px" height="11px" xmlns="http://www.w3.org/2000/svg">
  <g transform="matrix(1 0 0 1 -1974 -753 )">
    <path d="M 10.793953125 9.9179765625  L 6.339814453125 5.5  L 10.793953125 1.0458837890625  C 11.012767578125 0.827046875  11.012767578125 0.4616748046875  10.793953125 0.2060693359375  L 10.7571396484375 0.1699072265625  C 10.5342269828008 -0.0490137191980935  10.1770288765742 -0.0490137191980935  9.9541162109375 0.1699072265625  L 5.5 4.660185546875  L 1.0458837890625 0.206046874999999  C 0.822971123425759 -0.0128740707605957  0.465773017199241 -0.0128740707605939  0.242860351562499 0.206046874999999  L 0.206046874999999 0.242860351562499  C -0.0127675781250014 0.4616748046875  -0.0127675781250014 0.8270693359375  0.206046874999999 1.0826748046875  L 4.660185546875 5.5  L 0.206046874999999 9.9541162109375  C -0.0127675781250014 10.172953125  -0.0127675781250014 10.5383251953125  0.206046874999999 10.7939306640625  L 0.242860351562499 10.830744140625  C 0.465773017199241 11.0496650863856  0.822971123425759 11.0496650863856  1.0458837890625 10.830744140625  L 5.5 6.34048828125  L 9.9541162109375 10.7946044921875  C 10.1770288765742 11.0135254379481  10.5342269828008 11.0135254379481  10.7571396484375 10.7946044921875  L 10.793953125 10.757791015625  C 11.012767578125 10.5389765625  11.012767578125 10.17358203125  10.793953125 9.9179765625  Z " fill-rule="nonzero" fill="#404040" stroke="none" transform="matrix(1 0 0 1 1974 753 )" />
  </g>
</svg>